<svg width="3300" height="2200" viewBox="0 0 3300 2200" fill="none" xmlns="http://www.w3.org/2000/svg">
<g id="custom.dumbbell.fill 1" clip-path="url(#clip0_12_383)">
<g id="Notes">
<path id="artboard" d="M3302 0H2V2200H3302V0Z" fill="white"/>
<path id="Vector" d="M265 292H3038" stroke="black" stroke-width="0.5"/>
<text id="Weight/Scale Variations" fill="black" xml:space="preserve" style="white-space: pre" font-family="Inter" font-size="13" font-weight="bold" letter-spacing="0em"><tspan x="265" y="321.727">Weight/Scale Variations</tspan></text>
<text id="Ultralight" fill="black" xml:space="preserve" style="white-space: pre" font-family="Inter" font-size="13" letter-spacing="0em"><tspan x="533.661" y="321.727">Ultralight</tspan></text>
<text id="Thin" fill="black" xml:space="preserve" style="white-space: pre" font-family="Inter" font-size="13" letter-spacing="0em"><tspan x="845.066" y="321.727">Thin</tspan></text>
<text id="Light" fill="black" xml:space="preserve" style="white-space: pre" font-family="Inter" font-size="13" letter-spacing="0em"><tspan x="1139.77" y="321.727">Light</tspan></text>
<text id="Regular" fill="black" xml:space="preserve" style="white-space: pre" font-family="Inter" font-size="13" letter-spacing="0em"><tspan x="1428.58" y="321.727">Regular</tspan></text>
<text id="Medium" fill="black" xml:space="preserve" style="white-space: pre" font-family="Inter" font-size="13" letter-spacing="0em"><tspan x="1723.99" y="321.727">Medium</tspan></text>
<text id="Semibold" fill="black" xml:space="preserve" style="white-space: pre" font-family="Inter" font-size="13" letter-spacing="0em"><tspan x="2016.65" y="321.727">Semibold</tspan></text>
<text id="Bold" fill="black" xml:space="preserve" style="white-space: pre" font-family="Inter" font-size="13" letter-spacing="0em"><tspan x="2328.29" y="321.727">Bold</tspan></text>
<text id="Heavy" fill="black" xml:space="preserve" style="white-space: pre" font-family="Inter" font-size="13" letter-spacing="0em"><tspan x="2619.32" y="321.727">Heavy</tspan></text>
<text id="Black" fill="black" xml:space="preserve" style="white-space: pre" font-family="Inter" font-size="13" letter-spacing="0em"><tspan x="2918.8" y="321.727">Black</tspan></text>
<path id="Vector_2" d="M265 1903H3038" stroke="black" stroke-width="0.5"/>
<g id="Group">
<path id="Vector_3" d="M274.248 1933.83C278.604 1933.83 282.139 1930.3 282.139 1925.95C282.139 1921.59 278.604 1918.07 274.248 1918.07C269.902 1918.07 266.367 1921.59 266.367 1925.95C266.367 1930.3 269.902 1933.83 274.248 1933.83ZM274.248 1932.35C270.713 1932.35 267.861 1929.48 267.861 1925.95C267.861 1922.41 270.713 1919.55 274.248 1919.55C277.783 1919.55 280.645 1922.41 280.645 1925.95C280.645 1929.48 277.783 1932.35 274.248 1932.35ZM270.654 1925.95C270.654 1926.38 270.957 1926.67 271.406 1926.67H273.506V1928.79C273.506 1929.23 273.799 1929.53 274.228 1929.53C274.678 1929.53 274.971 1929.23 274.971 1928.79V1926.67H277.09C277.529 1926.67 277.832 1926.38 277.832 1925.95C277.832 1925.51 277.529 1925.21 277.09 1925.21H274.971V1923.1C274.971 1922.65 274.678 1922.35 274.228 1922.35C273.799 1922.35 273.506 1922.65 273.506 1923.1V1925.21H271.406C270.957 1925.21 270.654 1925.51 270.654 1925.95Z" fill="black"/>
</g>
<g id="Group_2">
<path id="Vector_4" d="M295.215 1935.91C300.713 1935.91 305.176 1931.45 305.176 1925.95C305.176 1920.45 300.713 1915.99 295.215 1915.99C289.717 1915.99 285.254 1920.45 285.254 1925.95C285.254 1931.45 289.717 1935.91 295.215 1935.91ZM295.215 1934.25C290.625 1934.25 286.914 1930.54 286.914 1925.95C286.914 1921.36 290.625 1917.65 295.215 1917.65C299.805 1917.65 303.516 1921.36 303.516 1925.95C303.516 1930.54 299.805 1934.25 295.215 1934.25ZM290.684 1925.95C290.684 1926.43 291.016 1926.75 291.514 1926.75H294.385V1929.63C294.385 1930.12 294.717 1930.46 295.195 1930.46C295.684 1930.46 296.025 1930.13 296.025 1929.63V1926.75H298.906C299.395 1926.75 299.736 1926.43 299.736 1925.95C299.736 1925.46 299.395 1925.12 298.906 1925.12H296.025V1922.25C296.025 1921.75 295.684 1921.41 295.195 1921.41C294.717 1921.41 294.385 1921.75 294.385 1922.25V1925.12H291.514C291.016 1925.12 290.684 1925.46 290.684 1925.95Z" fill="black"/>
</g>
<g id="Group_3">
<path id="Vector_5" d="M321.895 1938.66C328.916 1938.66 334.619 1932.97 334.619 1925.95C334.619 1918.93 328.916 1913.22 321.895 1913.22C314.873 1913.22 309.18 1918.93 309.18 1925.95C309.18 1932.97 314.873 1938.66 321.895 1938.66ZM321.895 1936.85C315.869 1936.85 310.996 1931.97 310.996 1925.95C310.996 1919.92 315.869 1915.05 321.895 1915.05C327.92 1915.05 332.793 1919.92 332.793 1925.95C332.793 1931.97 327.92 1936.85 321.895 1936.85ZM316.123 1925.95C316.123 1926.47 316.494 1926.83 317.041 1926.83H320.987V1930.78C320.987 1931.32 321.358 1931.7 321.875 1931.7C322.412 1931.7 322.783 1931.33 322.783 1930.78V1926.83H326.739C327.276 1926.83 327.657 1926.47 327.657 1925.95C327.657 1925.4 327.285 1925.03 326.739 1925.03H322.783V1921.09C322.783 1920.54 322.412 1920.16 321.875 1920.16C321.358 1920.16 320.987 1920.54 320.987 1921.09V1925.03H317.041C316.494 1925.03 316.123 1925.4 316.123 1925.95Z" fill="black"/>
</g>
<text id="Design Variations" fill="black" xml:space="preserve" style="white-space: pre" font-family="Inter" font-size="13" font-weight="bold" letter-spacing="0em"><tspan x="265" y="1952.73">Design Variations</tspan></text>
<text id="Symbols are supported in up to nine weights and three scales." fill="black" xml:space="preserve" style="white-space: pre" font-family="Inter" font-size="13" letter-spacing="0em"><tspan x="265" y="1970.73">Symbols are supported in up to nine weights and three scales.</tspan></text>
<text id="For optimal layout with text and other symbols, vertically align" fill="black" xml:space="preserve" style="white-space: pre" font-family="Inter" font-size="13" letter-spacing="0em"><tspan x="265" y="1988.73">For optimal layout with text and other symbols, vertically align</tspan></text>
<text id="symbols with the adjacent text." fill="black" xml:space="preserve" style="white-space: pre" font-family="Inter" font-size="13" letter-spacing="0em"><tspan x="265" y="2006.73">symbols with the adjacent text.</tspan></text>
<path id="Vector_6" d="M778 1919V1933" stroke="#00AEEF" stroke-width="0.5"/>
<g id="Group_4">
<path id="Vector_7" d="M781.311 1933.16C781.828 1933.16 782.082 1932.96 782.268 1932.41L783.527 1928.97H789.289L790.549 1932.41C790.734 1932.96 790.988 1933.16 791.496 1933.16C792.014 1933.16 792.346 1932.84 792.346 1932.36C792.346 1932.19 792.316 1932.03 792.238 1931.83L787.658 1919.63C787.434 1919.04 787.033 1918.73 786.408 1918.73C785.803 1918.73 785.393 1919.03 785.178 1919.62L780.598 1931.84C780.52 1932.04 780.49 1932.2 780.49 1932.37C780.49 1932.85 780.803 1933.16 781.311 1933.16ZM784.006 1927.48L786.379 1920.91H786.428L788.801 1927.48H784.006Z" fill="black"/>
</g>
<path id="Vector_8" d="M794.836 1919V1933" stroke="#00AEEF" stroke-width="0.5"/>
<text id="Margins" fill="black" xml:space="preserve" style="white-space: pre" font-family="Inter" font-size="13" font-weight="bold" letter-spacing="0em"><tspan x="778" y="1952.73">Margins</tspan></text>
<text id="Leading and trailing margins on the left and right side of each symbol" fill="black" xml:space="preserve" style="white-space: pre" font-family="Inter" font-size="13" letter-spacing="0em"><tspan x="778" y="1970.73">Leading and trailing margins on the left and right side of each symbol</tspan></text>
<text id="can be adjusted by modifying the x-location of the margin guidelines." fill="black" xml:space="preserve" style="white-space: pre" font-family="Inter" font-size="13" letter-spacing="0em"><tspan x="778" y="1988.73">can be adjusted by modifying the x-location of the margin guidelines.</tspan></text>
<text id="Modifications are automatically applied proportionally to all" fill="black" xml:space="preserve" style="white-space: pre" font-family="Inter" font-size="13" letter-spacing="0em"><tspan x="778" y="2006.73">Modifications are automatically applied proportionally to all</tspan></text>
<text id="scales and weights." fill="black" xml:space="preserve" style="white-space: pre" font-family="Inter" font-size="13" letter-spacing="0em"><tspan x="778" y="2024.73">scales and weights.</tspan></text>
<g id="Group_5">
<path id="Vector_9" d="M1293.84 1934.87L1295.54 1936.57C1296.4 1937.44 1297.39 1937.38 1298.31 1936.36L1309.01 1924.57L1308.04 1923.6L1297.43 1935.28C1297.07 1935.68 1296.74 1935.77 1296.27 1935.3L1295.1 1934.14C1294.63 1933.68 1294.74 1933.34 1295.14 1932.98L1306.62 1922.18L1305.64 1921.21L1294.05 1932.1C1293.06 1933.02 1292.98 1934 1293.84 1934.87ZM1300.26 1916.67C1299.84 1917.08 1299.81 1917.66 1300.04 1918.05C1300.28 1918.41 1300.74 1918.64 1301.38 1918.48C1302.85 1918.14 1304.37 1918.08 1305.79 1919.02L1305.21 1920.47C1304.87 1921.3 1305.04 1921.89 1305.58 1922.43L1307.88 1924.75C1308.36 1925.24 1308.77 1925.26 1309.34 1925.16L1310.4 1924.96L1311.07 1925.64L1311.03 1926.19C1310.99 1926.69 1311.12 1927.07 1311.61 1927.55L1312.37 1928.29C1312.85 1928.77 1313.46 1928.8 1313.93 1928.33L1316.84 1925.41C1317.31 1924.94 1317.29 1924.35 1316.81 1923.87L1316.04 1923.11C1315.56 1922.63 1315.19 1922.47 1314.71 1922.51L1314.13 1922.56L1313.49 1921.93L1313.73 1920.8C1313.86 1920.24 1313.71 1919.8 1313.12 1919.21L1310.92 1917.02C1307.58 1913.7 1303.15 1913.78 1300.26 1916.67ZM1301.75 1917.04C1304.18 1915.27 1307.47 1915.57 1309.7 1917.79L1312.13 1920.21C1312.37 1920.44 1312.41 1920.63 1312.34 1920.97L1312.02 1922.45L1313.52 1923.94L1314.51 1923.88C1314.76 1923.87 1314.84 1923.89 1315.03 1924.08L1315.61 1924.66L1313.17 1927.1L1312.59 1926.53C1312.4 1926.33 1312.37 1926.25 1312.38 1925.99L1312.45 1925.01L1310.95 1923.53L1309.43 1923.78C1309.11 1923.85 1308.96 1923.82 1308.71 1923.59L1306.71 1921.58C1306.46 1921.35 1306.43 1921.18 1306.59 1920.81L1307.46 1918.72C1305.9 1917.27 1303.87 1916.64 1301.84 1917.24C1301.68 1917.28 1301.63 1917.15 1301.75 1917.04Z" fill="black"/>
</g>
<text id="Exporting" fill="black" xml:space="preserve" style="white-space: pre" font-family="Inter" font-size="13" font-weight="bold" letter-spacing="0em"><tspan x="1291" y="1952.73">Exporting</tspan></text>
<text id="Symbols should be outlined when exporting to ensure the" fill="black" xml:space="preserve" style="white-space: pre" font-family="Inter" font-size="13" letter-spacing="0em"><tspan x="1291" y="1970.73">Symbols should be outlined when exporting to ensure the</tspan></text>
<text id="design is preserved when submitting to Xcode." fill="black" xml:space="preserve" style="white-space: pre" font-family="Inter" font-size="13" letter-spacing="0em"><tspan x="1291" y="1988.73">design is preserved when submitting to Xcode.</tspan></text>
<text id="template-version" fill="black" xml:space="preserve" style="white-space: pre" font-family="Inter" font-size="13" letter-spacing="0em"><tspan x="2948.51" y="1932.73">Template v.5.0</tspan></text>
<text id="Requires Xcode 15 or greater" fill="black" xml:space="preserve" style="white-space: pre" font-family="Inter" font-size="13" letter-spacing="0em"><tspan x="2860.37" y="1950.73">Requires Xcode 15 or greater</tspan></text>
<text id="descriptive-name" fill="black" xml:space="preserve" style="white-space: pre" font-family="Inter" font-size="13" letter-spacing="0em"><tspan x="2814.26" y="1968.73">Generated from custom.dumbbell.fill</tspan></text>
<text id="Typeset at 100.0 points" fill="black" xml:space="preserve" style="white-space: pre" font-family="Inter" font-size="13" letter-spacing="0em"><tspan x="2894.56" y="1986.73">Typeset at 100.0 points</tspan></text>
<text id="Small" fill="black" xml:space="preserve" style="white-space: pre" font-family="Inter" font-size="13" letter-spacing="0em"><tspan x="265" y="725.727">Small</tspan></text>
<text id="Medium_2" fill="black" xml:space="preserve" style="white-space: pre" font-family="Inter" font-size="13" letter-spacing="0em"><tspan x="265" y="1155.73">Medium</tspan></text>
<text id="Large" fill="black" xml:space="preserve" style="white-space: pre" font-family="Inter" font-size="13" letter-spacing="0em"><tspan x="265" y="1585.73">Large</tspan></text>
</g>
<g id="Guides">
<g id="H-reference">
<path id="Vector_10" d="M339.994 696H342.638L368.328 628.868H369.03V625.541H367.123L339.994 696ZM350.688 671.52H385.981L385.231 669.272H351.438L350.688 671.52ZM394.12 696H396.764L369.638 625.541H368.433V628.868L394.12 696Z" fill="#27AAE1"/>
</g>
<path id="Baseline-S" d="M263 696H3036" stroke="#27AAE1" stroke-width="0.5"/>
<path id="Capline-S" d="M263 625.541H3036" stroke="#27AAE1" stroke-width="0.5"/>
<g id="H-reference_2">
<path id="Vector_11" d="M339.994 1126H342.638L368.328 1058.87H369.03V1055.54H367.123L339.994 1126ZM350.688 1101.52H385.981L385.231 1099.27H351.438L350.688 1101.52ZM394.12 1126H396.764L369.638 1055.54H368.433V1058.87L394.12 1126Z" fill="#27AAE1"/>
</g>
<path id="Baseline-M" d="M263 1126H3036" stroke="#27AAE1" stroke-width="0.5"/>
<path id="Capline-M" d="M263 1055.54H3036" stroke="#27AAE1" stroke-width="0.5"/>
<g id="H-reference_3">
<path id="Vector_12" d="M339.994 1556H342.638L368.328 1488.87H369.03V1485.54H367.123L339.994 1556ZM350.688 1531.52H385.981L385.231 1529.27H351.438L350.688 1531.52ZM394.12 1556H396.764L369.638 1485.54H368.433V1488.87L394.12 1556Z" fill="#27AAE1"/>
</g>
<path id="Baseline-L" d="M263 1556H3036" stroke="#27AAE1" stroke-width="0.5"/>
<path id="Capline-L" d="M263 1485.54H3036" stroke="#27AAE1" stroke-width="0.5"/>
<path id="right-margin-Black-S" d="M3005.01 600.785V720.121" stroke="#00AEEF" stroke-width="0.5"/>
<path id="left-margin-Black-S" d="M2861.79 600.785V720.121" stroke="#00AEEF" stroke-width="0.5"/>
<path id="right-margin-Regular-S" d="M1510.05 600.785V720.121" stroke="#00AEEF" stroke-width="0.5"/>
<path id="left-margin-Regular-S" d="M1389.64 600.785V720.121" stroke="#00AEEF" stroke-width="0.5"/>
<path id="right-margin-Ultralight-S" d="M608.655 600.785V720.121" stroke="#00AEEF" stroke-width="0.5"/>
<path id="left-margin-Ultralight-S" d="M510.768 600.785V720.121" stroke="#00AEEF" stroke-width="0.5"/>
</g>
<g id="Ultralight-S">
<g id="Vector_13" filter="url(#filter0_d_12_383)">
<path d="M609 662.049C609 663.516 607.734 664.705 606.173 664.705V657.623C607.734 657.623 609 658.812 609 660.279V662.049Z" fill="black"/>
<path d="M592.981 670.459V650.541C592.981 648.585 591.293 647 589.211 647C587.13 647 585.442 648.585 585.442 650.541V670.459C585.442 672.415 587.13 674 589.211 674C591.293 674 592.981 672.415 592.981 670.459Z" fill="black"/>
<path d="M603.346 669.131V653.197C603.346 651.241 601.659 649.656 599.577 649.656C597.495 649.656 595.808 651.241 595.808 653.197V669.131C595.808 671.087 597.495 672.672 599.577 672.672C601.659 672.672 603.346 671.087 603.346 669.131Z" fill="black"/>
<path d="M511 662.049C511 663.516 512.266 664.705 513.827 664.705V657.623C512.266 657.623 511 658.812 511 660.279V662.049Z" fill="black"/>
<path d="M527.019 670.459V650.541C527.019 648.585 528.707 647 530.789 647C532.87 647 534.558 648.585 534.558 650.541V670.459C534.558 672.415 532.87 674 530.789 674C528.707 674 527.019 672.415 527.019 670.459Z" fill="black"/>
<path d="M516.654 669.131V653.197C516.654 651.241 518.341 649.656 520.423 649.656C522.505 649.656 524.192 651.241 524.192 653.197V669.131C524.192 671.087 522.505 672.672 520.423 672.672C518.341 672.672 516.654 671.087 516.654 669.131Z" fill="black"/>
<path d="M582.615 657.746V664.769L537.385 664.769V657.746L582.615 657.746Z" fill="black"/>
</g>
<g id="Vector (Stroke)" filter="url(#filter1_d_12_383)">
<path fill-rule="evenodd" clip-rule="evenodd" d="M608 662.049V660.279C608 659.726 607.684 659.197 607.173 658.892V663.436C607.684 663.131 608 662.602 608 662.049ZM607.173 664.534C606.862 664.645 606.525 664.705 606.173 664.705V657.623C606.525 657.623 606.862 657.683 607.173 657.794C608.241 658.173 609 659.143 609 660.279V662.049C609 663.185 608.241 664.155 607.173 664.534ZM591.981 670.459V650.541C591.981 649.196 590.801 648 589.211 648C587.622 648 586.442 649.196 586.442 650.541V670.459C586.442 671.804 587.622 673 589.211 673C590.801 673 591.981 671.804 591.981 670.459ZM602.346 669.131V653.197C602.346 651.851 601.166 650.656 599.577 650.656C597.988 650.656 596.808 651.851 596.808 653.197V669.131C596.808 670.477 597.988 671.672 599.577 671.672C601.166 671.672 602.346 670.477 602.346 669.131ZM512 660.279V662.049C512 662.602 512.316 663.131 512.827 663.436V658.892C512.316 659.197 512 659.726 512 660.279ZM512.827 657.794C511.759 658.173 511 659.143 511 660.279V662.049C511 663.185 511.759 664.155 512.827 664.534C513.138 664.645 513.475 664.705 513.827 664.705V657.623C513.475 657.623 513.138 657.683 512.827 657.794ZM528.019 650.541V670.459C528.019 671.804 529.199 673 530.789 673C532.378 673 533.558 671.804 533.558 670.459V650.541C533.558 649.196 532.378 648 530.789 648C529.199 648 528.019 649.196 528.019 650.541ZM517.654 653.197V669.131C517.654 670.477 518.834 671.672 520.423 671.672C522.012 671.672 523.192 670.477 523.192 669.131V653.197C523.192 651.851 522.012 650.656 520.423 650.656C518.834 650.656 517.654 651.851 517.654 653.197ZM582.615 657.746V664.769L537.385 664.769V657.746L582.615 657.746ZM538.385 658.746V663.769L581.615 663.769V658.746L538.385 658.746ZM592.981 670.459V650.541C592.981 648.585 591.293 647 589.211 647C587.13 647 585.442 648.585 585.442 650.541V670.459C585.442 672.415 587.13 674 589.211 674C591.293 674 592.981 672.415 592.981 670.459ZM603.346 653.197V669.131C603.346 671.087 601.659 672.672 599.577 672.672C597.495 672.672 595.808 671.087 595.808 669.131V653.197C595.808 651.241 597.495 649.656 599.577 649.656C601.659 649.656 603.346 651.241 603.346 653.197ZM527.019 650.541V670.459C527.019 672.415 528.707 674 530.789 674C532.87 674 534.558 672.415 534.558 670.459V650.541C534.558 648.585 532.87 647 530.789 647C528.707 647 527.019 648.585 527.019 650.541ZM516.654 669.131V653.197C516.654 651.241 518.341 649.656 520.423 649.656C522.505 649.656 524.192 651.241 524.192 653.197V669.131C524.192 671.087 522.505 672.672 520.423 672.672C518.341 672.672 516.654 671.087 516.654 669.131Z" fill="black"/>
</g>
</g>
<g id="Regular-S">
<g id="Vector_14" filter="url(#filter2_d_12_383)">
<path d="M1519 662.054C1519 664.119 1517.22 665.794 1515.02 665.794V655.821C1517.22 655.821 1519 657.495 1519 659.561V662.054Z" fill="black"/>
<path d="M1496.44 673.896V645.849C1496.44 643.095 1494.07 640.862 1491.13 640.862C1488.2 640.862 1485.83 643.095 1485.83 645.849V673.896C1485.83 676.65 1488.2 678.883 1491.13 678.883C1494.07 678.883 1496.44 676.65 1496.44 673.896Z" fill="black"/>
<path d="M1511.04 672.027V649.588C1511.04 646.834 1508.66 644.602 1505.73 644.602C1502.8 644.602 1500.42 646.834 1500.42 649.588V672.026C1500.42 674.78 1502.8 677.013 1505.73 677.013C1508.66 677.013 1511.04 674.78 1511.04 672.027Z" fill="black"/>
<path d="M1381 662.054C1381 664.119 1382.78 665.794 1384.98 665.794V655.821C1382.78 655.821 1381 657.495 1381 659.561V662.054Z" fill="black"/>
<path d="M1403.56 673.896V645.849C1403.56 643.095 1405.93 640.862 1408.87 640.862C1411.8 640.862 1414.17 643.095 1414.17 645.849V673.896C1414.17 676.65 1411.8 678.883 1408.87 678.883C1405.93 678.883 1403.56 676.65 1403.56 673.896Z" fill="black"/>
<path d="M1388.96 672.027V649.588C1388.96 646.834 1391.34 644.602 1394.27 644.602C1397.2 644.602 1399.58 646.834 1399.58 649.588V672.027C1399.58 674.78 1397.2 677.013 1394.27 677.013C1391.34 677.013 1388.96 674.78 1388.96 672.027Z" fill="black"/>
<path d="M1481.85 655.994V665.884L1418.15 665.884V655.994L1481.85 655.994Z" fill="black"/>
</g>
<g id="Vector (Stroke)_2" filter="url(#filter3_d_12_383)">
<path fill-rule="evenodd" clip-rule="evenodd" d="M1517.59 662.054V659.561C1517.59 658.782 1517.15 658.038 1516.43 657.607V664.007C1517.15 663.577 1517.59 662.832 1517.59 662.054ZM1516.43 665.553C1515.99 665.709 1515.52 665.794 1515.02 665.794V655.821C1515.52 655.821 1515.99 655.906 1516.43 656.062C1517.93 656.596 1519 657.961 1519 659.561V662.054C1519 663.654 1517.93 665.019 1516.43 665.553ZM1495.03 673.896V645.849C1495.03 643.954 1493.37 642.27 1491.13 642.27C1488.9 642.27 1487.23 643.954 1487.23 645.849V673.896C1487.23 675.791 1488.9 677.474 1491.13 677.474C1493.37 677.474 1495.03 675.791 1495.03 673.896ZM1509.63 672.027V649.588C1509.63 647.694 1507.97 646.01 1505.73 646.01C1503.49 646.01 1501.83 647.694 1501.83 649.588V672.026C1501.83 673.921 1503.49 675.605 1505.73 675.605C1507.97 675.605 1509.63 673.921 1509.63 672.027ZM1382.41 659.561V662.054C1382.41 662.832 1382.85 663.577 1383.57 664.007V657.607C1382.85 658.038 1382.41 658.782 1382.41 659.561ZM1383.57 656.062C1382.07 656.596 1381 657.961 1381 659.561V662.054C1381 663.654 1382.07 665.019 1383.57 665.553C1384.01 665.709 1384.48 665.794 1384.98 665.794V655.821C1384.48 655.821 1384.01 655.906 1383.57 656.062ZM1404.97 645.849V673.896C1404.97 675.791 1406.63 677.474 1408.87 677.474C1411.1 677.474 1412.77 675.791 1412.77 673.896V645.849C1412.77 643.954 1411.1 642.27 1408.87 642.27C1406.63 642.27 1404.97 643.954 1404.97 645.849ZM1390.37 649.588V672.027C1390.37 673.921 1392.03 675.605 1394.27 675.605C1396.51 675.605 1398.17 673.921 1398.17 672.027V649.588C1398.17 647.694 1396.51 646.01 1394.27 646.01C1392.03 646.01 1390.37 647.694 1390.37 649.588ZM1481.85 655.994V665.884L1418.15 665.884V655.994L1481.85 655.994ZM1419.56 657.402V664.476L1480.44 664.476V657.402L1419.56 657.402ZM1496.44 673.896V645.849C1496.44 643.095 1494.07 640.862 1491.13 640.862C1488.2 640.862 1485.83 643.095 1485.83 645.849V673.896C1485.83 676.65 1488.2 678.883 1491.13 678.883C1494.07 678.883 1496.44 676.65 1496.44 673.896ZM1511.04 649.588V672.027C1511.04 674.78 1508.66 677.013 1505.73 677.013C1502.8 677.013 1500.42 674.78 1500.42 672.026V649.588C1500.42 646.834 1502.8 644.602 1505.73 644.602C1508.66 644.602 1511.04 646.834 1511.04 649.588ZM1403.56 645.849V673.896C1403.56 676.65 1405.93 678.883 1408.87 678.883C1411.8 678.883 1414.17 676.65 1414.17 673.896V645.849C1414.17 643.095 1411.8 640.862 1408.87 640.862C1405.93 640.862 1403.56 643.095 1403.56 645.849ZM1388.96 672.027V649.588C1388.96 646.834 1391.34 644.602 1394.27 644.602C1397.2 644.602 1399.58 646.834 1399.58 649.588V672.027C1399.58 674.78 1397.2 677.013 1394.27 677.013C1391.34 677.013 1388.96 674.78 1388.96 672.027Z" fill="black"/>
</g>
</g>
<g id="Black-S">
<g id="Vector_15" filter="url(#filter4_d_12_383)">
<path d="M3018.59 663.197C3018.59 665.75 3016.39 667.82 3013.67 667.82V655.492C3016.39 655.492 3018.59 657.562 3018.59 660.115V663.197Z" fill="black"/>
<path d="M2990.71 677.836V643.164C2990.71 639.76 2987.77 637 2984.15 637C2980.52 637 2977.58 639.76 2977.58 643.164V677.836C2977.58 681.24 2980.52 684 2984.15 684C2987.77 684 2990.71 681.24 2990.71 677.836Z" fill="black"/>
<path d="M3008.75 675.525V647.787C3008.75 644.383 3005.81 641.623 3002.19 641.623C2998.57 641.623 2995.63 644.383 2995.63 647.787V675.525C2995.63 678.929 2998.57 681.689 3002.19 681.689C3005.81 681.689 3008.75 678.929 3008.75 675.525Z" fill="black"/>
<path d="M2848 663.197C2848 665.75 2850.2 667.82 2852.92 667.82V655.492C2850.2 655.492 2848 657.562 2848 660.115V663.197Z" fill="black"/>
<path d="M2875.89 677.836V643.164C2875.89 639.76 2878.82 637 2882.45 637C2886.07 637 2889.01 639.76 2889.01 643.164V677.836C2889.01 681.24 2886.07 684 2882.45 684C2878.82 684 2875.89 681.24 2875.89 677.836Z" fill="black"/>
<path d="M2857.84 675.525V647.787C2857.84 644.383 2860.78 641.623 2864.4 641.623C2868.03 641.623 2870.96 644.383 2870.96 647.787V675.525C2870.96 678.929 2868.03 681.689 2864.4 681.689C2860.78 681.689 2857.84 678.929 2857.84 675.525Z" fill="black"/>
<path d="M2972.66 655.706V667.931L2893.93 667.931V655.706L2972.66 655.706Z" fill="black"/>
</g>
<g id="Vector (Stroke)_3" filter="url(#filter5_d_12_383)">
<path fill-rule="evenodd" clip-rule="evenodd" d="M3016.85 663.197V660.115C3016.85 659.153 3016.3 658.232 3015.41 657.7V665.612C3016.3 665.079 3016.85 664.159 3016.85 663.197ZM3015.41 667.522C3014.87 667.714 3014.28 667.82 3013.67 667.82V655.492C3014.28 655.492 3014.87 655.597 3015.41 655.789C3017.27 656.45 3018.59 658.137 3018.59 660.115V663.197C3018.59 665.174 3017.27 666.862 3015.41 667.522ZM2988.97 677.836V643.164C2988.97 640.822 2986.91 638.741 2984.15 638.741C2981.38 638.741 2979.33 640.822 2979.33 643.164V677.836C2979.33 680.178 2981.38 682.259 2984.15 682.259C2986.91 682.259 2988.97 680.178 2988.97 677.836ZM3007.01 675.525V647.787C3007.01 645.445 3004.96 643.364 3002.19 643.364C2999.42 643.364 2997.37 645.445 2997.37 647.787V675.525C2997.37 677.867 2999.42 679.948 3002.19 679.948C3004.96 679.948 3007.01 677.867 3007.01 675.525ZM2849.74 660.115V663.197C2849.74 664.159 2850.29 665.08 2851.18 665.612V657.7C2850.29 658.232 2849.74 659.153 2849.74 660.115ZM2851.18 655.789C2849.32 656.45 2848 658.137 2848 660.115V663.197C2848 665.174 2849.32 666.862 2851.18 667.522C2851.72 667.714 2852.31 667.82 2852.92 667.82V655.492C2852.31 655.492 2851.72 655.597 2851.18 655.789ZM2877.63 643.164V677.836C2877.63 680.178 2879.68 682.259 2882.45 682.259C2885.21 682.259 2887.27 680.178 2887.27 677.836V643.164C2887.27 640.822 2885.21 638.741 2882.45 638.741C2879.68 638.741 2877.63 640.822 2877.63 643.164ZM2859.58 647.787V675.525C2859.58 677.867 2861.64 679.948 2864.4 679.948C2867.17 679.948 2869.22 677.867 2869.22 675.525V647.787C2869.22 645.445 2867.17 643.364 2864.4 643.364C2861.64 643.364 2859.58 645.445 2859.58 647.787ZM2972.66 655.706V667.931L2893.93 667.931V655.706L2972.66 655.706ZM2895.67 657.446V666.19L2970.92 666.19V657.446L2895.67 657.446ZM2990.71 677.836V643.164C2990.71 639.76 2987.77 637 2984.15 637C2980.52 637 2977.58 639.76 2977.58 643.164V677.836C2977.58 681.24 2980.52 684 2984.15 684C2987.77 684 2990.71 681.24 2990.71 677.836ZM3008.75 647.787V675.525C3008.75 678.929 3005.81 681.689 3002.19 681.689C2998.57 681.689 2995.63 678.929 2995.63 675.525V647.787C2995.63 644.383 2998.57 641.623 3002.19 641.623C3005.81 641.623 3008.75 644.383 3008.75 647.787ZM2875.89 643.164V677.836C2875.89 681.24 2878.82 684 2882.45 684C2886.07 684 2889.01 681.24 2889.01 677.836V643.164C2889.01 639.76 2886.07 637 2882.45 637C2878.82 637 2875.89 639.76 2875.89 643.164ZM2857.84 675.525V647.787C2857.84 644.383 2860.78 641.623 2864.4 641.623C2868.03 641.623 2870.96 644.383 2870.96 647.787V675.525C2870.96 678.929 2868.03 681.689 2864.4 681.689C2860.78 681.689 2857.84 678.929 2857.84 675.525Z" fill="black"/>
</g>
</g>
</g>
<defs>
<filter id="filter0_d_12_383" x="507" y="647" width="106" height="35" filterUnits="userSpaceOnUse" color-interpolation-filters="sRGB">
<feFlood flood-opacity="0" result="BackgroundImageFix"/>
<feColorMatrix in="SourceAlpha" type="matrix" values="0 0 0 0 0 0 0 0 0 0 0 0 0 0 0 0 0 0 127 0" result="hardAlpha"/>
<feOffset dy="4"/>
<feGaussianBlur stdDeviation="2"/>
<feComposite in2="hardAlpha" operator="out"/>
<feColorMatrix type="matrix" values="0 0 0 0 0 0 0 0 0 0 0 0 0 0 0 0 0 0 0.25 0"/>
<feBlend mode="normal" in2="BackgroundImageFix" result="effect1_dropShadow_12_383"/>
<feBlend mode="normal" in="SourceGraphic" in2="effect1_dropShadow_12_383" result="shape"/>
</filter>
<filter id="filter1_d_12_383" x="507" y="647" width="106" height="35" filterUnits="userSpaceOnUse" color-interpolation-filters="sRGB">
<feFlood flood-opacity="0" result="BackgroundImageFix"/>
<feColorMatrix in="SourceAlpha" type="matrix" values="0 0 0 0 0 0 0 0 0 0 0 0 0 0 0 0 0 0 127 0" result="hardAlpha"/>
<feOffset dy="4"/>
<feGaussianBlur stdDeviation="2"/>
<feComposite in2="hardAlpha" operator="out"/>
<feColorMatrix type="matrix" values="0 0 0 0 0 0 0 0 0 0 0 0 0 0 0 0 0 0 0.25 0"/>
<feBlend mode="normal" in2="BackgroundImageFix" result="effect1_dropShadow_12_383"/>
<feBlend mode="normal" in="SourceGraphic" in2="effect1_dropShadow_12_383" result="shape"/>
</filter>
<filter id="filter2_d_12_383" x="1375.37" y="640.862" width="149.265" height="49.2857" filterUnits="userSpaceOnUse" color-interpolation-filters="sRGB">
<feFlood flood-opacity="0" result="BackgroundImageFix"/>
<feColorMatrix in="SourceAlpha" type="matrix" values="0 0 0 0 0 0 0 0 0 0 0 0 0 0 0 0 0 0 127 0" result="hardAlpha"/>
<feOffset dy="5.63265"/>
<feGaussianBlur stdDeviation="2.81633"/>
<feComposite in2="hardAlpha" operator="out"/>
<feColorMatrix type="matrix" values="0 0 0 0 0 0 0 0 0 0 0 0 0 0 0 0 0 0 0.25 0"/>
<feBlend mode="normal" in2="BackgroundImageFix" result="effect1_dropShadow_12_383"/>
<feBlend mode="normal" in="SourceGraphic" in2="effect1_dropShadow_12_383" result="shape"/>
</filter>
<filter id="filter3_d_12_383" x="1375.37" y="640.862" width="149.265" height="49.2857" filterUnits="userSpaceOnUse" color-interpolation-filters="sRGB">
<feFlood flood-opacity="0" result="BackgroundImageFix"/>
<feColorMatrix in="SourceAlpha" type="matrix" values="0 0 0 0 0 0 0 0 0 0 0 0 0 0 0 0 0 0 127 0" result="hardAlpha"/>
<feOffset dy="5.63265"/>
<feGaussianBlur stdDeviation="2.81633"/>
<feComposite in2="hardAlpha" operator="out"/>
<feColorMatrix type="matrix" values="0 0 0 0 0 0 0 0 0 0 0 0 0 0 0 0 0 0 0.25 0"/>
<feBlend mode="normal" in2="BackgroundImageFix" result="effect1_dropShadow_12_383"/>
<feBlend mode="normal" in="SourceGraphic" in2="effect1_dropShadow_12_383" result="shape"/>
</filter>
<filter id="filter4_d_12_383" x="2841.04" y="637" width="184.519" height="60.9259" filterUnits="userSpaceOnUse" color-interpolation-filters="sRGB">
<feFlood flood-opacity="0" result="BackgroundImageFix"/>
<feColorMatrix in="SourceAlpha" type="matrix" values="0 0 0 0 0 0 0 0 0 0 0 0 0 0 0 0 0 0 127 0" result="hardAlpha"/>
<feOffset dy="6.96296"/>
<feGaussianBlur stdDeviation="3.48148"/>
<feComposite in2="hardAlpha" operator="out"/>
<feColorMatrix type="matrix" values="0 0 0 0 0 0 0 0 0 0 0 0 0 0 0 0 0 0 0.25 0"/>
<feBlend mode="normal" in2="BackgroundImageFix" result="effect1_dropShadow_12_383"/>
<feBlend mode="normal" in="SourceGraphic" in2="effect1_dropShadow_12_383" result="shape"/>
</filter>
<filter id="filter5_d_12_383" x="2841.04" y="637" width="184.519" height="60.9259" filterUnits="userSpaceOnUse" color-interpolation-filters="sRGB">
<feFlood flood-opacity="0" result="BackgroundImageFix"/>
<feColorMatrix in="SourceAlpha" type="matrix" values="0 0 0 0 0 0 0 0 0 0 0 0 0 0 0 0 0 0 127 0" result="hardAlpha"/>
<feOffset dy="6.96296"/>
<feGaussianBlur stdDeviation="3.48148"/>
<feComposite in2="hardAlpha" operator="out"/>
<feColorMatrix type="matrix" values="0 0 0 0 0 0 0 0 0 0 0 0 0 0 0 0 0 0 0.25 0"/>
<feBlend mode="normal" in2="BackgroundImageFix" result="effect1_dropShadow_12_383"/>
<feBlend mode="normal" in="SourceGraphic" in2="effect1_dropShadow_12_383" result="shape"/>
</filter>
<clipPath id="clip0_12_383">
<rect width="3300" height="2200" fill="white"/>
</clipPath>
</defs>
</svg>
