<svg width="3300" height="2200" viewBox="0 0 3300 2200" fill="none" xmlns="http://www.w3.org/2000/svg">
<g id="ez-bar" clip-path="url(#clip0_13_847)">
<g id="Notes">
<path id="artboard" d="M3302 0H2V2200H3302V0Z" fill="white"/>
<path id="Vector" d="M265 292H3038" stroke="black" stroke-width="0.5"/>
<text id="Weight/Scale Variations" fill="black" xml:space="preserve" style="white-space: pre" font-family="Inter" font-size="13" font-weight="bold" letter-spacing="0em"><tspan x="265" y="321.727">Weight/Scale Variations</tspan></text>
<text id="Ultralight" fill="black" xml:space="preserve" style="white-space: pre" font-family="Inter" font-size="13" letter-spacing="0em"><tspan x="533.661" y="321.727">Ultralight</tspan></text>
<text id="Thin" fill="black" xml:space="preserve" style="white-space: pre" font-family="Inter" font-size="13" letter-spacing="0em"><tspan x="845.066" y="321.727">Thin</tspan></text>
<text id="Light" fill="black" xml:space="preserve" style="white-space: pre" font-family="Inter" font-size="13" letter-spacing="0em"><tspan x="1139.77" y="321.727">Light</tspan></text>
<text id="Regular" fill="black" xml:space="preserve" style="white-space: pre" font-family="Inter" font-size="13" letter-spacing="0em"><tspan x="1428.58" y="321.727">Regular</tspan></text>
<text id="Medium" fill="black" xml:space="preserve" style="white-space: pre" font-family="Inter" font-size="13" letter-spacing="0em"><tspan x="1723.99" y="321.727">Medium</tspan></text>
<text id="Semibold" fill="black" xml:space="preserve" style="white-space: pre" font-family="Inter" font-size="13" letter-spacing="0em"><tspan x="2016.65" y="321.727">Semibold</tspan></text>
<text id="Bold" fill="black" xml:space="preserve" style="white-space: pre" font-family="Inter" font-size="13" letter-spacing="0em"><tspan x="2328.29" y="321.727">Bold</tspan></text>
<text id="Heavy" fill="black" xml:space="preserve" style="white-space: pre" font-family="Inter" font-size="13" letter-spacing="0em"><tspan x="2619.32" y="321.727">Heavy</tspan></text>
<text id="Black" fill="black" xml:space="preserve" style="white-space: pre" font-family="Inter" font-size="13" letter-spacing="0em"><tspan x="2918.8" y="321.727">Black</tspan></text>
<path id="Vector_2" d="M265 1903H3038" stroke="black" stroke-width="0.5"/>
<g id="Group">
<path id="Vector_3" d="M274.248 1933.83C278.604 1933.83 282.139 1930.3 282.139 1925.95C282.139 1921.59 278.604 1918.07 274.248 1918.07C269.902 1918.07 266.367 1921.59 266.367 1925.95C266.367 1930.3 269.902 1933.83 274.248 1933.83ZM274.248 1932.35C270.713 1932.35 267.861 1929.48 267.861 1925.95C267.861 1922.41 270.713 1919.55 274.248 1919.55C277.783 1919.55 280.645 1922.41 280.645 1925.95C280.645 1929.48 277.783 1932.35 274.248 1932.35ZM270.654 1925.95C270.654 1926.38 270.957 1926.67 271.406 1926.67H273.506V1928.79C273.506 1929.23 273.799 1929.53 274.228 1929.53C274.678 1929.53 274.971 1929.23 274.971 1928.79V1926.67H277.09C277.529 1926.67 277.832 1926.38 277.832 1925.95C277.832 1925.51 277.529 1925.21 277.09 1925.21H274.971V1923.1C274.971 1922.65 274.678 1922.35 274.228 1922.35C273.799 1922.35 273.506 1922.65 273.506 1923.1V1925.21H271.406C270.957 1925.21 270.654 1925.51 270.654 1925.95Z" fill="black"/>
</g>
<g id="Group_2">
<path id="Vector_4" d="M295.215 1935.91C300.713 1935.91 305.176 1931.45 305.176 1925.95C305.176 1920.45 300.713 1915.99 295.215 1915.99C289.717 1915.99 285.254 1920.45 285.254 1925.95C285.254 1931.45 289.717 1935.91 295.215 1935.91ZM295.215 1934.25C290.625 1934.25 286.914 1930.54 286.914 1925.95C286.914 1921.36 290.625 1917.65 295.215 1917.65C299.805 1917.65 303.516 1921.36 303.516 1925.95C303.516 1930.54 299.805 1934.25 295.215 1934.25ZM290.684 1925.95C290.684 1926.43 291.016 1926.75 291.514 1926.75H294.385V1929.63C294.385 1930.12 294.717 1930.46 295.195 1930.46C295.684 1930.46 296.025 1930.13 296.025 1929.63V1926.75H298.906C299.395 1926.75 299.736 1926.43 299.736 1925.95C299.736 1925.46 299.395 1925.12 298.906 1925.12H296.025V1922.25C296.025 1921.75 295.684 1921.41 295.195 1921.41C294.717 1921.41 294.385 1921.75 294.385 1922.25V1925.12H291.514C291.016 1925.12 290.684 1925.46 290.684 1925.95Z" fill="black"/>
</g>
<g id="Group_3">
<path id="Vector_5" d="M321.895 1938.66C328.916 1938.66 334.619 1932.97 334.619 1925.95C334.619 1918.93 328.916 1913.22 321.895 1913.22C314.873 1913.22 309.18 1918.93 309.18 1925.95C309.18 1932.97 314.873 1938.66 321.895 1938.66ZM321.895 1936.85C315.869 1936.85 310.996 1931.97 310.996 1925.95C310.996 1919.92 315.869 1915.05 321.895 1915.05C327.92 1915.05 332.793 1919.92 332.793 1925.95C332.793 1931.97 327.92 1936.85 321.895 1936.85ZM316.123 1925.95C316.123 1926.47 316.494 1926.83 317.041 1926.83H320.987V1930.78C320.987 1931.32 321.358 1931.7 321.875 1931.7C322.412 1931.7 322.783 1931.33 322.783 1930.78V1926.83H326.739C327.276 1926.83 327.657 1926.47 327.657 1925.95C327.657 1925.4 327.285 1925.03 326.739 1925.03H322.783V1921.09C322.783 1920.54 322.412 1920.16 321.875 1920.16C321.358 1920.16 320.987 1920.54 320.987 1921.09V1925.03H317.041C316.494 1925.03 316.123 1925.4 316.123 1925.95Z" fill="black"/>
</g>
<text id="Design Variations" fill="black" xml:space="preserve" style="white-space: pre" font-family="Inter" font-size="13" font-weight="bold" letter-spacing="0em"><tspan x="265" y="1952.73">Design Variations</tspan></text>
<text id="Symbols are supported in up to nine weights and three scales." fill="black" xml:space="preserve" style="white-space: pre" font-family="Inter" font-size="13" letter-spacing="0em"><tspan x="265" y="1970.73">Symbols are supported in up to nine weights and three scales.</tspan></text>
<text id="For optimal layout with text and other symbols, vertically align" fill="black" xml:space="preserve" style="white-space: pre" font-family="Inter" font-size="13" letter-spacing="0em"><tspan x="265" y="1988.73">For optimal layout with text and other symbols, vertically align</tspan></text>
<text id="symbols with the adjacent text." fill="black" xml:space="preserve" style="white-space: pre" font-family="Inter" font-size="13" letter-spacing="0em"><tspan x="265" y="2006.73">symbols with the adjacent text.</tspan></text>
<path id="Vector_6" d="M778 1919V1933" stroke="#00AEEF" stroke-width="0.5"/>
<g id="Group_4">
<path id="Vector_7" d="M781.311 1933.16C781.828 1933.16 782.082 1932.96 782.268 1932.41L783.527 1928.97H789.289L790.549 1932.41C790.734 1932.96 790.988 1933.16 791.496 1933.16C792.014 1933.16 792.346 1932.84 792.346 1932.36C792.346 1932.19 792.316 1932.03 792.238 1931.83L787.658 1919.63C787.434 1919.04 787.033 1918.73 786.408 1918.73C785.803 1918.73 785.393 1919.03 785.178 1919.62L780.598 1931.84C780.52 1932.04 780.49 1932.2 780.49 1932.37C780.49 1932.85 780.803 1933.16 781.311 1933.16ZM784.006 1927.48L786.379 1920.91H786.428L788.801 1927.48H784.006Z" fill="black"/>
</g>
<path id="Vector_8" d="M794.836 1919V1933" stroke="#00AEEF" stroke-width="0.5"/>
<text id="Margins" fill="black" xml:space="preserve" style="white-space: pre" font-family="Inter" font-size="13" font-weight="bold" letter-spacing="0em"><tspan x="778" y="1952.73">Margins</tspan></text>
<text id="Leading and trailing margins on the left and right side of each symbol" fill="black" xml:space="preserve" style="white-space: pre" font-family="Inter" font-size="13" letter-spacing="0em"><tspan x="778" y="1970.73">Leading and trailing margins on the left and right side of each symbol</tspan></text>
<text id="can be adjusted by modifying the x-location of the margin guidelines." fill="black" xml:space="preserve" style="white-space: pre" font-family="Inter" font-size="13" letter-spacing="0em"><tspan x="778" y="1988.73">can be adjusted by modifying the x-location of the margin guidelines.</tspan></text>
<text id="Modifications are automatically applied proportionally to all" fill="black" xml:space="preserve" style="white-space: pre" font-family="Inter" font-size="13" letter-spacing="0em"><tspan x="778" y="2006.73">Modifications are automatically applied proportionally to all</tspan></text>
<text id="scales and weights." fill="black" xml:space="preserve" style="white-space: pre" font-family="Inter" font-size="13" letter-spacing="0em"><tspan x="778" y="2024.73">scales and weights.</tspan></text>
<g id="Group_5">
<path id="Vector_9" d="M1293.84 1934.87L1295.54 1936.57C1296.4 1937.44 1297.39 1937.38 1298.31 1936.36L1309.01 1924.57L1308.04 1923.6L1297.43 1935.28C1297.07 1935.68 1296.74 1935.77 1296.27 1935.3L1295.1 1934.14C1294.63 1933.68 1294.74 1933.34 1295.14 1932.98L1306.62 1922.18L1305.64 1921.21L1294.05 1932.1C1293.06 1933.02 1292.98 1934 1293.84 1934.87ZM1300.26 1916.67C1299.84 1917.08 1299.81 1917.66 1300.04 1918.05C1300.28 1918.41 1300.74 1918.64 1301.38 1918.48C1302.85 1918.14 1304.37 1918.08 1305.79 1919.02L1305.21 1920.47C1304.87 1921.3 1305.04 1921.89 1305.58 1922.43L1307.87 1924.75C1308.36 1925.24 1308.77 1925.26 1309.34 1925.16L1310.4 1924.96L1311.07 1925.64L1311.03 1926.19C1310.99 1926.69 1311.12 1927.07 1311.61 1927.55L1312.37 1928.29C1312.85 1928.77 1313.46 1928.8 1313.93 1928.33L1316.84 1925.41C1317.31 1924.94 1317.29 1924.35 1316.81 1923.87L1316.04 1923.11C1315.56 1922.63 1315.19 1922.47 1314.71 1922.51L1314.13 1922.56L1313.49 1921.93L1313.73 1920.8C1313.86 1920.24 1313.71 1919.8 1313.12 1919.21L1310.92 1917.02C1307.58 1913.7 1303.15 1913.78 1300.26 1916.67ZM1301.75 1917.04C1304.18 1915.27 1307.47 1915.57 1309.7 1917.79L1312.13 1920.21C1312.37 1920.44 1312.41 1920.63 1312.34 1920.97L1312.02 1922.45L1313.52 1923.94L1314.51 1923.88C1314.76 1923.87 1314.84 1923.89 1315.03 1924.08L1315.61 1924.66L1313.17 1927.1L1312.59 1926.53C1312.4 1926.33 1312.37 1926.25 1312.38 1925.99L1312.45 1925.01L1310.95 1923.53L1309.43 1923.78C1309.11 1923.85 1308.96 1923.82 1308.71 1923.59L1306.71 1921.58C1306.46 1921.35 1306.43 1921.18 1306.59 1920.81L1307.46 1918.72C1305.9 1917.27 1303.87 1916.64 1301.84 1917.24C1301.68 1917.28 1301.62 1917.15 1301.75 1917.04Z" fill="black"/>
</g>
<text id="Exporting" fill="black" xml:space="preserve" style="white-space: pre" font-family="Inter" font-size="13" font-weight="bold" letter-spacing="0em"><tspan x="1291" y="1952.73">Exporting</tspan></text>
<text id="Symbols should be outlined when exporting to ensure the" fill="black" xml:space="preserve" style="white-space: pre" font-family="Inter" font-size="13" letter-spacing="0em"><tspan x="1291" y="1970.73">Symbols should be outlined when exporting to ensure the</tspan></text>
<text id="design is preserved when submitting to Xcode." fill="black" xml:space="preserve" style="white-space: pre" font-family="Inter" font-size="13" letter-spacing="0em"><tspan x="1291" y="1988.73">design is preserved when submitting to Xcode.</tspan></text>
<text id="template-version" fill="black" xml:space="preserve" style="white-space: pre" font-family="Inter" font-size="13" letter-spacing="0em"><tspan x="2948.51" y="1932.73">Template v.5.0</tspan></text>
<text id="Requires Xcode 15 or greater" fill="black" xml:space="preserve" style="white-space: pre" font-family="Inter" font-size="13" letter-spacing="0em"><tspan x="2860.37" y="1950.73">Requires Xcode 15 or greater</tspan></text>
<text id="descriptive-name" fill="black" xml:space="preserve" style="white-space: pre" font-family="Inter" font-size="13" letter-spacing="0em"><tspan x="2814.26" y="1968.73">Generated from custom.dumbbell.fill</tspan></text>
<text id="Typeset at 100.0 points" fill="black" xml:space="preserve" style="white-space: pre" font-family="Inter" font-size="13" letter-spacing="0em"><tspan x="2894.56" y="1986.73">Typeset at 100.0 points</tspan></text>
<text id="Small" fill="black" xml:space="preserve" style="white-space: pre" font-family="Inter" font-size="13" letter-spacing="0em"><tspan x="265" y="725.727">Small</tspan></text>
<text id="Medium_2" fill="black" xml:space="preserve" style="white-space: pre" font-family="Inter" font-size="13" letter-spacing="0em"><tspan x="265" y="1155.73">Medium</tspan></text>
<text id="Large" fill="black" xml:space="preserve" style="white-space: pre" font-family="Inter" font-size="13" letter-spacing="0em"><tspan x="265" y="1585.73">Large</tspan></text>
</g>
<g id="Guides">
<g id="H-reference">
<path id="Vector_10" d="M339.994 696H342.638L368.328 628.868H369.03V625.541H367.123L339.994 696ZM350.688 671.52H385.981L385.231 669.272H351.438L350.688 671.52ZM394.12 696H396.764L369.638 625.541H368.433V628.868L394.12 696Z" fill="#27AAE1"/>
</g>
<path id="Baseline-S" d="M263 696H3036" stroke="#27AAE1" stroke-width="0.5"/>
<path id="Capline-S" d="M263 625.541H3036" stroke="#27AAE1" stroke-width="0.5"/>
<g id="H-reference_2">
<path id="Vector_11" d="M339.994 1126H342.638L368.328 1058.87H369.03V1055.54H367.123L339.994 1126ZM350.688 1101.52H385.981L385.231 1099.27H351.438L350.688 1101.52ZM394.12 1126H396.764L369.638 1055.54H368.433V1058.87L394.12 1126Z" fill="#27AAE1"/>
</g>
<path id="Baseline-M" d="M263 1126H3036" stroke="#27AAE1" stroke-width="0.5"/>
<path id="Capline-M" d="M263 1055.54H3036" stroke="#27AAE1" stroke-width="0.5"/>
<g id="H-reference_3">
<path id="Vector_12" d="M339.994 1556H342.638L368.328 1488.87H369.03V1485.54H367.123L339.994 1556ZM350.688 1531.52H385.981L385.231 1529.27H351.438L350.688 1531.52ZM394.12 1556H396.764L369.638 1485.54H368.433V1488.87L394.12 1556Z" fill="#27AAE1"/>
</g>
<path id="Baseline-L" d="M263 1556H3036" stroke="#27AAE1" stroke-width="0.5"/>
<path id="Capline-L" d="M263 1485.54H3036" stroke="#27AAE1" stroke-width="0.5"/>
<path id="right-margin-Black-S" d="M3005.01 600.785V720.121" stroke="#00AEEF" stroke-width="0.5"/>
<path id="left-margin-Black-S" d="M2861.79 600.785V720.121" stroke="#00AEEF" stroke-width="0.5"/>
<path id="right-margin-Regular-S" d="M1510.05 600.785V720.121" stroke="#00AEEF" stroke-width="0.5"/>
<path id="left-margin-Regular-S" d="M1389.64 600.785V720.121" stroke="#00AEEF" stroke-width="0.5"/>
<path id="right-margin-Ultralight-S" d="M608.655 600.785V720.121" stroke="#00AEEF" stroke-width="0.5"/>
<path id="left-margin-Ultralight-S" d="M510.768 600.785V720.121" stroke="#00AEEF" stroke-width="0.5"/>
</g>
<g id="Ultralight-S">
<g id="Vector_13" filter="url(#filter0_d_13_847)">
<path d="M609 662.049C609 663.516 607.734 664.705 606.173 664.705V657.623C607.734 657.623 609 658.812 609 660.279V662.049Z" fill="black"/>
<path d="M592.981 670.459V650.541C592.981 648.585 591.293 647 589.211 647C587.13 647 585.442 648.585 585.442 650.541V670.459C585.442 672.415 587.13 674 589.211 674C591.293 674 592.981 672.415 592.981 670.459Z" fill="black"/>
<path d="M603.346 669.131V653.197C603.346 651.241 601.659 649.656 599.577 649.656C597.495 649.656 595.808 651.241 595.808 653.197V669.131C595.808 671.087 597.495 672.672 599.577 672.672C601.659 672.672 603.346 671.087 603.346 669.131Z" fill="black"/>
<path d="M511 662.049C511 663.516 512.266 664.705 513.827 664.705V657.623C512.266 657.623 511 658.812 511 660.279V662.049Z" fill="black"/>
<path d="M527.019 670.459V650.541C527.019 648.585 528.707 647 530.789 647C532.87 647 534.558 648.585 534.558 650.541V670.459C534.558 672.415 532.87 674 530.789 674C528.707 674 527.019 672.415 527.019 670.459Z" fill="black"/>
<path d="M516.654 669.131V653.197C516.654 651.241 518.341 649.656 520.423 649.656C522.505 649.656 524.192 651.241 524.192 653.197V669.131C524.192 671.087 522.505 672.672 520.423 672.672C518.341 672.672 516.654 671.087 516.654 669.131Z" fill="black"/>
<path d="M545.913 660.368L551.793 656.448C552.245 656.147 552.799 656.042 553.33 656.158L559.573 657.522C559.854 657.583 560.146 657.583 560.427 657.522L566.67 656.158C567.201 656.042 567.755 656.147 568.207 656.448L574.09 660.37C574.657 660.748 575.378 660.811 576.002 660.537L582.615 657.638V664.661L576.002 667.561C575.378 667.834 574.657 667.771 574.09 667.393L568.207 663.471C567.755 663.17 567.201 663.065 566.67 663.181L560.427 664.545C560.146 664.606 559.854 664.606 559.573 664.545L553.33 663.181C552.799 663.065 552.245 663.17 551.793 663.471L545.913 667.391C545.344 667.77 544.621 667.833 543.996 667.557L537.385 664.638V657.615L543.996 660.534C544.621 660.81 545.344 660.747 545.913 660.368Z" fill="black"/>
</g>
<g id="Vector (Stroke)" filter="url(#filter1_d_13_847)">
<path fill-rule="evenodd" clip-rule="evenodd" d="M608 662.049V660.279C608 659.726 607.684 659.197 607.173 658.892V663.437C607.684 663.131 608 662.602 608 662.049ZM607.173 664.534C606.862 664.645 606.525 664.705 606.173 664.705V657.623C606.525 657.623 606.862 657.684 607.173 657.794C608.241 658.173 609 659.143 609 660.279V662.049C609 663.185 608.241 664.155 607.173 664.534ZM591.981 670.459V650.541C591.981 649.196 590.801 648 589.211 648C587.622 648 586.442 649.196 586.442 650.541V670.459C586.442 671.805 587.622 673 589.211 673C590.801 673 591.981 671.805 591.981 670.459ZM602.346 669.131V653.197C602.346 651.851 601.166 650.656 599.577 650.656C597.988 650.656 596.808 651.851 596.808 653.197V669.131C596.808 670.477 597.988 671.672 599.577 671.672C601.166 671.672 602.346 670.477 602.346 669.131ZM512 660.279V662.049C512 662.602 512.316 663.131 512.827 663.437V658.892C512.316 659.197 512 659.726 512 660.279ZM512.827 657.794C511.759 658.173 511 659.143 511 660.279V662.049C511 663.185 511.759 664.155 512.827 664.534C513.138 664.645 513.475 664.705 513.827 664.705V657.623C513.475 657.623 513.138 657.684 512.827 657.794ZM528.019 650.541V670.459C528.019 671.805 529.199 673 530.789 673C532.378 673 533.558 671.805 533.558 670.459V650.541C533.558 649.196 532.378 648 530.789 648C529.199 648 528.019 649.196 528.019 650.541ZM517.654 653.197V669.131C517.654 670.477 518.834 671.672 520.423 671.672C522.012 671.672 523.192 670.477 523.192 669.131V653.197C523.192 651.851 522.012 650.656 520.423 650.656C518.834 650.656 517.654 651.851 517.654 653.197ZM552.348 657.28L546.468 661.2C545.615 661.769 544.53 661.863 543.592 661.448L538.385 659.15V663.986L544.4 666.642C544.713 666.78 545.074 666.749 545.358 666.559L551.239 662.639C551.916 662.187 552.748 662.03 553.543 662.204L559.787 663.568C559.927 663.599 560.073 663.599 560.213 663.568L566.457 662.204C567.252 662.03 568.084 662.187 568.761 662.639L574.644 666.561C574.928 666.75 575.288 666.782 575.601 666.645L581.615 664.008V659.168L576.404 661.453C575.467 661.864 574.386 661.769 573.535 661.202L567.652 657.28C567.426 657.129 567.149 657.077 566.884 657.135L560.64 658.499C560.218 658.591 559.782 658.591 559.36 658.499L553.116 657.135C552.851 657.077 552.574 657.129 552.348 657.28ZM582.615 657.638V664.661L576.002 667.561C575.378 667.834 574.657 667.771 574.09 667.393L568.207 663.471C567.755 663.17 567.201 663.065 566.67 663.181L560.427 664.545C560.146 664.606 559.854 664.606 559.573 664.545L553.33 663.181C552.799 663.065 552.245 663.17 551.793 663.471L545.913 667.391C545.344 667.77 544.621 667.833 543.996 667.557L537.385 664.638V657.615L543.996 660.534C544.621 660.81 545.344 660.747 545.913 660.368L551.793 656.448C552.245 656.147 552.799 656.042 553.33 656.158L559.573 657.522C559.854 657.583 560.146 657.583 560.427 657.522L566.67 656.158C567.201 656.042 567.755 656.147 568.207 656.448L574.09 660.37C574.657 660.748 575.378 660.811 576.002 660.537L582.615 657.638ZM592.981 670.459V650.541C592.981 648.585 591.293 647 589.211 647C587.13 647 585.442 648.585 585.442 650.541V670.459C585.442 672.415 587.13 674 589.211 674C591.293 674 592.981 672.415 592.981 670.459ZM603.346 653.197V669.131C603.346 671.087 601.659 672.672 599.577 672.672C597.495 672.672 595.808 671.087 595.808 669.131V653.197C595.808 651.241 597.495 649.656 599.577 649.656C601.659 649.656 603.346 651.241 603.346 653.197ZM527.019 650.541V670.459C527.019 672.415 528.707 674 530.789 674C532.87 674 534.558 672.415 534.558 670.459V650.541C534.558 648.585 532.87 647 530.789 647C528.707 647 527.019 648.585 527.019 650.541ZM516.654 669.131V653.197C516.654 651.241 518.341 649.656 520.423 649.656C522.505 649.656 524.192 651.241 524.192 653.197V669.131C524.192 671.087 522.505 672.672 520.423 672.672C518.341 672.672 516.654 671.087 516.654 669.131Z" fill="black"/>
</g>
</g>
<g id="Regular-S">
<g id="Vector_14" filter="url(#filter2_d_13_847)">
<path d="M1519 662.192C1519 664.257 1517.22 665.931 1515.02 665.931V655.959C1517.22 655.959 1519 657.633 1519 659.699V662.192Z" fill="black"/>
<path d="M1496.44 674.034V645.986C1496.44 643.232 1494.07 641 1491.13 641C1488.2 641 1485.83 643.232 1485.83 645.986V674.034C1485.83 676.788 1488.2 679.02 1491.13 679.02C1494.07 679.02 1496.44 676.788 1496.44 674.034Z" fill="black"/>
<path d="M1511.04 672.164V649.726C1511.04 646.972 1508.66 644.74 1505.73 644.74C1502.8 644.74 1500.42 646.972 1500.42 649.726V672.164C1500.42 674.918 1502.8 677.151 1505.73 677.151C1508.66 677.151 1511.04 674.918 1511.04 672.164Z" fill="black"/>
<path d="M1381 662.192C1381 664.257 1382.78 665.931 1384.98 665.931V655.959C1382.78 655.959 1381 657.633 1381 659.699V662.192Z" fill="black"/>
<path d="M1403.56 674.034V645.986C1403.56 643.232 1405.93 641 1408.87 641C1411.8 641 1414.17 643.232 1414.17 645.986V674.034C1414.17 676.788 1411.8 679.02 1408.87 679.02C1405.93 679.02 1403.56 676.788 1403.56 674.034Z" fill="black"/>
<path d="M1388.96 672.164V649.726C1388.96 646.972 1391.34 644.74 1394.27 644.74C1397.2 644.74 1399.58 646.972 1399.58 649.726V672.164C1399.58 674.918 1397.2 677.151 1394.27 677.151C1391.34 677.151 1388.96 674.918 1388.96 672.164Z" fill="black"/>
<path d="M1430.16 659.824L1438.44 654.304C1439.08 653.88 1439.86 653.733 1440.61 653.896L1449.4 655.816C1449.8 655.903 1450.2 655.903 1450.6 655.816L1459.39 653.896C1460.14 653.733 1460.92 653.88 1461.56 654.304L1469.84 659.827C1470.64 660.359 1471.65 660.448 1472.53 660.063L1481.85 655.98V665.87L1472.53 669.952C1471.65 670.338 1470.64 670.249 1469.84 669.716L1461.56 664.194C1460.92 663.77 1460.14 663.622 1459.39 663.785L1450.6 665.706C1450.2 665.792 1449.8 665.792 1449.4 665.706L1440.61 663.785C1439.86 663.622 1439.08 663.77 1438.44 664.194L1430.16 669.714C1429.36 670.248 1428.34 670.336 1427.46 669.947L1418.15 665.837V655.947L1427.46 660.057C1428.34 660.446 1429.36 660.358 1430.16 659.824Z" fill="black"/>
</g>
<g id="Vector (Stroke)_2" filter="url(#filter3_d_13_847)">
<path fill-rule="evenodd" clip-rule="evenodd" d="M1517.59 662.192V659.699C1517.59 658.92 1517.15 658.175 1516.43 657.745V664.145C1517.15 663.715 1517.59 662.97 1517.59 662.192ZM1516.43 665.691C1515.99 665.846 1515.52 665.931 1515.02 665.931V655.959C1515.52 655.959 1515.99 656.044 1516.43 656.2C1517.93 656.734 1519 658.099 1519 659.699V662.192C1519 663.791 1517.93 665.156 1516.43 665.691ZM1495.03 674.034V645.986C1495.03 644.092 1493.37 642.408 1491.13 642.408C1488.9 642.408 1487.23 644.092 1487.23 645.986V674.034C1487.23 675.929 1488.9 677.612 1491.13 677.612C1493.37 677.612 1495.03 675.929 1495.03 674.034ZM1509.63 672.164V649.726C1509.63 647.831 1507.97 646.148 1505.73 646.148C1503.49 646.148 1501.83 647.831 1501.83 649.726V672.164C1501.83 674.059 1503.49 675.742 1505.73 675.742C1507.97 675.742 1509.63 674.059 1509.63 672.164ZM1382.41 659.699V662.192C1382.41 662.97 1382.85 663.715 1383.57 664.145V657.745C1382.85 658.175 1382.41 658.92 1382.41 659.699ZM1383.57 656.2C1382.07 656.734 1381 658.099 1381 659.699V662.192C1381 663.791 1382.07 665.156 1383.57 665.691C1384.01 665.846 1384.48 665.931 1384.98 665.931V655.959C1384.48 655.959 1384.01 656.044 1383.57 656.2ZM1404.97 645.986V674.034C1404.97 675.929 1406.63 677.612 1408.87 677.612C1411.1 677.612 1412.77 675.929 1412.77 674.034V645.986C1412.77 644.092 1411.1 642.408 1408.87 642.408C1406.63 642.408 1404.97 644.092 1404.97 645.986ZM1390.37 649.726V672.164C1390.37 674.059 1392.03 675.742 1394.27 675.742C1396.51 675.742 1398.17 674.059 1398.17 672.164V649.726C1398.17 647.831 1396.51 646.148 1394.27 646.148C1392.03 646.148 1390.37 647.831 1390.37 649.726ZM1439.22 655.476L1430.94 660.996C1429.74 661.797 1428.22 661.929 1426.9 661.346L1419.56 658.108V664.919L1428.03 668.659C1428.47 668.853 1428.98 668.809 1429.38 668.542L1437.66 663.022C1438.62 662.386 1439.79 662.165 1440.91 662.41L1449.7 664.33C1449.9 664.373 1450.1 664.373 1450.3 664.33L1459.09 662.41C1460.21 662.165 1461.38 662.386 1462.34 663.022L1470.62 668.545C1471.02 668.811 1471.53 668.856 1471.97 668.663L1480.44 664.949V658.135L1473.1 661.352C1471.78 661.931 1470.26 661.797 1469.06 660.998L1460.78 655.476C1460.46 655.264 1460.07 655.19 1459.69 655.272L1450.9 657.192C1450.31 657.322 1449.69 657.322 1449.1 657.192L1440.31 655.272C1439.93 655.19 1439.54 655.264 1439.22 655.476ZM1481.85 655.98V665.87L1472.53 669.952C1471.65 670.338 1470.64 670.249 1469.84 669.716L1461.56 664.194C1460.92 663.77 1460.14 663.622 1459.39 663.785L1450.6 665.706C1450.2 665.792 1449.8 665.792 1449.4 665.706L1440.61 663.785C1439.86 663.622 1439.08 663.77 1438.44 664.194L1430.16 669.714C1429.36 670.248 1428.34 670.336 1427.46 669.947L1418.15 665.837V655.947L1427.46 660.057C1428.34 660.446 1429.36 660.358 1430.16 659.824L1438.44 654.304C1439.08 653.88 1439.86 653.733 1440.61 653.896L1449.4 655.816C1449.8 655.903 1450.2 655.903 1450.6 655.816L1459.39 653.896C1460.14 653.733 1460.92 653.88 1461.56 654.304L1469.84 659.827C1470.64 660.359 1471.65 660.448 1472.53 660.063L1481.85 655.98ZM1496.44 674.034V645.986C1496.44 643.232 1494.07 641 1491.13 641C1488.2 641 1485.83 643.232 1485.83 645.986V674.034C1485.83 676.788 1488.2 679.02 1491.13 679.02C1494.07 679.02 1496.44 676.788 1496.44 674.034ZM1511.04 649.726V672.164C1511.04 674.918 1508.66 677.151 1505.73 677.151C1502.8 677.151 1500.42 674.918 1500.42 672.164V649.726C1500.42 646.972 1502.8 644.74 1505.73 644.74C1508.66 644.74 1511.04 646.972 1511.04 649.726ZM1403.56 645.986V674.034C1403.56 676.788 1405.93 679.02 1408.87 679.02C1411.8 679.02 1414.17 676.788 1414.17 674.034V645.986C1414.17 643.232 1411.8 641 1408.87 641C1405.93 641 1403.56 643.232 1403.56 645.986ZM1388.96 672.164V649.726C1388.96 646.972 1391.34 644.74 1394.27 644.74C1397.2 644.74 1399.58 646.972 1399.58 649.726V672.164C1399.58 674.918 1397.2 677.151 1394.27 677.151C1391.34 677.151 1388.96 674.918 1388.96 672.164Z" fill="black"/>
</g>
</g>
<g id="Black-S">
<g id="Vector_15" filter="url(#filter4_d_13_847)">
<path d="M3019 662.259C3019 664.819 3016.79 666.893 3014.07 666.893V654.536C3016.79 654.536 3019 656.611 3019 659.17V662.259Z" fill="black"/>
<path d="M2991.05 676.934V642.179C2991.05 638.766 2988.1 636 2984.47 636C2980.84 636 2977.89 638.766 2977.89 642.179V676.934C2977.89 680.346 2980.84 683.112 2984.47 683.112C2988.1 683.112 2991.05 680.346 2991.05 676.934Z" fill="black"/>
<path d="M3009.13 674.617V646.813C3009.13 643.4 3006.19 640.634 3002.56 640.634C2998.93 640.634 2995.98 643.4 2995.98 646.813V674.617C2995.98 678.029 2998.93 680.795 3002.56 680.795C3006.19 680.795 3009.13 678.029 3009.13 674.617Z" fill="black"/>
<path d="M2848 662.259C2848 664.819 2850.21 666.893 2852.93 666.893V654.536C2850.21 654.536 2848 656.611 2848 659.17V662.259Z" fill="black"/>
<path d="M2875.95 676.934V642.179C2875.95 638.766 2878.9 636 2882.53 636C2886.16 636 2889.11 638.766 2889.11 642.179V676.934C2889.11 680.346 2886.16 683.112 2882.53 683.112C2878.9 683.112 2875.95 680.346 2875.95 676.934Z" fill="black"/>
<path d="M2857.87 674.617V646.813C2857.87 643.4 2860.81 640.634 2864.44 640.634C2868.07 640.634 2871.02 643.4 2871.02 646.813V674.617C2871.02 678.029 2868.07 680.795 2864.44 680.795C2860.81 680.795 2857.87 678.029 2857.87 674.617Z" fill="black"/>
<path d="M2908.92 659.326L2919.18 652.485C2919.97 651.96 2920.94 651.778 2921.86 651.98L2932.76 654.359C2933.25 654.466 2933.75 654.466 2934.24 654.359L2945.14 651.98C2946.06 651.778 2947.03 651.96 2947.82 652.485L2958.08 659.329C2959.07 659.989 2960.33 660.099 2961.42 659.621L2972.96 654.562V666.817L2961.42 671.876C2960.33 672.354 2959.07 672.243 2958.08 671.583L2947.82 664.74C2947.03 664.215 2946.06 664.032 2945.14 664.234L2934.24 666.614C2933.75 666.721 2933.25 666.721 2932.76 666.614L2921.86 664.234C2920.94 664.032 2919.97 664.215 2919.18 664.74L2908.92 671.58C2907.93 672.242 2906.67 672.351 2905.57 671.869L2894.04 666.776V654.522L2905.57 659.615C2906.67 660.096 2907.93 659.987 2908.92 659.326Z" fill="black"/>
</g>
<g id="Vector (Stroke)_3" filter="url(#filter5_d_13_847)">
<path fill-rule="evenodd" clip-rule="evenodd" d="M3017.26 662.259V659.17C3017.26 658.205 3016.7 657.283 3015.81 656.749V664.68C3016.7 664.147 3017.26 663.224 3017.26 662.259ZM3015.81 666.595C3015.27 666.788 3014.68 666.893 3014.07 666.893V654.536C3014.68 654.536 3015.27 654.641 3015.81 654.834C3017.68 655.496 3019 657.188 3019 659.17V662.259C3019 664.241 3017.68 665.933 3015.81 666.595ZM2989.3 676.934V642.179C2989.3 639.831 2987.24 637.745 2984.47 637.745C2981.7 637.745 2979.64 639.831 2979.64 642.179V676.934C2979.64 679.281 2981.7 681.367 2984.47 681.367C2987.24 681.367 2989.3 679.281 2989.3 676.934ZM3007.39 674.617V646.813C3007.39 644.465 3005.33 642.379 3002.56 642.379C2999.78 642.379 2997.73 644.465 2997.73 646.813V674.617C2997.73 676.964 2999.78 679.05 3002.56 679.05C3005.33 679.05 3007.39 676.964 3007.39 674.617ZM2849.74 659.17V662.259C2849.74 663.224 2850.3 664.147 2851.19 664.68V656.749C2850.3 657.283 2849.74 658.206 2849.74 659.17ZM2851.19 654.834C2849.32 655.496 2848 657.188 2848 659.17V662.259C2848 664.241 2849.32 665.933 2851.19 666.595C2851.73 666.788 2852.32 666.893 2852.93 666.893V654.536C2852.32 654.536 2851.73 654.641 2851.19 654.834ZM2877.7 642.179V676.934C2877.7 679.281 2879.76 681.367 2882.53 681.367C2885.3 681.367 2887.36 679.281 2887.36 676.934V642.179C2887.36 639.831 2885.3 637.745 2882.53 637.745C2879.76 637.745 2877.7 639.831 2877.7 642.179ZM2859.61 646.813V674.617C2859.61 676.964 2861.67 679.05 2864.44 679.05C2867.22 679.05 2869.27 676.964 2869.27 674.617V646.813C2869.27 644.465 2867.22 642.379 2864.44 642.379C2861.67 642.379 2859.61 644.465 2859.61 646.813ZM2920.15 653.937L2909.89 660.778C2908.4 661.77 2906.51 661.933 2904.87 661.211L2895.78 657.199V665.639L2906.28 670.273C2906.82 670.514 2907.46 670.459 2907.95 670.128L2918.21 663.288C2919.39 662.5 2920.85 662.226 2922.23 662.529L2933.13 664.909C2933.37 664.963 2933.63 664.963 2933.87 664.909L2944.77 662.529C2946.15 662.226 2947.61 662.5 2948.79 663.288L2959.05 670.132C2959.55 670.462 2960.18 670.517 2960.72 670.278L2971.22 665.676V657.232L2962.12 661.219C2960.49 661.936 2958.6 661.771 2957.12 660.781L2946.85 653.937C2946.46 653.675 2945.97 653.583 2945.51 653.684L2934.62 656.064C2933.88 656.225 2933.12 656.225 2932.38 656.064L2921.49 653.684C2921.03 653.583 2920.54 653.675 2920.15 653.937ZM2972.96 654.562V666.817L2961.42 671.876C2960.33 672.354 2959.07 672.243 2958.08 671.583L2947.82 664.74C2947.03 664.215 2946.06 664.032 2945.14 664.234L2934.24 666.614C2933.75 666.721 2933.25 666.721 2932.76 666.614L2921.86 664.234C2920.94 664.032 2919.97 664.215 2919.18 664.74L2908.92 671.58C2907.93 672.242 2906.67 672.351 2905.57 671.869L2894.04 666.776V654.522L2905.57 659.615C2906.67 660.096 2907.93 659.987 2908.92 659.326L2919.18 652.485C2919.97 651.96 2920.94 651.778 2921.86 651.98L2932.76 654.359C2933.25 654.466 2933.75 654.466 2934.24 654.359L2945.14 651.98C2946.06 651.778 2947.03 651.96 2947.82 652.485L2958.08 659.329C2959.07 659.989 2960.33 660.099 2961.42 659.621L2972.96 654.562ZM2991.05 676.934V642.179C2991.05 638.766 2988.1 636 2984.47 636C2980.84 636 2977.89 638.766 2977.89 642.179V676.934C2977.89 680.346 2980.84 683.112 2984.47 683.112C2988.1 683.112 2991.05 680.346 2991.05 676.934ZM3009.13 646.813V674.617C3009.13 678.029 3006.19 680.795 3002.56 680.795C2998.93 680.795 2995.98 678.029 2995.98 674.617V646.813C2995.98 643.4 2998.93 640.634 3002.56 640.634C3006.19 640.634 3009.13 643.4 3009.13 646.813ZM2875.95 642.179V676.934C2875.95 680.346 2878.9 683.112 2882.53 683.112C2886.16 683.112 2889.11 680.346 2889.11 676.934V642.179C2889.11 638.766 2886.16 636 2882.53 636C2878.9 636 2875.95 638.766 2875.95 642.179ZM2857.87 674.617V646.813C2857.87 643.4 2860.81 640.634 2864.44 640.634C2868.07 640.634 2871.02 643.4 2871.02 646.813V674.617C2871.02 678.029 2868.07 680.795 2864.44 680.795C2860.81 680.795 2857.87 678.029 2857.87 674.617Z" fill="black"/>
</g>
</g>
</g>
<defs>
<filter id="filter0_d_13_847" x="507" y="647" width="106" height="35" filterUnits="userSpaceOnUse" color-interpolation-filters="sRGB">
<feFlood flood-opacity="0" result="BackgroundImageFix"/>
<feColorMatrix in="SourceAlpha" type="matrix" values="0 0 0 0 0 0 0 0 0 0 0 0 0 0 0 0 0 0 127 0" result="hardAlpha"/>
<feOffset dy="4"/>
<feGaussianBlur stdDeviation="2"/>
<feComposite in2="hardAlpha" operator="out"/>
<feColorMatrix type="matrix" values="0 0 0 0 0 0 0 0 0 0 0 0 0 0 0 0 0 0 0.25 0"/>
<feBlend mode="normal" in2="BackgroundImageFix" result="effect1_dropShadow_13_847"/>
<feBlend mode="normal" in="SourceGraphic" in2="effect1_dropShadow_13_847" result="shape"/>
</filter>
<filter id="filter1_d_13_847" x="507" y="647" width="106" height="35" filterUnits="userSpaceOnUse" color-interpolation-filters="sRGB">
<feFlood flood-opacity="0" result="BackgroundImageFix"/>
<feColorMatrix in="SourceAlpha" type="matrix" values="0 0 0 0 0 0 0 0 0 0 0 0 0 0 0 0 0 0 127 0" result="hardAlpha"/>
<feOffset dy="4"/>
<feGaussianBlur stdDeviation="2"/>
<feComposite in2="hardAlpha" operator="out"/>
<feColorMatrix type="matrix" values="0 0 0 0 0 0 0 0 0 0 0 0 0 0 0 0 0 0 0.25 0"/>
<feBlend mode="normal" in2="BackgroundImageFix" result="effect1_dropShadow_13_847"/>
<feBlend mode="normal" in="SourceGraphic" in2="effect1_dropShadow_13_847" result="shape"/>
</filter>
<filter id="filter2_d_13_847" x="1375.37" y="641" width="149.265" height="49.2857" filterUnits="userSpaceOnUse" color-interpolation-filters="sRGB">
<feFlood flood-opacity="0" result="BackgroundImageFix"/>
<feColorMatrix in="SourceAlpha" type="matrix" values="0 0 0 0 0 0 0 0 0 0 0 0 0 0 0 0 0 0 127 0" result="hardAlpha"/>
<feOffset dy="5.63265"/>
<feGaussianBlur stdDeviation="2.81633"/>
<feComposite in2="hardAlpha" operator="out"/>
<feColorMatrix type="matrix" values="0 0 0 0 0 0 0 0 0 0 0 0 0 0 0 0 0 0 0.25 0"/>
<feBlend mode="normal" in2="BackgroundImageFix" result="effect1_dropShadow_13_847"/>
<feBlend mode="normal" in="SourceGraphic" in2="effect1_dropShadow_13_847" result="shape"/>
</filter>
<filter id="filter3_d_13_847" x="1375.37" y="641" width="149.265" height="49.2857" filterUnits="userSpaceOnUse" color-interpolation-filters="sRGB">
<feFlood flood-opacity="0" result="BackgroundImageFix"/>
<feColorMatrix in="SourceAlpha" type="matrix" values="0 0 0 0 0 0 0 0 0 0 0 0 0 0 0 0 0 0 127 0" result="hardAlpha"/>
<feOffset dy="5.63265"/>
<feGaussianBlur stdDeviation="2.81633"/>
<feComposite in2="hardAlpha" operator="out"/>
<feColorMatrix type="matrix" values="0 0 0 0 0 0 0 0 0 0 0 0 0 0 0 0 0 0 0.25 0"/>
<feBlend mode="normal" in2="BackgroundImageFix" result="effect1_dropShadow_13_847"/>
<feBlend mode="normal" in="SourceGraphic" in2="effect1_dropShadow_13_847" result="shape"/>
</filter>
<filter id="filter4_d_13_847" x="2841.02" y="636" width="184.959" height="61.0715" filterUnits="userSpaceOnUse" color-interpolation-filters="sRGB">
<feFlood flood-opacity="0" result="BackgroundImageFix"/>
<feColorMatrix in="SourceAlpha" type="matrix" values="0 0 0 0 0 0 0 0 0 0 0 0 0 0 0 0 0 0 127 0" result="hardAlpha"/>
<feOffset dy="6.97959"/>
<feGaussianBlur stdDeviation="3.4898"/>
<feComposite in2="hardAlpha" operator="out"/>
<feColorMatrix type="matrix" values="0 0 0 0 0 0 0 0 0 0 0 0 0 0 0 0 0 0 0.25 0"/>
<feBlend mode="normal" in2="BackgroundImageFix" result="effect1_dropShadow_13_847"/>
<feBlend mode="normal" in="SourceGraphic" in2="effect1_dropShadow_13_847" result="shape"/>
</filter>
<filter id="filter5_d_13_847" x="2841.02" y="636" width="184.959" height="61.0715" filterUnits="userSpaceOnUse" color-interpolation-filters="sRGB">
<feFlood flood-opacity="0" result="BackgroundImageFix"/>
<feColorMatrix in="SourceAlpha" type="matrix" values="0 0 0 0 0 0 0 0 0 0 0 0 0 0 0 0 0 0 127 0" result="hardAlpha"/>
<feOffset dy="6.97959"/>
<feGaussianBlur stdDeviation="3.4898"/>
<feComposite in2="hardAlpha" operator="out"/>
<feColorMatrix type="matrix" values="0 0 0 0 0 0 0 0 0 0 0 0 0 0 0 0 0 0 0.25 0"/>
<feBlend mode="normal" in2="BackgroundImageFix" result="effect1_dropShadow_13_847"/>
<feBlend mode="normal" in="SourceGraphic" in2="effect1_dropShadow_13_847" result="shape"/>
</filter>
<clipPath id="clip0_13_847">
<rect width="3300" height="2200" fill="white"/>
</clipPath>
</defs>
</svg>
