<svg width="3300" height="2200" viewBox="0 0 3300 2200" fill="none" xmlns="http://www.w3.org/2000/svg">
<g id="band" clip-path="url(#clip0_15_15)">
<g id="Notes">
<path id="artboard" d="M3301 0H1V2200H3301V0Z" fill="white"/>
<path id="Vector" d="M264 292H3037" stroke="black" stroke-width="0.5"/>
<text id="Weight/Scale Variations" fill="black" xml:space="preserve" style="white-space: pre" font-family="Inter" font-size="13" font-weight="bold" letter-spacing="0em"><tspan x="264" y="321.727">Weight/Scale Variations</tspan></text>
<text id="Ultralight" fill="black" xml:space="preserve" style="white-space: pre" font-family="Inter" font-size="13" letter-spacing="0em"><tspan x="532.661" y="321.727">Ultralight</tspan></text>
<text id="Thin" fill="black" xml:space="preserve" style="white-space: pre" font-family="Inter" font-size="13" letter-spacing="0em"><tspan x="844.066" y="321.727">Thin</tspan></text>
<text id="Light" fill="black" xml:space="preserve" style="white-space: pre" font-family="Inter" font-size="13" letter-spacing="0em"><tspan x="1138.77" y="321.727">Light</tspan></text>
<text id="Regular" fill="black" xml:space="preserve" style="white-space: pre" font-family="Inter" font-size="13" letter-spacing="0em"><tspan x="1427.58" y="321.727">Regular</tspan></text>
<text id="Medium" fill="black" xml:space="preserve" style="white-space: pre" font-family="Inter" font-size="13" letter-spacing="0em"><tspan x="1722.99" y="321.727">Medium</tspan></text>
<text id="Semibold" fill="black" xml:space="preserve" style="white-space: pre" font-family="Inter" font-size="13" letter-spacing="0em"><tspan x="2015.65" y="321.727">Semibold</tspan></text>
<text id="Bold" fill="black" xml:space="preserve" style="white-space: pre" font-family="Inter" font-size="13" letter-spacing="0em"><tspan x="2327.29" y="321.727">Bold</tspan></text>
<text id="Heavy" fill="black" xml:space="preserve" style="white-space: pre" font-family="Inter" font-size="13" letter-spacing="0em"><tspan x="2618.32" y="321.727">Heavy</tspan></text>
<text id="Black" fill="black" xml:space="preserve" style="white-space: pre" font-family="Inter" font-size="13" letter-spacing="0em"><tspan x="2917.8" y="321.727">Black</tspan></text>
<path id="Vector_2" d="M264 1903H3037" stroke="black" stroke-width="0.5"/>
<g id="Group">
<path id="Vector_3" d="M273.248 1933.83C277.604 1933.83 281.139 1930.3 281.139 1925.95C281.139 1921.59 277.604 1918.07 273.248 1918.07C268.902 1918.07 265.367 1921.59 265.367 1925.95C265.367 1930.3 268.902 1933.83 273.248 1933.83ZM273.248 1932.35C269.713 1932.35 266.861 1929.48 266.861 1925.95C266.861 1922.41 269.713 1919.55 273.248 1919.55C276.783 1919.55 279.645 1922.41 279.645 1925.95C279.645 1929.48 276.783 1932.35 273.248 1932.35ZM269.654 1925.95C269.654 1926.38 269.957 1926.67 270.406 1926.67H272.506V1928.79C272.506 1929.23 272.799 1929.53 273.228 1929.53C273.678 1929.53 273.971 1929.23 273.971 1928.79V1926.67H276.09C276.529 1926.67 276.832 1926.38 276.832 1925.95C276.832 1925.51 276.529 1925.21 276.09 1925.21H273.971V1923.1C273.971 1922.65 273.678 1922.35 273.228 1922.35C272.799 1922.35 272.506 1922.65 272.506 1923.1V1925.21H270.406C269.957 1925.21 269.654 1925.51 269.654 1925.95Z" fill="black"/>
</g>
<g id="Group_2">
<path id="Vector_4" d="M294.215 1935.91C299.713 1935.91 304.176 1931.45 304.176 1925.95C304.176 1920.45 299.713 1915.99 294.215 1915.99C288.717 1915.99 284.254 1920.45 284.254 1925.95C284.254 1931.45 288.717 1935.91 294.215 1935.91ZM294.215 1934.25C289.625 1934.25 285.914 1930.54 285.914 1925.95C285.914 1921.36 289.625 1917.65 294.215 1917.65C298.805 1917.65 302.516 1921.36 302.516 1925.95C302.516 1930.54 298.805 1934.25 294.215 1934.25ZM289.684 1925.95C289.684 1926.43 290.016 1926.75 290.514 1926.75H293.385V1929.63C293.385 1930.12 293.717 1930.46 294.195 1930.46C294.684 1930.46 295.025 1930.13 295.025 1929.63V1926.75H297.906C298.395 1926.75 298.736 1926.43 298.736 1925.95C298.736 1925.46 298.395 1925.12 297.906 1925.12H295.025V1922.25C295.025 1921.75 294.684 1921.41 294.195 1921.41C293.717 1921.41 293.385 1921.75 293.385 1922.25V1925.12H290.514C290.016 1925.12 289.684 1925.46 289.684 1925.95Z" fill="black"/>
</g>
<g id="Group_3">
<path id="Vector_5" d="M320.895 1938.66C327.916 1938.66 333.619 1932.97 333.619 1925.95C333.619 1918.93 327.916 1913.22 320.895 1913.22C313.873 1913.22 308.18 1918.93 308.18 1925.95C308.18 1932.97 313.873 1938.66 320.895 1938.66ZM320.895 1936.85C314.869 1936.85 309.996 1931.97 309.996 1925.95C309.996 1919.92 314.869 1915.05 320.895 1915.05C326.92 1915.05 331.793 1919.92 331.793 1925.95C331.793 1931.97 326.92 1936.85 320.895 1936.85ZM315.123 1925.95C315.123 1926.47 315.494 1926.83 316.041 1926.83H319.986V1930.78C319.986 1931.32 320.357 1931.7 320.875 1931.7C321.412 1931.7 321.783 1931.33 321.783 1930.78V1926.83H325.738C326.275 1926.83 326.656 1926.47 326.656 1925.95C326.656 1925.4 326.285 1925.03 325.738 1925.03H321.783V1921.09C321.783 1920.54 321.412 1920.16 320.875 1920.16C320.357 1920.16 319.986 1920.54 319.986 1921.09V1925.03H316.041C315.494 1925.03 315.123 1925.4 315.123 1925.95Z" fill="black"/>
</g>
<text id="Design Variations" fill="black" xml:space="preserve" style="white-space: pre" font-family="Inter" font-size="13" font-weight="bold" letter-spacing="0em"><tspan x="264" y="1952.73">Design Variations</tspan></text>
<text id="Symbols are supported in up to nine weights and three scales." fill="black" xml:space="preserve" style="white-space: pre" font-family="Inter" font-size="13" letter-spacing="0em"><tspan x="264" y="1970.73">Symbols are supported in up to nine weights and three scales.</tspan></text>
<text id="For optimal layout with text and other symbols, vertically align" fill="black" xml:space="preserve" style="white-space: pre" font-family="Inter" font-size="13" letter-spacing="0em"><tspan x="264" y="1988.73">For optimal layout with text and other symbols, vertically align</tspan></text>
<text id="symbols with the adjacent text." fill="black" xml:space="preserve" style="white-space: pre" font-family="Inter" font-size="13" letter-spacing="0em"><tspan x="264" y="2006.73">symbols with the adjacent text.</tspan></text>
<path id="Vector_6" d="M777 1919V1933" stroke="#00AEEF" stroke-width="0.5"/>
<g id="Group_4">
<path id="Vector_7" d="M780.311 1933.16C780.828 1933.16 781.082 1932.96 781.268 1932.41L782.527 1928.97H788.289L789.549 1932.41C789.734 1932.96 789.988 1933.16 790.496 1933.16C791.014 1933.16 791.346 1932.84 791.346 1932.36C791.346 1932.19 791.316 1932.03 791.238 1931.83L786.658 1919.63C786.434 1919.04 786.033 1918.73 785.408 1918.73C784.803 1918.73 784.393 1919.03 784.178 1919.62L779.598 1931.84C779.52 1932.04 779.49 1932.2 779.49 1932.37C779.49 1932.85 779.803 1933.16 780.311 1933.16ZM783.006 1927.48L785.379 1920.91H785.428L787.801 1927.48H783.006Z" fill="black"/>
</g>
<path id="Vector_8" d="M793.836 1919V1933" stroke="#00AEEF" stroke-width="0.5"/>
<text id="Margins" fill="black" xml:space="preserve" style="white-space: pre" font-family="Inter" font-size="13" font-weight="bold" letter-spacing="0em"><tspan x="777" y="1952.73">Margins</tspan></text>
<text id="Leading and trailing margins on the left and right side of each symbol" fill="black" xml:space="preserve" style="white-space: pre" font-family="Inter" font-size="13" letter-spacing="0em"><tspan x="777" y="1970.73">Leading and trailing margins on the left and right side of each symbol</tspan></text>
<text id="can be adjusted by modifying the x-location of the margin guidelines." fill="black" xml:space="preserve" style="white-space: pre" font-family="Inter" font-size="13" letter-spacing="0em"><tspan x="777" y="1988.73">can be adjusted by modifying the x-location of the margin guidelines.</tspan></text>
<text id="Modifications are automatically applied proportionally to all" fill="black" xml:space="preserve" style="white-space: pre" font-family="Inter" font-size="13" letter-spacing="0em"><tspan x="777" y="2006.73">Modifications are automatically applied proportionally to all</tspan></text>
<text id="scales and weights." fill="black" xml:space="preserve" style="white-space: pre" font-family="Inter" font-size="13" letter-spacing="0em"><tspan x="777" y="2024.73">scales and weights.</tspan></text>
<g id="Group_5">
<path id="Vector_9" d="M1292.84 1934.87L1294.54 1936.57C1295.4 1937.44 1296.39 1937.38 1297.31 1936.36L1308.01 1924.57L1307.04 1923.6L1296.43 1935.28C1296.07 1935.68 1295.74 1935.77 1295.27 1935.3L1294.1 1934.14C1293.63 1933.68 1293.74 1933.34 1294.14 1932.98L1305.62 1922.18L1304.64 1921.21L1293.05 1932.1C1292.06 1933.02 1291.98 1934 1292.84 1934.87ZM1299.26 1916.67C1298.84 1917.08 1298.81 1917.66 1299.04 1918.05C1299.28 1918.41 1299.74 1918.64 1300.38 1918.48C1301.85 1918.14 1303.37 1918.08 1304.79 1919.02L1304.21 1920.47C1303.87 1921.3 1304.04 1921.89 1304.58 1922.43L1306.87 1924.75C1307.36 1925.24 1307.77 1925.26 1308.34 1925.16L1309.4 1924.96L1310.07 1925.64L1310.03 1926.19C1309.99 1926.69 1310.12 1927.07 1310.61 1927.55L1311.37 1928.29C1311.85 1928.77 1312.46 1928.8 1312.93 1928.33L1315.84 1925.41C1316.31 1924.94 1316.29 1924.35 1315.81 1923.87L1315.04 1923.11C1314.56 1922.63 1314.19 1922.47 1313.71 1922.51L1313.13 1922.56L1312.49 1921.93L1312.73 1920.8C1312.86 1920.24 1312.71 1919.8 1312.12 1919.21L1309.92 1917.02C1306.58 1913.7 1302.15 1913.78 1299.26 1916.67ZM1300.75 1917.04C1303.18 1915.27 1306.47 1915.57 1308.7 1917.79L1311.13 1920.21C1311.37 1920.44 1311.41 1920.63 1311.34 1920.97L1311.02 1922.45L1312.52 1923.94L1313.51 1923.88C1313.76 1923.87 1313.84 1923.89 1314.03 1924.08L1314.61 1924.66L1312.17 1927.1L1311.59 1926.53C1311.4 1926.33 1311.37 1926.25 1311.38 1925.99L1311.45 1925.01L1309.95 1923.53L1308.43 1923.78C1308.11 1923.85 1307.96 1923.82 1307.71 1923.59L1305.71 1921.58C1305.46 1921.35 1305.43 1921.18 1305.59 1920.81L1306.46 1918.72C1304.9 1917.27 1302.87 1916.64 1300.84 1917.24C1300.68 1917.28 1300.62 1917.15 1300.75 1917.04Z" fill="black"/>
</g>
<text id="Exporting" fill="black" xml:space="preserve" style="white-space: pre" font-family="Inter" font-size="13" font-weight="bold" letter-spacing="0em"><tspan x="1290" y="1952.73">Exporting</tspan></text>
<text id="Symbols should be outlined when exporting to ensure the" fill="black" xml:space="preserve" style="white-space: pre" font-family="Inter" font-size="13" letter-spacing="0em"><tspan x="1290" y="1970.73">Symbols should be outlined when exporting to ensure the</tspan></text>
<text id="design is preserved when submitting to Xcode." fill="black" xml:space="preserve" style="white-space: pre" font-family="Inter" font-size="13" letter-spacing="0em"><tspan x="1290" y="1988.73">design is preserved when submitting to Xcode.</tspan></text>
<text id="template-version" fill="black" xml:space="preserve" style="white-space: pre" font-family="Inter" font-size="13" letter-spacing="0em"><tspan x="2947.51" y="1932.73">Template v.5.0</tspan></text>
<text id="Requires Xcode 15 or greater" fill="black" xml:space="preserve" style="white-space: pre" font-family="Inter" font-size="13" letter-spacing="0em"><tspan x="2859.37" y="1950.73">Requires Xcode 15 or greater</tspan></text>
<text id="descriptive-name" fill="black" xml:space="preserve" style="white-space: pre" font-family="Inter" font-size="13" letter-spacing="0em"><tspan x="2813.26" y="1968.73">Generated from custom.dumbbell.fill</tspan></text>
<text id="Typeset at 100.0 points" fill="black" xml:space="preserve" style="white-space: pre" font-family="Inter" font-size="13" letter-spacing="0em"><tspan x="2893.56" y="1986.73">Typeset at 100.0 points</tspan></text>
<text id="Small" fill="black" xml:space="preserve" style="white-space: pre" font-family="Inter" font-size="13" letter-spacing="0em"><tspan x="264" y="725.727">Small</tspan></text>
<text id="Medium_2" fill="black" xml:space="preserve" style="white-space: pre" font-family="Inter" font-size="13" letter-spacing="0em"><tspan x="264" y="1155.73">Medium</tspan></text>
<text id="Large" fill="black" xml:space="preserve" style="white-space: pre" font-family="Inter" font-size="13" letter-spacing="0em"><tspan x="264" y="1585.73">Large</tspan></text>
</g>
<g id="Guides">
<g id="H-reference">
<path id="Vector_10" d="M339.994 696H342.638L368.328 628.868H369.03V625.541H367.123L339.994 696ZM350.688 671.52H385.981L385.231 669.272H351.438L350.688 671.52ZM394.12 696H396.764L369.638 625.541H368.433V628.868L394.12 696Z" fill="#27AAE1"/>
</g>
<path id="Baseline-S" d="M263 696H3036" stroke="#27AAE1" stroke-width="0.5"/>
<path id="Capline-S" d="M263 625.541H3036" stroke="#27AAE1" stroke-width="0.5"/>
<g id="H-reference_2">
<path id="Vector_11" d="M339.994 1126H342.638L368.328 1058.87H369.03V1055.54H367.123L339.994 1126ZM350.688 1101.52H385.981L385.231 1099.27H351.438L350.688 1101.52ZM394.12 1126H396.764L369.638 1055.54H368.433V1058.87L394.12 1126Z" fill="#27AAE1"/>
</g>
<path id="Baseline-M" d="M263 1126H3036" stroke="#27AAE1" stroke-width="0.5"/>
<path id="Capline-M" d="M263 1055.54H3036" stroke="#27AAE1" stroke-width="0.5"/>
<g id="H-reference_3">
<path id="Vector_12" d="M339.994 1556H342.638L368.328 1488.87H369.03V1485.54H367.123L339.994 1556ZM350.688 1531.52H385.981L385.231 1529.27H351.438L350.688 1531.52ZM394.12 1556H396.764L369.638 1485.54H368.433V1488.87L394.12 1556Z" fill="#27AAE1"/>
</g>
<path id="Baseline-L" d="M263 1556H3036" stroke="#27AAE1" stroke-width="0.5"/>
<path id="Capline-L" d="M263 1485.54H3036" stroke="#27AAE1" stroke-width="0.5"/>
<path id="right-margin-Black-S" d="M3005.01 600.785V720.121" stroke="#00AEEF" stroke-width="0.5"/>
<path id="left-margin-Black-S" d="M2861.79 600.785V720.121" stroke="#00AEEF" stroke-width="0.5"/>
<path id="right-margin-Regular-S" d="M1510.05 600.785V720.121" stroke="#00AEEF" stroke-width="0.5"/>
<path id="left-margin-Regular-S" d="M1389.64 600.785V720.121" stroke="#00AEEF" stroke-width="0.5"/>
<path id="right-margin-Ultralight-S" d="M608.655 600.785V720.121" stroke="#00AEEF" stroke-width="0.5"/>
<path id="left-margin-Ultralight-S" d="M510.768 600.785V720.121" stroke="#00AEEF" stroke-width="0.5"/>
</g>
<g id="Ultralight-S">
<g id="Vector_13">
<path d="M608.629 676.869C608.798 676.939 608.981 676.804 608.965 676.622L606.75 651.143C606.64 649.88 605.582 648.911 604.315 648.911H533.222L523.347 650.557C520.76 650.988 518.118 650.893 515.579 650.285C514.481 650.022 513.448 649.55 512.454 649.013L510.379 647.893C510.212 647.803 510.011 647.929 510.019 648.119L511.222 675.8H584.556L594.431 674.154C597.577 673.629 600.804 673.882 603.83 674.891L608.629 676.869Z" fill="black"/>
<path d="M604.525 681.279C605.338 678.986 598.648 676.183 586.95 680.962C586.725 681.054 586.761 681.38 587 681.422C598.346 683.405 603.713 683.568 604.525 681.279Z" fill="black"/>
<path d="M513.253 643.673C512.44 645.966 519.13 648.77 530.828 643.991C531.053 643.899 531.017 643.572 530.778 643.53C519.432 641.547 514.065 641.384 513.253 643.673Z" fill="black"/>
</g>
<path id="Vector (Stroke)" fill-rule="evenodd" clip-rule="evenodd" d="M518.066 640.778C521.043 640.78 525.314 641.335 530.988 642.327C532.431 642.579 532.655 644.565 531.29 645.122C525.302 647.569 520.489 648.12 517.193 647.696C515.56 647.486 514.21 647.025 513.288 646.347C512.372 645.675 511.642 644.559 512.101 643.265C512.47 642.225 513.33 641.601 514.338 641.252C515.323 640.91 516.584 640.776 518.066 640.778ZM514.416 644.053C514.441 644.102 514.521 644.22 514.735 644.377C515.204 644.721 516.105 645.092 517.505 645.272C519.677 645.551 522.837 645.344 526.85 644.118C523.061 643.529 520.169 643.224 518.064 643.222C516.685 643.221 515.743 643.352 515.139 643.561C514.606 643.746 514.465 643.942 514.416 644.053ZM511.315 649.787L512.393 674.577H584.455L594.23 672.948C597.573 672.391 601.002 672.66 604.217 673.732L604.257 673.745L607.609 675.127L605.532 651.249C605.477 650.618 604.949 650.133 604.315 650.133H533.324L523.548 651.762C520.799 652.22 517.993 652.12 515.295 651.474C514.048 651.176 512.908 650.647 511.874 650.089L511.315 649.787ZM508.798 648.172C508.748 647.035 509.958 646.277 510.96 646.818L513.035 647.938C513.988 648.452 514.914 648.869 515.864 649.097C518.244 649.667 520.721 649.755 523.146 649.351L533.121 647.689H604.315C606.217 647.689 607.803 649.143 607.968 651.038L610.183 676.516C610.278 677.611 609.179 678.418 608.163 677.999L603.404 676.038C600.579 675.103 597.568 674.87 594.632 675.359L584.657 677.022H510.052L508.798 648.172ZM590.928 680.835C594.717 681.423 597.61 681.729 599.714 681.73C601.093 681.732 602.035 681.601 602.639 681.391C603.172 681.207 603.313 681.011 603.362 680.899C603.337 680.851 603.257 680.732 603.044 680.576C602.575 680.231 601.673 679.861 600.273 679.681C598.102 679.402 594.941 679.609 590.928 680.835ZM604.49 678.605C605.406 679.278 606.136 680.394 605.677 681.688C605.308 682.728 604.448 683.351 603.44 683.701C602.455 684.043 601.194 684.176 599.712 684.175C596.735 684.172 592.465 683.618 586.79 682.626C585.348 682.374 585.123 680.388 586.488 679.83C592.476 677.384 597.289 676.832 600.585 677.256C602.218 677.466 603.568 677.928 604.49 678.605Z" fill="black"/>
</g>
<g id="Regular-S">
<g id="Vector_14">
<path d="M1517.87 679.681C1518.1 679.776 1518.35 679.593 1518.33 679.343L1515.3 644.503C1515.15 642.776 1513.7 641.45 1511.97 641.45H1414.75L1401.25 643.701C1397.71 644.29 1394.1 644.161 1390.63 643.33C1389.13 642.97 1387.72 642.323 1386.36 641.59L1383.52 640.059C1383.29 639.935 1383.01 640.108 1383.03 640.367L1384.67 678.219H1484.95L1498.45 675.968C1502.76 675.251 1507.17 675.597 1511.31 676.976L1517.87 679.681Z" fill="black"/>
<path d="M1512.26 685.712C1513.37 682.576 1504.22 678.743 1488.22 685.277C1487.92 685.403 1487.97 685.85 1488.29 685.907C1503.81 688.619 1511.15 688.841 1512.26 685.712Z" fill="black"/>
<path d="M1387.45 634.288C1386.34 637.423 1395.49 641.257 1411.48 634.722C1411.79 634.597 1411.74 634.15 1411.41 634.093C1395.9 631.381 1388.56 631.158 1387.45 634.288Z" fill="black"/>
</g>
<path id="Vector (Stroke)_2" fill-rule="evenodd" clip-rule="evenodd" d="M1394.03 630.329C1398.1 630.332 1403.94 631.09 1411.7 632.447C1413.67 632.791 1413.98 635.507 1412.11 636.269C1403.92 639.615 1397.34 640.369 1392.84 639.789C1390.6 639.502 1388.76 638.871 1387.5 637.945C1386.24 637.025 1385.25 635.499 1385.87 633.729C1386.38 632.308 1387.55 631.455 1388.93 630.977C1390.28 630.51 1392 630.327 1394.03 630.329ZM1389.04 634.808C1389.07 634.874 1389.18 635.036 1389.47 635.25C1390.11 635.721 1391.35 636.228 1393.26 636.474C1396.23 636.856 1400.55 636.572 1406.04 634.896C1400.86 634.091 1396.9 633.674 1394.03 633.671C1392.14 633.67 1390.85 633.848 1390.03 634.135C1389.3 634.388 1389.1 634.655 1389.04 634.808ZM1384.8 642.648L1386.27 676.547H1484.81L1498.18 674.319C1502.75 673.558 1507.44 673.925 1511.83 675.391L1511.89 675.409L1516.47 677.298L1513.63 644.648C1513.56 643.784 1512.83 643.121 1511.97 643.121H1414.89L1401.52 645.349C1397.77 645.976 1393.93 645.838 1390.24 644.955C1388.53 644.547 1386.98 643.824 1385.56 643.061L1384.8 642.648ZM1381.36 640.44C1381.29 638.884 1382.94 637.848 1384.31 638.588L1387.15 640.119C1388.45 640.823 1389.72 641.393 1391.02 641.704C1394.27 642.484 1397.66 642.605 1400.98 642.052L1414.62 639.779H1511.97C1514.57 639.779 1516.74 641.767 1516.96 644.358L1519.99 679.198C1520.12 680.696 1518.62 681.799 1517.23 681.226L1510.72 678.544C1506.86 677.266 1502.74 676.947 1498.73 677.617L1485.09 679.89H1383.07L1381.36 640.44ZM1493.66 685.104C1498.84 685.909 1502.8 686.326 1505.68 686.329C1507.56 686.33 1508.85 686.151 1509.68 685.865C1510.41 685.612 1510.6 685.345 1510.67 685.192C1510.63 685.126 1510.52 684.964 1510.23 684.75C1509.59 684.279 1508.36 683.772 1506.44 683.526C1503.47 683.144 1499.15 683.428 1493.66 685.104ZM1512.21 682.055C1513.46 682.975 1514.46 684.501 1513.83 686.271C1513.33 687.692 1512.15 688.545 1510.77 689.023C1509.43 689.49 1507.7 689.673 1505.67 689.671C1501.6 689.668 1495.76 688.91 1488 687.553C1486.03 687.209 1485.72 684.493 1487.59 683.73C1495.78 680.385 1502.36 679.631 1506.87 680.211C1509.1 680.498 1510.95 681.129 1512.21 682.055Z" fill="black"/>
</g>
<g id="Black-S">
<g id="Vector_15">
<path d="M3018.55 685.942C3018.84 686.062 3019.15 685.831 3019.13 685.517L3015.32 641.718C3015.13 639.547 3013.31 637.88 3011.13 637.88H2888.92L2871.94 640.71C2867.5 641.451 2862.96 641.288 2858.59 640.243C2856.7 639.791 2854.93 638.978 2853.22 638.056L2849.65 636.131C2849.36 635.976 2849.02 636.193 2849.03 636.519L2851.1 684.104H2977.17L2994.14 681.274C2999.55 680.373 3005.1 680.808 3010.3 682.542L3018.55 685.942Z" fill="black"/>
<path d="M3011.49 693.524C3012.89 689.582 3001.39 684.762 2981.28 692.978C2980.9 693.135 2980.96 693.697 2981.37 693.769C3000.87 697.178 3010.1 697.458 3011.49 693.524Z" fill="black"/>
<path d="M2854.59 628.876C2853.19 632.818 2864.7 637.638 2884.8 629.422C2885.19 629.265 2885.13 628.703 2884.72 628.631C2865.21 625.222 2855.99 624.942 2854.59 628.876Z" fill="black"/>
</g>
<path id="Vector (Stroke)_3" fill-rule="evenodd" clip-rule="evenodd" d="M2862.87 623.899C2867.98 623.903 2875.32 624.856 2885.08 626.561C2887.56 626.995 2887.95 630.409 2885.6 631.367C2875.3 635.573 2867.03 636.521 2861.37 635.792C2858.56 635.431 2856.24 634.638 2854.65 633.474C2853.08 632.318 2851.82 630.399 2852.61 628.174C2853.25 626.387 2854.72 625.315 2856.46 624.714C2858.15 624.126 2860.32 623.897 2862.87 623.899ZM2857.83 628.684C2856.92 629.002 2856.67 629.338 2856.59 629.53C2856.63 629.613 2856.77 629.817 2857.14 630.086C2857.94 630.678 2859.49 631.315 2861.9 631.624C2865.63 632.105 2871.07 631.748 2877.97 629.641C2871.45 628.629 2866.48 628.104 2862.86 628.101C2860.49 628.099 2858.87 628.324 2857.83 628.684ZM2851.26 639.387L2853.11 682.002H2976.99L2993.8 679.202C2999.54 678.244 3005.44 678.706 3010.96 680.549L3011.03 680.572L3016.79 682.946L3013.22 641.9C3013.13 640.814 3012.22 639.981 3011.13 639.981H2889.09L2872.29 642.782C2867.56 643.57 2862.74 643.397 2858.1 642.287C2855.96 641.773 2854 640.865 2852.22 639.905L2851.26 639.387ZM2846.93 636.61C2846.85 634.655 2848.93 633.352 2850.65 634.282L2854.22 636.207C2855.86 637.092 2857.45 637.809 2859.08 638.2C2863.17 639.18 2867.43 639.332 2871.6 638.637L2888.75 635.779H3011.13C3014.4 635.779 3017.13 638.279 3017.41 641.536L3021.22 685.335C3021.38 687.218 3019.49 688.605 3017.75 687.884L3009.57 684.512C3004.71 682.906 2999.53 682.505 2994.49 683.347L2977.34 686.205H2849.09L2846.93 636.61ZM2988.12 692.759C2994.63 693.771 2999.61 694.296 3003.22 694.299C3005.59 694.301 3007.21 694.076 3008.25 693.716C3009.17 693.398 3009.41 693.062 3009.49 692.87C3009.45 692.787 3009.31 692.583 3008.95 692.314C3008.14 691.722 3006.59 691.085 3004.18 690.776C3000.45 690.295 2995.02 690.652 2988.12 692.759ZM3011.43 688.926C3013.01 690.082 3014.26 692.001 3013.47 694.226C3012.84 696.013 3011.36 697.085 3009.63 697.686C3007.94 698.274 3005.77 698.503 3003.22 698.501C2998.1 698.497 2990.76 697.544 2981.01 695.839C2978.53 695.405 2978.14 691.991 2980.49 691.033C2990.78 686.827 2999.05 685.879 3004.72 686.608C3007.53 686.969 3009.85 687.762 3011.43 688.926Z" fill="black"/>
</g>
</g>
<defs>
<clipPath id="clip0_15_15">
<rect width="3300" height="2200" fill="white"/>
</clipPath>
</defs>
</svg>
