<svg width="3300" height="2200" viewBox="0 0 3300 2200" fill="none" xmlns="http://www.w3.org/2000/svg">
<g id="custom.dumbbell.fill 1-2 1" clip-path="url(#clip0_3_2)">
<g id="Clip path group">
<mask id="mask0_3_2" style="mask-type:luminance" maskUnits="userSpaceOnUse" x="0" y="0" width="3300" height="2200">
<g id="clip0_12_383">
<path id="Vector" d="M3300 0H0V2200H3300V0Z" fill="white"/>
</g>
</mask>
<g mask="url(#mask0_3_2)">
<g id="custom.dumbbell.fill 1">
<g id="Notes">
<path id="artboard" d="M3294 0H-6V2200H3294V0Z" fill="white"/>
<path id="Vector_2" d="M257 292H3030" stroke="black" stroke-width="0.5"/>
<text id="Weight/Scale Variations" fill="black" xml:space="preserve" style="white-space: pre" font-family="Inter" font-size="13" font-weight="bold" letter-spacing="0em"><tspan x="257" y="321.454">Weight/Scale Variations</tspan></text>
<text id="Ultralight" fill="black" xml:space="preserve" style="white-space: pre" font-family="Inter" font-size="13" letter-spacing="0em"><tspan x="525.661" y="321.454">Ultralight</tspan></text>
<text id="Thin" fill="black" xml:space="preserve" style="white-space: pre" font-family="Inter" font-size="13" letter-spacing="0em"><tspan x="837.066" y="321.454">Thin</tspan></text>
<text id="Light" fill="black" xml:space="preserve" style="white-space: pre" font-family="Inter" font-size="13" letter-spacing="0em"><tspan x="1131.77" y="321.454">Light</tspan></text>
<text id="Regular" fill="black" xml:space="preserve" style="white-space: pre" font-family="Inter" font-size="13" letter-spacing="0em"><tspan x="1420.58" y="321.454">Regular</tspan></text>
<text id="Medium" fill="black" xml:space="preserve" style="white-space: pre" font-family="Inter" font-size="13" letter-spacing="0em"><tspan x="1715.99" y="321.454">Medium</tspan></text>
<text id="Semibold" fill="black" xml:space="preserve" style="white-space: pre" font-family="Inter" font-size="13" letter-spacing="0em"><tspan x="2008.65" y="321.454">Semibold</tspan></text>
<text id="Bold" fill="black" xml:space="preserve" style="white-space: pre" font-family="Inter" font-size="13" letter-spacing="0em"><tspan x="2320.29" y="321.454">Bold</tspan></text>
<text id="Heavy" fill="black" xml:space="preserve" style="white-space: pre" font-family="Inter" font-size="13" letter-spacing="0em"><tspan x="2611.32" y="321.454">Heavy</tspan></text>
<text id="Black" fill="black" xml:space="preserve" style="white-space: pre" font-family="Inter" font-size="13" letter-spacing="0em"><tspan x="2910.8" y="321.454">Black</tspan></text>
<path id="Vector_2_2" d="M257 1903H3030" stroke="black" stroke-width="0.5"/>
<g id="Group">
<path id="Vector_3" d="M266.248 1933.83C270.604 1933.83 274.139 1930.3 274.139 1925.95C274.139 1921.59 270.604 1918.07 266.248 1918.07C261.902 1918.07 258.367 1921.59 258.367 1925.95C258.367 1930.3 261.902 1933.83 266.248 1933.83ZM266.248 1932.35C262.713 1932.35 259.861 1929.48 259.861 1925.95C259.861 1922.41 262.713 1919.55 266.248 1919.55C269.783 1919.55 272.645 1922.41 272.645 1925.95C272.645 1929.48 269.783 1932.35 266.248 1932.35ZM262.654 1925.95C262.654 1926.38 262.957 1926.67 263.406 1926.67H265.506V1928.79C265.506 1929.23 265.799 1929.53 266.228 1929.53C266.678 1929.53 266.971 1929.23 266.971 1928.79V1926.67H269.09C269.529 1926.67 269.832 1926.38 269.832 1925.95C269.832 1925.51 269.529 1925.21 269.09 1925.21H266.971V1923.1C266.971 1922.65 266.678 1922.35 266.228 1922.35C265.799 1922.35 265.506 1922.65 265.506 1923.1V1925.21H263.406C262.957 1925.21 262.654 1925.51 262.654 1925.95Z" fill="black"/>
</g>
<g id="Group_2">
<path id="Vector_4" d="M287.215 1935.91C292.713 1935.91 297.176 1931.45 297.176 1925.95C297.176 1920.45 292.713 1915.99 287.215 1915.99C281.717 1915.99 277.254 1920.45 277.254 1925.95C277.254 1931.45 281.717 1935.91 287.215 1935.91ZM287.215 1934.25C282.625 1934.25 278.914 1930.54 278.914 1925.95C278.914 1921.36 282.625 1917.65 287.215 1917.65C291.805 1917.65 295.516 1921.36 295.516 1925.95C295.516 1930.54 291.805 1934.25 287.215 1934.25ZM282.684 1925.95C282.684 1926.43 283.016 1926.75 283.514 1926.75H286.385V1929.63C286.385 1930.12 286.717 1930.46 287.195 1930.46C287.684 1930.46 288.025 1930.13 288.025 1929.63V1926.75H290.906C291.395 1926.75 291.736 1926.43 291.736 1925.95C291.736 1925.46 291.395 1925.12 290.906 1925.12H288.025V1922.25C288.025 1921.75 287.684 1921.41 287.195 1921.41C286.717 1921.41 286.385 1921.75 286.385 1922.25V1925.12H283.514C283.016 1925.12 282.684 1925.46 282.684 1925.95Z" fill="black"/>
</g>
<g id="Group_3">
<path id="Vector_5" d="M313.895 1938.66C320.916 1938.66 326.619 1932.97 326.619 1925.95C326.619 1918.93 320.916 1913.22 313.895 1913.22C306.873 1913.22 301.18 1918.93 301.18 1925.95C301.18 1932.97 306.873 1938.66 313.895 1938.66ZM313.895 1936.85C307.869 1936.85 302.996 1931.97 302.996 1925.95C302.996 1919.92 307.869 1915.05 313.895 1915.05C319.92 1915.05 324.793 1919.92 324.793 1925.95C324.793 1931.97 319.92 1936.85 313.895 1936.85ZM308.123 1925.95C308.123 1926.47 308.494 1926.83 309.041 1926.83H312.987V1930.78C312.987 1931.32 313.358 1931.7 313.875 1931.7C314.412 1931.7 314.783 1931.33 314.783 1930.78V1926.83H318.739C319.276 1926.83 319.657 1926.47 319.657 1925.95C319.657 1925.4 319.285 1925.03 318.739 1925.03H314.783V1921.09C314.783 1920.54 314.412 1920.16 313.875 1920.16C313.358 1920.16 312.987 1920.54 312.987 1921.09V1925.03H309.041C308.494 1925.03 308.123 1925.4 308.123 1925.95Z" fill="black"/>
</g>
<text id="Design Variations" fill="black" xml:space="preserve" style="white-space: pre" font-family="Inter" font-size="13" font-weight="bold" letter-spacing="0em"><tspan x="257" y="1952.46">Design Variations</tspan></text>
<text id="Symbols are supported in up to nine weights and three scales." fill="black" xml:space="preserve" style="white-space: pre" font-family="Inter" font-size="13" letter-spacing="0em"><tspan x="257" y="1970.46">Symbols are supported in up to nine weights and three scales.</tspan></text>
<text id="For optimal layout with text and other symbols, vertically align" fill="black" xml:space="preserve" style="white-space: pre" font-family="Inter" font-size="13" letter-spacing="0em"><tspan x="257" y="1988.46">For optimal layout with text and other symbols, vertically align</tspan></text>
<text id="symbols with the adjacent text." fill="black" xml:space="preserve" style="white-space: pre" font-family="Inter" font-size="13" letter-spacing="0em"><tspan x="257" y="2006.46">symbols with the adjacent text.</tspan></text>
<path id="Vector_6" d="M770 1919V1933" stroke="#00AEEF" stroke-width="0.5"/>
<g id="Group_4">
<path id="Vector_7" d="M773.311 1933.16C773.828 1933.16 774.082 1932.96 774.268 1932.41L775.527 1928.97H781.289L782.549 1932.41C782.734 1932.96 782.988 1933.16 783.496 1933.16C784.014 1933.16 784.346 1932.84 784.346 1932.36C784.346 1932.19 784.316 1932.03 784.238 1931.83L779.658 1919.63C779.434 1919.04 779.033 1918.73 778.408 1918.73C777.803 1918.73 777.393 1919.03 777.178 1919.62L772.598 1931.84C772.52 1932.04 772.49 1932.2 772.49 1932.37C772.49 1932.85 772.803 1933.16 773.311 1933.16ZM776.006 1927.48L778.379 1920.91H778.428L780.801 1927.48H776.006Z" fill="black"/>
</g>
<path id="Vector_8" d="M786.836 1919V1933" stroke="#00AEEF" stroke-width="0.5"/>
<text id="Margins" fill="black" xml:space="preserve" style="white-space: pre" font-family="Inter" font-size="13" font-weight="bold" letter-spacing="0em"><tspan x="770" y="1952.46">Margins</tspan></text>
<text id="Leading and trailing margins on the left and right side of each symbol" fill="black" xml:space="preserve" style="white-space: pre" font-family="Inter" font-size="13" letter-spacing="0em"><tspan x="770" y="1970.46">Leading and trailing margins on the left and right side of each symbol</tspan></text>
<text id="can be adjusted by modifying the x-location of the margin guidelines." fill="black" xml:space="preserve" style="white-space: pre" font-family="Inter" font-size="13" letter-spacing="0em"><tspan x="770" y="1988.46">can be adjusted by modifying the x-location of the margin guidelines.</tspan></text>
<text id="Modifications are automatically applied proportionally to all" fill="black" xml:space="preserve" style="white-space: pre" font-family="Inter" font-size="13" letter-spacing="0em"><tspan x="770" y="2006.46">Modifications are automatically applied proportionally to all</tspan></text>
<text id="scales and weights." fill="black" xml:space="preserve" style="white-space: pre" font-family="Inter" font-size="13" letter-spacing="0em"><tspan x="770" y="2024.46">scales and weights.</tspan></text>
<g id="Group_5">
<path id="Vector_9" d="M1285.84 1934.87L1287.54 1936.57C1288.4 1937.44 1289.39 1937.38 1290.31 1936.36L1301.01 1924.57L1300.04 1923.6L1289.43 1935.28C1289.07 1935.68 1288.74 1935.77 1288.27 1935.3L1287.1 1934.14C1286.63 1933.68 1286.74 1933.34 1287.14 1932.98L1298.62 1922.18L1297.64 1921.21L1286.05 1932.1C1285.06 1933.02 1284.98 1934 1285.84 1934.87ZM1292.26 1916.67C1291.84 1917.08 1291.81 1917.66 1292.04 1918.05C1292.28 1918.41 1292.74 1918.64 1293.38 1918.48C1294.85 1918.14 1296.37 1918.08 1297.79 1919.02L1297.21 1920.47C1296.87 1921.3 1297.04 1921.89 1297.58 1922.43L1299.88 1924.75C1300.36 1925.24 1300.77 1925.26 1301.34 1925.16L1302.4 1924.96L1303.07 1925.64L1303.03 1926.19C1302.99 1926.69 1303.12 1927.07 1303.61 1927.55L1304.37 1928.29C1304.85 1928.77 1305.46 1928.8 1305.93 1928.33L1308.84 1925.41C1309.31 1924.94 1309.29 1924.35 1308.81 1923.87L1308.04 1923.11C1307.56 1922.63 1307.19 1922.47 1306.71 1922.51L1306.13 1922.56L1305.49 1921.93L1305.73 1920.8C1305.86 1920.24 1305.71 1919.8 1305.12 1919.21L1302.92 1917.02C1299.58 1913.7 1295.15 1913.78 1292.26 1916.67ZM1293.75 1917.04C1296.18 1915.27 1299.47 1915.57 1301.7 1917.79L1304.13 1920.21C1304.37 1920.44 1304.41 1920.63 1304.34 1920.97L1304.02 1922.45L1305.52 1923.94L1306.51 1923.88C1306.76 1923.87 1306.84 1923.89 1307.03 1924.08L1307.61 1924.66L1305.17 1927.1L1304.59 1926.53C1304.4 1926.33 1304.37 1926.25 1304.38 1925.99L1304.45 1925.01L1302.95 1923.53L1301.43 1923.78C1301.11 1923.85 1300.96 1923.82 1300.71 1923.59L1298.71 1921.58C1298.46 1921.35 1298.43 1921.18 1298.59 1920.81L1299.46 1918.72C1297.9 1917.27 1295.87 1916.64 1293.84 1917.24C1293.68 1917.28 1293.63 1917.15 1293.75 1917.04Z" fill="black"/>
</g>
<text id="Exporting" fill="black" xml:space="preserve" style="white-space: pre" font-family="Inter" font-size="13" font-weight="bold" letter-spacing="0em"><tspan x="1283" y="1952.46">Exporting</tspan></text>
<text id="Symbols should be outlined when exporting to ensure the" fill="black" xml:space="preserve" style="white-space: pre" font-family="Inter" font-size="13" letter-spacing="0em"><tspan x="1283" y="1970.46">Symbols should be outlined when exporting to ensure the</tspan></text>
<text id="design is preserved when submitting to Xcode." fill="black" xml:space="preserve" style="white-space: pre" font-family="Inter" font-size="13" letter-spacing="0em"><tspan x="1283" y="1988.46">design is preserved when submitting to Xcode.</tspan></text>
<text id="template-version" fill="black" xml:space="preserve" style="white-space: pre" font-family="Inter" font-size="13" letter-spacing="0em"><tspan x="2940.51" y="1932.46">Template v.5.0</tspan></text>
<text id="Requires Xcode 15 or greater" fill="black" xml:space="preserve" style="white-space: pre" font-family="Inter" font-size="13" letter-spacing="0em"><tspan x="2852.37" y="1950.46">Requires Xcode 15 or greater</tspan></text>
<text id="descriptive-name" fill="black" xml:space="preserve" style="white-space: pre" font-family="Inter" font-size="13" letter-spacing="0em"><tspan x="2806.26" y="1968.46">Generated from custom.dumbbell.fill</tspan></text>
<text id="Typeset at 100.0 points" fill="black" xml:space="preserve" style="white-space: pre" font-family="Inter" font-size="13" letter-spacing="0em"><tspan x="2886.56" y="1986.46">Typeset at 100.0 points</tspan></text>
<text id="Small" fill="black" xml:space="preserve" style="white-space: pre" font-family="Inter" font-size="13" letter-spacing="0em"><tspan x="257" y="725.454">Small</tspan></text>
<text id="Medium_2" fill="black" xml:space="preserve" style="white-space: pre" font-family="Inter" font-size="13" letter-spacing="0em"><tspan x="257" y="1155.46">Medium</tspan></text>
<text id="Large" fill="black" xml:space="preserve" style="white-space: pre" font-family="Inter" font-size="13" letter-spacing="0em"><tspan x="257" y="1585.46">Large</tspan></text>
</g>
<g id="Guides">
<g id="H-reference">
<path id="Vector_10" d="M339.994 696H342.638L368.328 628.868H369.03V625.541H367.123L339.994 696ZM350.688 671.52H385.981L385.231 669.272H351.438L350.688 671.52ZM394.12 696H396.764L369.638 625.541H368.433V628.868L394.12 696Z" fill="#27AAE1"/>
</g>
<path id="Baseline-S" d="M263 696H3036" stroke="#27AAE1" stroke-width="0.5"/>
<path id="Capline-S" d="M263 625.541H3036" stroke="#27AAE1" stroke-width="0.5"/>
<g id="H-reference_2">
<path id="Vector_11" d="M339.994 1126H342.638L368.328 1058.87H369.03V1055.54H367.123L339.994 1126ZM350.688 1101.52H385.981L385.231 1099.27H351.438L350.688 1101.52ZM394.12 1126H396.764L369.638 1055.54H368.433V1058.87L394.12 1126Z" fill="#27AAE1"/>
</g>
<path id="Baseline-M" d="M263 1126H3036" stroke="#27AAE1" stroke-width="0.5"/>
<path id="Capline-M" d="M263 1055.54H3036" stroke="#27AAE1" stroke-width="0.5"/>
<g id="H-reference_3">
<path id="Vector_12" d="M339.994 1556H342.638L368.328 1488.87H369.03V1485.54H367.123L339.994 1556ZM350.688 1531.52H385.981L385.231 1529.27H351.438L350.688 1531.52ZM394.12 1556H396.764L369.638 1485.54H368.433V1488.87L394.12 1556Z" fill="#27AAE1"/>
</g>
<path id="Baseline-L" d="M263 1556H3036" stroke="#27AAE1" stroke-width="0.5"/>
<path id="Capline-L" d="M263 1485.54H3036" stroke="#27AAE1" stroke-width="0.5"/>
<path id="right-margin-Black-S" d="M3005.01 600.785V720.121" stroke="#00AEEF" stroke-width="0.5"/>
<path id="left-margin-Black-S" d="M2861.79 600.785V720.121" stroke="#00AEEF" stroke-width="0.5"/>
<path id="right-margin-Regular-S" d="M1510.05 600.785V720.121" stroke="#00AEEF" stroke-width="0.5"/>
<path id="left-margin-Regular-S" d="M1389.64 600.785V720.121" stroke="#00AEEF" stroke-width="0.5"/>
<path id="right-margin-Ultralight-S" d="M608.655 600.785V720.121" stroke="#00AEEF" stroke-width="0.5"/>
<path id="left-margin-Ultralight-S" d="M510.768 600.785V720.121" stroke="#00AEEF" stroke-width="0.5"/>
</g>
<g id="Regular-S">
<g id="Vector_13" filter="url(#filter0_d_3_2)">
<path id="Vector_14" d="M1511.76 663.893C1511.76 665.864 1510.06 667.462 1507.96 667.462V657.944C1510.06 657.944 1511.76 659.542 1511.76 661.514V663.893Z" fill="black"/>
<path id="Vector_15" d="M1493.49 675.529V648.759C1493.49 646.13 1491.22 644 1488.42 644C1485.62 644 1483.35 646.13 1483.35 648.759V675.529C1483.35 678.158 1485.62 680.288 1488.42 680.288C1491.22 680.288 1493.49 678.158 1493.49 675.529Z" fill="black"/>
<path id="Vector_16" d="M1387 665.573C1387 667.544 1388.7 669.142 1390.8 669.142V659.624C1388.7 659.624 1387 661.222 1387 663.194V665.573Z" fill="black"/>
<path id="Vector_17" d="M1404.83 675.529V648.759C1404.83 646.13 1407.1 644 1409.9 644C1412.7 644 1414.97 646.13 1414.97 648.759V675.529C1414.97 678.158 1412.7 680.288 1409.9 680.288C1407.1 680.288 1404.83 678.158 1404.83 675.529Z" fill="black"/>
<path id="Vector_18" d="M1393.72 673.452V652.516C1393.72 649.946 1395.22 647.864 1397.08 647.864C1398.94 647.864 1400.44 649.946 1400.44 652.516V673.452C1400.44 676.021 1398.94 678.104 1397.08 678.104C1395.22 678.104 1393.72 676.021 1393.72 673.452Z" fill="black"/>
<path id="Vector_19" d="M1479.55 658.443V667.882H1418.77V658.443H1479.55Z" fill="black"/>
<path id="Vector_20" d="M1497.88 673.452V652.516C1497.88 649.946 1499.38 647.864 1501.24 647.864C1503.1 647.864 1504.6 649.946 1504.6 652.516V673.452C1504.6 676.021 1503.1 678.104 1501.24 678.104C1499.38 678.104 1497.88 676.021 1497.88 673.452Z" fill="black"/>
</g>
</g>
<g id="Black-S">
<g id="Vector_13_2" filter="url(#filter1_d_3_2)">
<path id="Vector_21" d="M3007.21 663.632C3007.21 665.975 3005.19 667.873 3002.7 667.873V656.565C3005.19 656.565 3007.21 658.464 3007.21 660.806V663.632Z" fill="black"/>
<path id="Vector_22" d="M2985.51 677.456V645.654C2985.51 642.531 2982.81 640 2979.49 640C2976.16 640 2973.47 642.531 2973.47 645.654V677.456C2973.47 680.579 2976.16 683.11 2979.49 683.11C2982.81 683.11 2985.51 680.579 2985.51 677.456Z" fill="black"/>
<path id="Vector_23" d="M2859 665.628C2859 667.97 2861.02 669.869 2863.51 669.869V658.561C2861.02 658.561 2859 660.46 2859 662.802V665.628Z" fill="black"/>
<path id="Vector_24" d="M2880.19 677.456V645.654C2880.19 642.531 2882.88 640 2886.21 640C2889.53 640 2892.22 642.531 2892.22 645.654V677.456C2892.22 680.579 2889.53 683.11 2886.21 683.11C2882.88 683.11 2880.19 680.579 2880.19 677.456Z" fill="black"/>
<path id="Vector_25" d="M2866.98 674.988V650.117C2866.98 647.064 2868.77 644.59 2870.98 644.59C2873.18 644.59 2874.97 647.064 2874.97 650.117V674.988C2874.97 678.041 2873.18 680.516 2870.98 680.516C2868.77 680.516 2866.98 678.041 2866.98 674.988Z" fill="black"/>
<path id="Vector_26" d="M2968.95 657.158V668.371H2896.74V657.158H2968.95Z" fill="black"/>
<path id="Vector_27" d="M2990.73 674.988V650.117C2990.73 647.064 2992.51 644.59 2994.72 644.59C2996.92 644.59 2998.71 647.064 2998.71 650.117V674.988C2998.71 678.041 2996.92 680.516 2994.72 680.516C2992.51 680.516 2990.73 678.041 2990.73 674.988Z" fill="black"/>
</g>
</g>
<g id="Ultralight-S">
<g id="Vector_13_3" filter="url(#filter2_d_3_2)">
<path id="Vector_28" d="M604.114 661.209C604.114 662.617 602.899 663.759 601.4 663.759V656.96C602.899 656.96 604.114 658.101 604.114 659.51V661.209Z" fill="black"/>
<path id="Vector_29" d="M591.062 669.521V650.399C591.062 648.522 589.441 647 587.443 647C585.445 647 583.824 648.522 583.824 650.399V669.521C583.824 671.398 585.445 672.92 587.443 672.92C589.441 672.92 591.062 671.398 591.062 669.521Z" fill="black"/>
<path id="Vector_30" d="M515 662.409C515 663.817 516.215 664.959 517.714 664.959V658.16C516.215 658.16 515 659.301 515 660.71V662.409Z" fill="black"/>
<path id="Vector_31" d="M527.738 669.521V650.399C527.738 648.522 529.359 647 531.358 647C533.355 647 534.976 648.522 534.976 650.399V669.521C534.976 671.398 533.355 672.92 531.358 672.92C529.359 672.92 527.738 671.398 527.738 669.521Z" fill="black"/>
<path id="Vector_32" d="M519.8 668.037V653.083C519.8 651.247 520.874 649.76 522.2 649.76C523.526 649.76 524.6 651.247 524.6 653.083V668.037C524.6 669.872 523.526 671.36 522.2 671.36C520.874 671.36 519.8 669.872 519.8 668.037Z" fill="black"/>
<path id="Vector_33" d="M581.11 657.316V664.058H537.69V657.316H581.11Z" fill="black"/>
<path id="Vector_34" d="M594.2 668.037V653.083C594.2 651.247 595.274 649.76 596.6 649.76C597.926 649.76 599 651.247 599 653.083V668.037C599 669.872 597.926 671.36 596.6 671.36C595.274 671.36 594.2 669.872 594.2 668.037Z" fill="black"/>
</g>
</g>
</g>
</g>
</g>
</g>
<defs>
<filter id="filter0_d_3_2" x="1381.62" y="644" width="135.512" height="47.04" filterUnits="userSpaceOnUse" color-interpolation-filters="sRGB">
<feFlood flood-opacity="0" result="BackgroundImageFix"/>
<feColorMatrix in="SourceAlpha" type="matrix" values="0 0 0 0 0 0 0 0 0 0 0 0 0 0 0 0 0 0 127 0" result="hardAlpha"/>
<feOffset dy="5.376"/>
<feGaussianBlur stdDeviation="2.688"/>
<feComposite in2="hardAlpha" operator="out"/>
<feColorMatrix type="matrix" values="0 0 0 0 0 0 0 0 0 0 0 0 0 0 0 0 0 0 0.25 0"/>
<feBlend mode="normal" in2="BackgroundImageFix" result="effect1_dropShadow_3_2"/>
<feBlend mode="normal" in="SourceGraphic" in2="effect1_dropShadow_3_2" result="shape"/>
</filter>
<filter id="filter1_d_3_2" x="2852.61" y="640" width="160.988" height="55.8835" filterUnits="userSpaceOnUse" color-interpolation-filters="sRGB">
<feFlood flood-opacity="0" result="BackgroundImageFix"/>
<feColorMatrix in="SourceAlpha" type="matrix" values="0 0 0 0 0 0 0 0 0 0 0 0 0 0 0 0 0 0 127 0" result="hardAlpha"/>
<feOffset dy="6.38669"/>
<feGaussianBlur stdDeviation="3.19334"/>
<feComposite in2="hardAlpha" operator="out"/>
<feColorMatrix type="matrix" values="0 0 0 0 0 0 0 0 0 0 0 0 0 0 0 0 0 0 0.25 0"/>
<feBlend mode="normal" in2="BackgroundImageFix" result="effect1_dropShadow_3_2"/>
<feBlend mode="normal" in="SourceGraphic" in2="effect1_dropShadow_3_2" result="shape"/>
</filter>
<filter id="filter2_d_3_2" x="511.16" y="647" width="96.794" height="33.6" filterUnits="userSpaceOnUse" color-interpolation-filters="sRGB">
<feFlood flood-opacity="0" result="BackgroundImageFix"/>
<feColorMatrix in="SourceAlpha" type="matrix" values="0 0 0 0 0 0 0 0 0 0 0 0 0 0 0 0 0 0 127 0" result="hardAlpha"/>
<feOffset dy="3.84"/>
<feGaussianBlur stdDeviation="1.92"/>
<feComposite in2="hardAlpha" operator="out"/>
<feColorMatrix type="matrix" values="0 0 0 0 0 0 0 0 0 0 0 0 0 0 0 0 0 0 0.25 0"/>
<feBlend mode="normal" in2="BackgroundImageFix" result="effect1_dropShadow_3_2"/>
<feBlend mode="normal" in="SourceGraphic" in2="effect1_dropShadow_3_2" result="shape"/>
</filter>
<clipPath id="clip0_3_2">
<rect width="3300" height="2200" fill="white"/>
</clipPath>
</defs>
</svg>
