<svg width="3300" height="2200" viewBox="0 0 3300 2200" fill="none" xmlns="http://www.w3.org/2000/svg">
<g id="kettlebell" clip-path="url(#clip0_12_384)">
<g id="Notes">
<path id="artboard" d="M3364 0H64V2200H3364V0Z" fill="white"/>
<path id="Vector" d="M327 292H3100" stroke="black" stroke-width="0.5"/>
<text id="Weight/Scale Variations" fill="black" xml:space="preserve" style="white-space: pre" font-family="Inter" font-size="13" font-weight="bold" letter-spacing="0em"><tspan x="327" y="321.727">Weight/Scale Variations</tspan></text>
<text id="Ultralight" fill="black" xml:space="preserve" style="white-space: pre" font-family="Inter" font-size="13" letter-spacing="0em"><tspan x="595.661" y="321.727">Ultralight</tspan></text>
<text id="Thin" fill="black" xml:space="preserve" style="white-space: pre" font-family="Inter" font-size="13" letter-spacing="0em"><tspan x="907.067" y="321.727">Thin</tspan></text>
<text id="Light" fill="black" xml:space="preserve" style="white-space: pre" font-family="Inter" font-size="13" letter-spacing="0em"><tspan x="1201.77" y="321.727">Light</tspan></text>
<text id="Regular" fill="black" xml:space="preserve" style="white-space: pre" font-family="Inter" font-size="13" letter-spacing="0em"><tspan x="1490.58" y="321.727">Regular</tspan></text>
<text id="Medium" fill="black" xml:space="preserve" style="white-space: pre" font-family="Inter" font-size="13" letter-spacing="0em"><tspan x="1785.99" y="321.727">Medium</tspan></text>
<text id="Semibold" fill="black" xml:space="preserve" style="white-space: pre" font-family="Inter" font-size="13" letter-spacing="0em"><tspan x="2078.65" y="321.727">Semibold</tspan></text>
<text id="Bold" fill="black" xml:space="preserve" style="white-space: pre" font-family="Inter" font-size="13" letter-spacing="0em"><tspan x="2390.29" y="321.727">Bold</tspan></text>
<text id="Heavy" fill="black" xml:space="preserve" style="white-space: pre" font-family="Inter" font-size="13" letter-spacing="0em"><tspan x="2681.32" y="321.727">Heavy</tspan></text>
<text id="Black" fill="black" xml:space="preserve" style="white-space: pre" font-family="Inter" font-size="13" letter-spacing="0em"><tspan x="2980.8" y="321.727">Black</tspan></text>
<path id="Vector_2" d="M327 1903H3100" stroke="black" stroke-width="0.5"/>
<g id="Group">
<path id="Vector_3" d="M336.248 1933.83C340.604 1933.83 344.139 1930.3 344.139 1925.95C344.139 1921.59 340.604 1918.07 336.248 1918.07C331.902 1918.07 328.367 1921.59 328.367 1925.95C328.367 1930.3 331.902 1933.83 336.248 1933.83ZM336.248 1932.35C332.713 1932.35 329.861 1929.48 329.861 1925.95C329.861 1922.41 332.713 1919.55 336.248 1919.55C339.783 1919.55 342.645 1922.41 342.645 1925.95C342.645 1929.48 339.783 1932.35 336.248 1932.35ZM332.654 1925.95C332.654 1926.38 332.957 1926.67 333.406 1926.67H335.506V1928.79C335.506 1929.23 335.799 1929.53 336.228 1929.53C336.678 1929.53 336.971 1929.23 336.971 1928.79V1926.67H339.09C339.529 1926.67 339.832 1926.38 339.832 1925.95C339.832 1925.51 339.529 1925.21 339.09 1925.21H336.971V1923.1C336.971 1922.65 336.678 1922.35 336.228 1922.35C335.799 1922.35 335.506 1922.65 335.506 1923.1V1925.21H333.406C332.957 1925.21 332.654 1925.51 332.654 1925.95Z" fill="black"/>
</g>
<g id="Group_2">
<path id="Vector_4" d="M357.215 1935.91C362.713 1935.91 367.176 1931.45 367.176 1925.95C367.176 1920.45 362.713 1915.99 357.215 1915.99C351.717 1915.99 347.254 1920.45 347.254 1925.95C347.254 1931.45 351.717 1935.91 357.215 1935.91ZM357.215 1934.25C352.625 1934.25 348.914 1930.54 348.914 1925.95C348.914 1921.36 352.625 1917.65 357.215 1917.65C361.805 1917.65 365.516 1921.36 365.516 1925.95C365.516 1930.54 361.805 1934.25 357.215 1934.25ZM352.684 1925.95C352.684 1926.43 353.016 1926.75 353.514 1926.75H356.385V1929.63C356.385 1930.12 356.717 1930.46 357.195 1930.46C357.684 1930.46 358.026 1930.13 358.026 1929.63V1926.75H360.906C361.395 1926.75 361.736 1926.43 361.736 1925.95C361.736 1925.46 361.395 1925.12 360.906 1925.12H358.026V1922.25C358.026 1921.75 357.684 1921.41 357.195 1921.41C356.717 1921.41 356.385 1921.75 356.385 1922.25V1925.12H353.514C353.016 1925.12 352.684 1925.46 352.684 1925.95Z" fill="black"/>
</g>
<g id="Group_3">
<path id="Vector_5" d="M383.895 1938.66C390.916 1938.66 396.619 1932.97 396.619 1925.95C396.619 1918.93 390.916 1913.22 383.895 1913.22C376.873 1913.22 371.18 1918.93 371.18 1925.95C371.18 1932.97 376.873 1938.66 383.895 1938.66ZM383.895 1936.85C377.869 1936.85 372.996 1931.97 372.996 1925.95C372.996 1919.92 377.869 1915.05 383.895 1915.05C389.92 1915.05 394.793 1919.92 394.793 1925.95C394.793 1931.97 389.92 1936.85 383.895 1936.85ZM378.123 1925.95C378.123 1926.47 378.494 1926.83 379.041 1926.83H382.987V1930.78C382.987 1931.32 383.358 1931.7 383.875 1931.7C384.412 1931.7 384.783 1931.33 384.783 1930.78V1926.83H388.738C389.276 1926.83 389.656 1926.47 389.656 1925.95C389.656 1925.4 389.285 1925.03 388.738 1925.03H384.783V1921.09C384.783 1920.54 384.412 1920.16 383.875 1920.16C383.358 1920.16 382.987 1920.54 382.987 1921.09V1925.03H379.041C378.494 1925.03 378.123 1925.4 378.123 1925.95Z" fill="black"/>
</g>
<text id="Design Variations" fill="black" xml:space="preserve" style="white-space: pre" font-family="Inter" font-size="13" font-weight="bold" letter-spacing="0em"><tspan x="327" y="1952.73">Design Variations</tspan></text>
<text id="Symbols are supported in up to nine weights and three scales." fill="black" xml:space="preserve" style="white-space: pre" font-family="Inter" font-size="13" letter-spacing="0em"><tspan x="327" y="1970.73">Symbols are supported in up to nine weights and three scales.</tspan></text>
<text id="For optimal layout with text and other symbols, vertically align" fill="black" xml:space="preserve" style="white-space: pre" font-family="Inter" font-size="13" letter-spacing="0em"><tspan x="327" y="1988.73">For optimal layout with text and other symbols, vertically align</tspan></text>
<text id="symbols with the adjacent text." fill="black" xml:space="preserve" style="white-space: pre" font-family="Inter" font-size="13" letter-spacing="0em"><tspan x="327" y="2006.73">symbols with the adjacent text.</tspan></text>
<path id="Vector_6" d="M840 1919V1933" stroke="#00AEEF" stroke-width="0.5"/>
<g id="Group_4">
<path id="Vector_7" d="M843.311 1933.16C843.828 1933.16 844.082 1932.96 844.268 1932.41L845.527 1928.97H851.289L852.549 1932.41C852.734 1932.96 852.988 1933.16 853.496 1933.16C854.014 1933.16 854.346 1932.84 854.346 1932.36C854.346 1932.19 854.316 1932.03 854.238 1931.83L849.658 1919.63C849.434 1919.04 849.033 1918.73 848.408 1918.73C847.803 1918.73 847.393 1919.03 847.178 1919.62L842.598 1931.84C842.52 1932.04 842.49 1932.2 842.49 1932.37C842.49 1932.85 842.803 1933.16 843.311 1933.16ZM846.006 1927.48L848.379 1920.91H848.428L850.801 1927.48H846.006Z" fill="black"/>
</g>
<path id="Vector_8" d="M856.836 1919V1933" stroke="#00AEEF" stroke-width="0.5"/>
<text id="Margins" fill="black" xml:space="preserve" style="white-space: pre" font-family="Inter" font-size="13" font-weight="bold" letter-spacing="0em"><tspan x="840" y="1952.73">Margins</tspan></text>
<text id="Leading and trailing margins on the left and right side of each symbol" fill="black" xml:space="preserve" style="white-space: pre" font-family="Inter" font-size="13" letter-spacing="0em"><tspan x="840" y="1970.73">Leading and trailing margins on the left and right side of each symbol</tspan></text>
<text id="can be adjusted by modifying the x-location of the margin guidelines." fill="black" xml:space="preserve" style="white-space: pre" font-family="Inter" font-size="13" letter-spacing="0em"><tspan x="840" y="1988.73">can be adjusted by modifying the x-location of the margin guidelines.</tspan></text>
<text id="Modifications are automatically applied proportionally to all" fill="black" xml:space="preserve" style="white-space: pre" font-family="Inter" font-size="13" letter-spacing="0em"><tspan x="840" y="2006.73">Modifications are automatically applied proportionally to all</tspan></text>
<text id="scales and weights." fill="black" xml:space="preserve" style="white-space: pre" font-family="Inter" font-size="13" letter-spacing="0em"><tspan x="840" y="2024.73">scales and weights.</tspan></text>
<g id="Group_5">
<path id="Vector_9" d="M1355.84 1934.87L1357.54 1936.57C1358.4 1937.44 1359.39 1937.38 1360.31 1936.36L1371.01 1924.57L1370.04 1923.6L1359.43 1935.28C1359.07 1935.68 1358.74 1935.77 1358.27 1935.3L1357.1 1934.14C1356.63 1933.68 1356.74 1933.34 1357.14 1932.98L1368.62 1922.18L1367.64 1921.21L1356.05 1932.1C1355.06 1933.02 1354.98 1934 1355.84 1934.87ZM1362.26 1916.67C1361.84 1917.08 1361.81 1917.66 1362.04 1918.05C1362.28 1918.41 1362.74 1918.64 1363.38 1918.48C1364.85 1918.14 1366.37 1918.08 1367.79 1919.02L1367.21 1920.47C1366.87 1921.3 1367.04 1921.89 1367.58 1922.43L1369.88 1924.75C1370.36 1925.24 1370.77 1925.26 1371.34 1925.16L1372.4 1924.96L1373.07 1925.64L1373.03 1926.19C1372.99 1926.69 1373.12 1927.07 1373.61 1927.55L1374.37 1928.29C1374.85 1928.77 1375.46 1928.8 1375.93 1928.33L1378.84 1925.41C1379.31 1924.94 1379.29 1924.35 1378.81 1923.87L1378.04 1923.11C1377.56 1922.63 1377.19 1922.47 1376.71 1922.51L1376.13 1922.56L1375.49 1921.93L1375.73 1920.8C1375.86 1920.24 1375.71 1919.8 1375.12 1919.21L1372.92 1917.02C1369.58 1913.7 1365.15 1913.78 1362.26 1916.67ZM1363.75 1917.04C1366.18 1915.27 1369.47 1915.57 1371.7 1917.79L1374.13 1920.21C1374.37 1920.44 1374.41 1920.63 1374.34 1920.97L1374.02 1922.45L1375.52 1923.94L1376.51 1923.88C1376.76 1923.87 1376.84 1923.89 1377.03 1924.08L1377.61 1924.66L1375.17 1927.1L1374.59 1926.53C1374.4 1926.33 1374.37 1926.25 1374.38 1925.99L1374.45 1925.01L1372.95 1923.53L1371.43 1923.78C1371.11 1923.85 1370.96 1923.82 1370.71 1923.59L1368.71 1921.58C1368.46 1921.35 1368.43 1921.18 1368.59 1920.81L1369.46 1918.72C1367.9 1917.27 1365.87 1916.64 1363.84 1917.24C1363.68 1917.28 1363.63 1917.15 1363.75 1917.04Z" fill="black"/>
</g>
<text id="Exporting" fill="black" xml:space="preserve" style="white-space: pre" font-family="Inter" font-size="13" font-weight="bold" letter-spacing="0em"><tspan x="1353" y="1952.73">Exporting</tspan></text>
<text id="Symbols should be outlined when exporting to ensure the" fill="black" xml:space="preserve" style="white-space: pre" font-family="Inter" font-size="13" letter-spacing="0em"><tspan x="1353" y="1970.73">Symbols should be outlined when exporting to ensure the</tspan></text>
<text id="design is preserved when submitting to Xcode." fill="black" xml:space="preserve" style="white-space: pre" font-family="Inter" font-size="13" letter-spacing="0em"><tspan x="1353" y="1988.73">design is preserved when submitting to Xcode.</tspan></text>
<text id="template-version" fill="black" xml:space="preserve" style="white-space: pre" font-family="Inter" font-size="13" letter-spacing="0em"><tspan x="3010.51" y="1932.73">Template v.5.0</tspan></text>
<text id="Requires Xcode 15 or greater" fill="black" xml:space="preserve" style="white-space: pre" font-family="Inter" font-size="13" letter-spacing="0em"><tspan x="2922.37" y="1950.73">Requires Xcode 15 or greater</tspan></text>
<text id="descriptive-name" fill="black" xml:space="preserve" style="white-space: pre" font-family="Inter" font-size="13" letter-spacing="0em"><tspan x="2876.26" y="1968.73">Generated from custom.dumbbell.fill</tspan></text>
<text id="Typeset at 100.0 points" fill="black" xml:space="preserve" style="white-space: pre" font-family="Inter" font-size="13" letter-spacing="0em"><tspan x="2956.56" y="1986.73">Typeset at 100.0 points</tspan></text>
<text id="Small" fill="black" xml:space="preserve" style="white-space: pre" font-family="Inter" font-size="13" letter-spacing="0em"><tspan x="327" y="725.727">Small</tspan></text>
<text id="Medium_2" fill="black" xml:space="preserve" style="white-space: pre" font-family="Inter" font-size="13" letter-spacing="0em"><tspan x="327" y="1155.73">Medium</tspan></text>
<text id="Large" fill="black" xml:space="preserve" style="white-space: pre" font-family="Inter" font-size="13" letter-spacing="0em"><tspan x="327" y="1585.73">Large</tspan></text>
</g>
<g id="Guides">
<g id="H-reference">
<path id="Vector_10" d="M339.994 696H342.638L368.328 628.868H369.03V625.541H367.123L339.994 696ZM350.688 671.52H385.981L385.231 669.272H351.438L350.688 671.52ZM394.12 696H396.764L369.638 625.541H368.433V628.868L394.12 696Z" fill="#27AAE1"/>
</g>
<path id="Baseline-S" d="M263 696H3036" stroke="#27AAE1" stroke-width="0.5"/>
<path id="Capline-S" d="M263 625.541H3036" stroke="#27AAE1" stroke-width="0.5"/>
<g id="H-reference_2">
<path id="Vector_11" d="M339.994 1126H342.638L368.328 1058.87H369.03V1055.54H367.123L339.994 1126ZM350.688 1101.52H385.981L385.231 1099.27H351.438L350.688 1101.52ZM394.12 1126H396.764L369.638 1055.54H368.433V1058.87L394.12 1126Z" fill="#27AAE1"/>
</g>
<path id="Baseline-M" d="M263 1126H3036" stroke="#27AAE1" stroke-width="0.5"/>
<path id="Capline-M" d="M263 1055.54H3036" stroke="#27AAE1" stroke-width="0.5"/>
<g id="H-reference_3">
<path id="Vector_12" d="M339.994 1556H342.638L368.328 1488.87H369.03V1485.54H367.123L339.994 1556ZM350.688 1531.52H385.981L385.231 1529.27H351.438L350.688 1531.52ZM394.12 1556H396.764L369.638 1485.54H368.433V1488.87L394.12 1556Z" fill="#27AAE1"/>
</g>
<path id="Baseline-L" d="M263 1556H3036" stroke="#27AAE1" stroke-width="0.5"/>
<path id="Capline-L" d="M263 1485.54H3036" stroke="#27AAE1" stroke-width="0.5"/>
<path id="right-margin-Black-S" d="M3005.01 600.785V720.121" stroke="#00AEEF" stroke-width="0.5"/>
<path id="left-margin-Black-S" d="M2861.79 600.785V720.121" stroke="#00AEEF" stroke-width="0.5"/>
<path id="right-margin-Regular-S" d="M1510.05 600.785V720.121" stroke="#00AEEF" stroke-width="0.5"/>
<path id="left-margin-Regular-S" d="M1389.64 600.785V720.121" stroke="#00AEEF" stroke-width="0.5"/>
<path id="right-margin-Ultralight-S" d="M608.655 600.785V720.121" stroke="#00AEEF" stroke-width="0.5"/>
<path id="left-margin-Ultralight-S" d="M510.768 600.785V720.121" stroke="#00AEEF" stroke-width="0.5"/>
</g>
<g id="Ultralight-S">
<path id="Vector_13" d="M588.156 669.2C588.156 685.302 575.102 698.356 559 698.356C542.898 698.356 529.844 685.302 529.844 669.2C529.844 662.182 532.324 655.743 536.456 650.711C541.803 644.199 549.916 640.044 559 640.044C575.102 640.044 588.156 653.098 588.156 669.2Z" fill="black"/>
<path id="Vector (Stroke)" fill-rule="evenodd" clip-rule="evenodd" d="M558.999 618C558.999 618 559 618 559 620.844C559 618 559 618 559.001 618L559.022 618L559.075 618C559.12 618 559.184 618.001 559.267 618.002C559.432 618.003 559.671 618.007 559.973 618.013C560.577 618.026 561.434 618.052 562.464 618.104C564.515 618.206 567.285 618.413 570.101 618.831C572.877 619.243 575.879 619.887 578.304 620.933C580.516 621.887 583.363 623.667 583.726 626.93C584.216 631.342 584.454 638.129 584.659 643.972C584.743 646.35 584.821 648.572 584.908 650.414C588.74 655.689 591 662.181 591 669.2C591 686.873 576.673 701.2 559 701.2C541.327 701.2 527 686.873 527 669.2C527 661.841 529.487 655.056 533.665 649.649C534.037 643.111 534.866 633.091 535.551 626.93C535.904 623.746 538.558 621.946 540.716 620.958C543.033 619.898 545.888 619.249 548.512 618.835C551.175 618.414 553.791 618.207 555.727 618.104C556.698 618.052 557.508 618.026 558.078 618.013C558.363 618.007 558.589 618.003 558.746 618.002C558.824 618.001 558.885 618 558.928 618L558.978 618L558.999 618ZM539.767 643.623C545.12 639.592 551.781 637.2 559 637.2C566.555 637.2 573.498 639.818 578.973 644.197C578.968 644.063 578.963 643.929 578.959 643.794C578.759 638.078 578.539 631.763 578.072 627.559C578.071 627.554 578.07 627.536 578.046 627.493C578.017 627.441 577.949 627.34 577.799 627.198C577.481 626.897 576.922 626.532 576.051 626.156C574.303 625.402 571.875 624.846 569.265 624.458C566.695 624.076 564.123 623.883 562.179 623.785C561.212 623.737 560.409 623.713 559.851 623.701C559.572 623.695 559.355 623.692 559.21 623.69C559.137 623.69 559.082 623.689 559.047 623.689L559.009 623.689L559 623.689L558.993 623.689L558.958 623.689C558.925 623.689 558.874 623.69 558.807 623.69C558.671 623.692 558.469 623.695 558.208 623.701C557.687 623.713 556.935 623.737 556.029 623.785C554.209 623.882 551.802 624.075 549.399 624.454C546.956 624.84 544.7 625.391 543.084 626.131C541.309 626.943 541.207 627.542 541.205 627.559C540.728 631.847 540.178 638.071 539.767 643.623ZM559 642.889C550.803 642.889 543.484 646.634 538.654 652.516C534.925 657.058 532.689 662.864 532.689 669.2C532.689 683.731 544.469 695.511 559 695.511C573.531 695.511 585.311 683.731 585.311 669.2C585.311 654.669 573.531 642.889 559 642.889Z" fill="black"/>
</g>
<g id="Regular-S">
<path id="Vector_14" d="M1481.09 670.846C1481.09 689.038 1466.35 703.786 1448.15 703.786C1429.96 703.786 1415.21 689.038 1415.21 670.846C1415.21 662.917 1418.02 655.642 1422.68 649.957C1428.72 642.599 1437.89 637.906 1448.15 637.906C1466.35 637.906 1481.09 652.654 1481.09 670.846Z" fill="black"/>
<path id="Vector (Stroke)_2" fill-rule="evenodd" clip-rule="evenodd" d="M1448.15 613C1448.15 613 1448.15 613 1448.15 616.214C1448.15 613 1448.15 613 1448.16 613L1448.18 613L1448.24 613C1448.29 613.001 1448.36 613.001 1448.46 613.002C1448.64 613.004 1448.91 613.008 1449.25 613.015C1449.94 613.03 1450.9 613.059 1452.07 613.117C1454.38 613.233 1457.51 613.466 1460.7 613.939C1463.83 614.405 1467.22 615.131 1469.96 616.313C1472.46 617.392 1475.68 619.403 1476.09 623.09C1476.64 628.074 1476.91 635.742 1477.14 642.343C1477.24 645.03 1477.33 647.54 1477.42 649.621C1481.75 655.581 1484.31 662.916 1484.31 670.846C1484.31 690.813 1468.12 707 1448.15 707C1428.19 707 1412 690.813 1412 670.846C1412 662.532 1414.81 654.866 1419.53 648.758C1419.95 641.37 1420.89 630.05 1421.66 623.09C1422.06 619.492 1425.06 617.458 1427.5 616.342C1430.11 615.144 1433.34 614.411 1436.3 613.943C1439.31 613.468 1442.27 613.234 1444.46 613.118C1445.55 613.059 1446.47 613.03 1447.11 613.015C1447.43 613.008 1447.69 613.004 1447.87 613.002C1447.96 613.001 1448.02 613.001 1448.07 613L1448.13 613L1448.15 613ZM1426.42 641.949C1432.47 637.395 1440 634.692 1448.15 634.692C1456.69 634.692 1464.53 637.65 1470.72 642.597C1470.71 642.446 1470.71 642.295 1470.7 642.143C1470.48 635.684 1470.23 628.55 1469.7 623.799C1469.7 623.794 1469.7 623.774 1469.67 623.726C1469.64 623.667 1469.56 623.552 1469.39 623.392C1469.03 623.052 1468.4 622.64 1467.42 622.215C1465.44 621.363 1462.7 620.734 1459.75 620.296C1456.85 619.865 1453.94 619.646 1451.75 619.536C1450.65 619.482 1449.75 619.454 1449.11 619.441C1448.8 619.434 1448.55 619.431 1448.39 619.429C1448.31 619.428 1448.25 619.428 1448.21 619.428L1448.16 619.427L1448.15 619.427L1448.15 619.427L1448.11 619.428C1448.07 619.428 1448.01 619.428 1447.94 619.429C1447.78 619.431 1447.55 619.434 1447.26 619.441C1446.67 619.454 1445.82 619.481 1444.8 619.536C1442.74 619.645 1440.02 619.863 1437.31 620.292C1434.55 620.728 1432 621.351 1430.17 622.186C1428.17 623.104 1428.05 623.781 1428.05 623.799C1427.51 628.645 1426.89 635.676 1426.42 641.949ZM1448.15 641.12C1438.89 641.12 1430.62 645.35 1425.17 651.997C1420.95 657.128 1418.43 663.688 1418.43 670.846C1418.43 687.264 1431.74 700.573 1448.15 700.573C1464.57 700.573 1477.88 687.264 1477.88 670.846C1477.88 654.429 1464.57 641.12 1448.15 641.12Z" fill="black"/>
</g>
<g id="Black-S">
<path id="Vector_15" d="M2967.67 671C2967.67 689.87 2952.37 705.167 2933.5 705.167C2914.63 705.167 2899.33 689.87 2899.33 671C2899.33 662.776 2902.24 655.23 2907.08 649.333C2913.35 641.702 2922.86 636.833 2933.5 636.833C2952.37 636.833 2967.67 652.13 2967.67 671Z" fill="black"/>
<path id="Vector (Stroke)_3" fill-rule="evenodd" clip-rule="evenodd" d="M2933.5 611C2933.5 611 2933.5 611 2933.5 614.333C2933.5 611 2933.5 611 2933.5 611L2933.53 611L2933.59 611C2933.64 611.001 2933.72 611.001 2933.81 611.002C2934.01 611.004 2934.29 611.008 2934.64 611.015C2935.35 611.031 2936.35 611.061 2937.56 611.121C2939.96 611.242 2943.21 611.484 2946.51 611.974C2949.76 612.457 2953.28 613.211 2956.12 614.437C2958.71 615.555 2962.05 617.641 2962.48 621.465C2963.05 626.635 2963.33 634.588 2963.57 641.436C2963.67 644.223 2963.76 646.826 2963.86 648.985C2968.35 655.167 2971 662.774 2971 671C2971 691.711 2954.21 708.5 2933.5 708.5C2912.79 708.5 2896 691.711 2896 671C2896 662.376 2898.92 654.425 2903.81 648.089C2904.25 640.426 2905.22 628.685 2906.02 621.465C2906.43 617.734 2909.54 615.624 2912.07 614.466C2914.79 613.224 2918.13 612.464 2921.21 611.978C2924.33 611.485 2927.4 611.243 2929.66 611.122C2930.8 611.061 2931.75 611.031 2932.42 611.016C2932.75 611.008 2933.02 611.004 2933.2 611.002C2933.29 611.001 2933.37 611.001 2933.42 611L2933.47 611L2933.5 611ZM2910.96 641.027C2917.23 636.303 2925.04 633.5 2933.5 633.5C2942.35 633.5 2950.49 636.568 2956.91 641.699C2956.9 641.542 2956.89 641.385 2956.89 641.228C2956.66 634.529 2956.4 627.129 2955.85 622.201C2955.85 622.196 2955.85 622.175 2955.82 622.125C2955.79 622.064 2955.71 621.945 2955.53 621.779C2955.16 621.427 2954.5 620.999 2953.48 620.558C2951.43 619.675 2948.59 619.022 2945.53 618.568C2942.52 618.121 2939.5 617.894 2937.23 617.78C2936.09 617.723 2935.15 617.695 2934.5 617.681C2934.17 617.674 2933.92 617.67 2933.75 617.668C2933.66 617.667 2933.6 617.667 2933.56 617.667L2933.51 617.667L2933.5 617.667L2933.49 617.667L2933.45 617.667C2933.41 617.667 2933.35 617.667 2933.27 617.668C2933.11 617.67 2932.88 617.673 2932.57 617.68C2931.96 617.694 2931.08 617.723 2930.02 617.779C2927.89 617.893 2925.07 618.119 2922.25 618.563C2919.39 619.015 2916.74 619.662 2914.85 620.528C2912.77 621.48 2912.65 622.183 2912.65 622.201C2912.09 627.227 2911.44 634.52 2910.96 641.027ZM2933.5 640.167C2923.89 640.167 2915.32 644.555 2909.66 651.449C2905.29 656.771 2902.67 663.575 2902.67 671C2902.67 688.029 2916.47 701.833 2933.5 701.833C2950.53 701.833 2964.33 688.029 2964.33 671C2964.33 653.971 2950.53 640.167 2933.5 640.167Z" fill="black"/>
</g>
</g>
<defs>
<clipPath id="clip0_12_384">
<rect width="3300" height="2200" fill="white"/>
</clipPath>
</defs>
</svg>
