<svg width="3300" height="2200" viewBox="0 0 3300 2200" fill="none" xmlns="http://www.w3.org/2000/svg">
<g id="band" clip-path="url(#clip0_12_517)">
<g id="Notes">
<path id="artboard" d="M3302 0H2V2200H3302V0Z" fill="white"/>
<path id="Vector" d="M265 292H3038" stroke="black" stroke-width="0.5"/>
<text id="Weight/Scale Variations" fill="black" xml:space="preserve" style="white-space: pre" font-family="Inter" font-size="13" font-weight="bold" letter-spacing="0em"><tspan x="265" y="321.727">Weight/Scale Variations</tspan></text>
<text id="Ultralight" fill="black" xml:space="preserve" style="white-space: pre" font-family="Inter" font-size="13" letter-spacing="0em"><tspan x="533.661" y="321.727">Ultralight</tspan></text>
<text id="Thin" fill="black" xml:space="preserve" style="white-space: pre" font-family="Inter" font-size="13" letter-spacing="0em"><tspan x="845.066" y="321.727">Thin</tspan></text>
<text id="Light" fill="black" xml:space="preserve" style="white-space: pre" font-family="Inter" font-size="13" letter-spacing="0em"><tspan x="1139.77" y="321.727">Light</tspan></text>
<text id="Regular" fill="black" xml:space="preserve" style="white-space: pre" font-family="Inter" font-size="13" letter-spacing="0em"><tspan x="1428.58" y="321.727">Regular</tspan></text>
<text id="Medium" fill="black" xml:space="preserve" style="white-space: pre" font-family="Inter" font-size="13" letter-spacing="0em"><tspan x="1723.99" y="321.727">Medium</tspan></text>
<text id="Semibold" fill="black" xml:space="preserve" style="white-space: pre" font-family="Inter" font-size="13" letter-spacing="0em"><tspan x="2016.65" y="321.727">Semibold</tspan></text>
<text id="Bold" fill="black" xml:space="preserve" style="white-space: pre" font-family="Inter" font-size="13" letter-spacing="0em"><tspan x="2328.29" y="321.727">Bold</tspan></text>
<text id="Heavy" fill="black" xml:space="preserve" style="white-space: pre" font-family="Inter" font-size="13" letter-spacing="0em"><tspan x="2619.32" y="321.727">Heavy</tspan></text>
<text id="Black" fill="black" xml:space="preserve" style="white-space: pre" font-family="Inter" font-size="13" letter-spacing="0em"><tspan x="2918.8" y="321.727">Black</tspan></text>
<path id="Vector_2" d="M265 1903H3038" stroke="black" stroke-width="0.5"/>
<g id="Group">
<path id="Vector_3" d="M274.248 1933.83C278.604 1933.83 282.139 1930.3 282.139 1925.95C282.139 1921.59 278.604 1918.07 274.248 1918.07C269.902 1918.07 266.367 1921.59 266.367 1925.95C266.367 1930.3 269.902 1933.83 274.248 1933.83ZM274.248 1932.35C270.713 1932.35 267.861 1929.48 267.861 1925.95C267.861 1922.41 270.713 1919.55 274.248 1919.55C277.783 1919.55 280.645 1922.41 280.645 1925.95C280.645 1929.48 277.783 1932.35 274.248 1932.35ZM270.654 1925.95C270.654 1926.38 270.957 1926.67 271.406 1926.67H273.506V1928.79C273.506 1929.23 273.799 1929.53 274.228 1929.53C274.678 1929.53 274.971 1929.23 274.971 1928.79V1926.67H277.09C277.529 1926.67 277.832 1926.38 277.832 1925.95C277.832 1925.51 277.529 1925.21 277.09 1925.21H274.971V1923.1C274.971 1922.65 274.678 1922.35 274.228 1922.35C273.799 1922.35 273.506 1922.65 273.506 1923.1V1925.21H271.406C270.957 1925.21 270.654 1925.51 270.654 1925.95Z" fill="black"/>
</g>
<g id="Group_2">
<path id="Vector_4" d="M295.215 1935.91C300.713 1935.91 305.176 1931.45 305.176 1925.95C305.176 1920.45 300.713 1915.99 295.215 1915.99C289.717 1915.99 285.254 1920.45 285.254 1925.95C285.254 1931.45 289.717 1935.91 295.215 1935.91ZM295.215 1934.25C290.625 1934.25 286.914 1930.54 286.914 1925.95C286.914 1921.36 290.625 1917.65 295.215 1917.65C299.805 1917.65 303.516 1921.36 303.516 1925.95C303.516 1930.54 299.805 1934.25 295.215 1934.25ZM290.684 1925.95C290.684 1926.43 291.016 1926.75 291.514 1926.75H294.385V1929.63C294.385 1930.12 294.717 1930.46 295.195 1930.46C295.684 1930.46 296.025 1930.13 296.025 1929.63V1926.75H298.906C299.395 1926.75 299.736 1926.43 299.736 1925.95C299.736 1925.46 299.395 1925.12 298.906 1925.12H296.025V1922.25C296.025 1921.75 295.684 1921.41 295.195 1921.41C294.717 1921.41 294.385 1921.75 294.385 1922.25V1925.12H291.514C291.016 1925.12 290.684 1925.46 290.684 1925.95Z" fill="black"/>
</g>
<g id="Group_3">
<path id="Vector_5" d="M321.895 1938.66C328.916 1938.66 334.619 1932.97 334.619 1925.95C334.619 1918.93 328.916 1913.22 321.895 1913.22C314.873 1913.22 309.18 1918.93 309.18 1925.95C309.18 1932.97 314.873 1938.66 321.895 1938.66ZM321.895 1936.85C315.869 1936.85 310.996 1931.97 310.996 1925.95C310.996 1919.92 315.869 1915.05 321.895 1915.05C327.92 1915.05 332.793 1919.92 332.793 1925.95C332.793 1931.97 327.92 1936.85 321.895 1936.85ZM316.123 1925.95C316.123 1926.47 316.494 1926.83 317.041 1926.83H320.987V1930.78C320.987 1931.32 321.358 1931.7 321.875 1931.7C322.412 1931.7 322.783 1931.33 322.783 1930.78V1926.83H326.739C327.276 1926.83 327.657 1926.47 327.657 1925.95C327.657 1925.4 327.285 1925.03 326.739 1925.03H322.783V1921.09C322.783 1920.54 322.412 1920.16 321.875 1920.16C321.358 1920.16 320.987 1920.54 320.987 1921.09V1925.03H317.041C316.494 1925.03 316.123 1925.4 316.123 1925.95Z" fill="black"/>
</g>
<text id="Design Variations" fill="black" xml:space="preserve" style="white-space: pre" font-family="Inter" font-size="13" font-weight="bold" letter-spacing="0em"><tspan x="265" y="1952.73">Design Variations</tspan></text>
<text id="Symbols are supported in up to nine weights and three scales." fill="black" xml:space="preserve" style="white-space: pre" font-family="Inter" font-size="13" letter-spacing="0em"><tspan x="265" y="1970.73">Symbols are supported in up to nine weights and three scales.</tspan></text>
<text id="For optimal layout with text and other symbols, vertically align" fill="black" xml:space="preserve" style="white-space: pre" font-family="Inter" font-size="13" letter-spacing="0em"><tspan x="265" y="1988.73">For optimal layout with text and other symbols, vertically align</tspan></text>
<text id="symbols with the adjacent text." fill="black" xml:space="preserve" style="white-space: pre" font-family="Inter" font-size="13" letter-spacing="0em"><tspan x="265" y="2006.73">symbols with the adjacent text.</tspan></text>
<path id="Vector_6" d="M778 1919V1933" stroke="#00AEEF" stroke-width="0.5"/>
<g id="Group_4">
<path id="Vector_7" d="M781.311 1933.16C781.828 1933.16 782.082 1932.96 782.268 1932.41L783.527 1928.97H789.289L790.549 1932.41C790.734 1932.96 790.988 1933.16 791.496 1933.16C792.014 1933.16 792.346 1932.84 792.346 1932.36C792.346 1932.19 792.316 1932.03 792.238 1931.83L787.658 1919.63C787.434 1919.04 787.033 1918.73 786.408 1918.73C785.803 1918.73 785.393 1919.03 785.178 1919.62L780.598 1931.84C780.52 1932.04 780.49 1932.2 780.49 1932.37C780.49 1932.85 780.803 1933.16 781.311 1933.16ZM784.006 1927.48L786.379 1920.91H786.428L788.801 1927.48H784.006Z" fill="black"/>
</g>
<path id="Vector_8" d="M794.836 1919V1933" stroke="#00AEEF" stroke-width="0.5"/>
<text id="Margins" fill="black" xml:space="preserve" style="white-space: pre" font-family="Inter" font-size="13" font-weight="bold" letter-spacing="0em"><tspan x="778" y="1952.73">Margins</tspan></text>
<text id="Leading and trailing margins on the left and right side of each symbol" fill="black" xml:space="preserve" style="white-space: pre" font-family="Inter" font-size="13" letter-spacing="0em"><tspan x="778" y="1970.73">Leading and trailing margins on the left and right side of each symbol</tspan></text>
<text id="can be adjusted by modifying the x-location of the margin guidelines." fill="black" xml:space="preserve" style="white-space: pre" font-family="Inter" font-size="13" letter-spacing="0em"><tspan x="778" y="1988.73">can be adjusted by modifying the x-location of the margin guidelines.</tspan></text>
<text id="Modifications are automatically applied proportionally to all" fill="black" xml:space="preserve" style="white-space: pre" font-family="Inter" font-size="13" letter-spacing="0em"><tspan x="778" y="2006.73">Modifications are automatically applied proportionally to all</tspan></text>
<text id="scales and weights." fill="black" xml:space="preserve" style="white-space: pre" font-family="Inter" font-size="13" letter-spacing="0em"><tspan x="778" y="2024.73">scales and weights.</tspan></text>
<g id="Group_5">
<path id="Vector_9" d="M1293.84 1934.87L1295.54 1936.57C1296.4 1937.44 1297.39 1937.38 1298.31 1936.36L1309.01 1924.57L1308.04 1923.6L1297.43 1935.28C1297.07 1935.68 1296.74 1935.77 1296.27 1935.3L1295.1 1934.14C1294.63 1933.68 1294.74 1933.34 1295.14 1932.98L1306.62 1922.18L1305.64 1921.21L1294.05 1932.1C1293.06 1933.02 1292.98 1934 1293.84 1934.87ZM1300.26 1916.67C1299.84 1917.08 1299.81 1917.66 1300.04 1918.05C1300.28 1918.41 1300.74 1918.64 1301.38 1918.48C1302.85 1918.14 1304.37 1918.08 1305.79 1919.02L1305.21 1920.47C1304.87 1921.3 1305.04 1921.89 1305.58 1922.43L1307.87 1924.75C1308.36 1925.24 1308.77 1925.26 1309.34 1925.16L1310.4 1924.96L1311.07 1925.64L1311.03 1926.19C1310.99 1926.69 1311.12 1927.07 1311.61 1927.55L1312.37 1928.29C1312.85 1928.77 1313.46 1928.8 1313.93 1928.33L1316.84 1925.41C1317.31 1924.94 1317.29 1924.35 1316.81 1923.87L1316.04 1923.11C1315.56 1922.63 1315.19 1922.47 1314.71 1922.51L1314.13 1922.56L1313.49 1921.93L1313.73 1920.8C1313.86 1920.24 1313.71 1919.8 1313.12 1919.21L1310.92 1917.02C1307.58 1913.7 1303.15 1913.78 1300.26 1916.67ZM1301.75 1917.04C1304.18 1915.27 1307.47 1915.57 1309.7 1917.79L1312.13 1920.21C1312.37 1920.44 1312.41 1920.63 1312.34 1920.97L1312.02 1922.45L1313.52 1923.94L1314.51 1923.88C1314.76 1923.87 1314.84 1923.89 1315.03 1924.08L1315.61 1924.66L1313.17 1927.1L1312.59 1926.53C1312.4 1926.33 1312.37 1926.25 1312.38 1925.99L1312.45 1925.01L1310.95 1923.53L1309.43 1923.78C1309.11 1923.85 1308.96 1923.82 1308.71 1923.59L1306.71 1921.58C1306.46 1921.35 1306.43 1921.18 1306.59 1920.81L1307.46 1918.72C1305.9 1917.27 1303.87 1916.64 1301.84 1917.24C1301.68 1917.28 1301.62 1917.15 1301.75 1917.04Z" fill="black"/>
</g>
<text id="Exporting" fill="black" xml:space="preserve" style="white-space: pre" font-family="Inter" font-size="13" font-weight="bold" letter-spacing="0em"><tspan x="1291" y="1952.73">Exporting</tspan></text>
<text id="Symbols should be outlined when exporting to ensure the" fill="black" xml:space="preserve" style="white-space: pre" font-family="Inter" font-size="13" letter-spacing="0em"><tspan x="1291" y="1970.73">Symbols should be outlined when exporting to ensure the</tspan></text>
<text id="design is preserved when submitting to Xcode." fill="black" xml:space="preserve" style="white-space: pre" font-family="Inter" font-size="13" letter-spacing="0em"><tspan x="1291" y="1988.73">design is preserved when submitting to Xcode.</tspan></text>
<text id="template-version" fill="black" xml:space="preserve" style="white-space: pre" font-family="Inter" font-size="13" letter-spacing="0em"><tspan x="2948.51" y="1932.73">Template v.5.0</tspan></text>
<text id="Requires Xcode 15 or greater" fill="black" xml:space="preserve" style="white-space: pre" font-family="Inter" font-size="13" letter-spacing="0em"><tspan x="2860.37" y="1950.73">Requires Xcode 15 or greater</tspan></text>
<text id="descriptive-name" fill="black" xml:space="preserve" style="white-space: pre" font-family="Inter" font-size="13" letter-spacing="0em"><tspan x="2814.26" y="1968.73">Generated from custom.dumbbell.fill</tspan></text>
<text id="Typeset at 100.0 points" fill="black" xml:space="preserve" style="white-space: pre" font-family="Inter" font-size="13" letter-spacing="0em"><tspan x="2894.56" y="1986.73">Typeset at 100.0 points</tspan></text>
<text id="Small" fill="black" xml:space="preserve" style="white-space: pre" font-family="Inter" font-size="13" letter-spacing="0em"><tspan x="265" y="725.727">Small</tspan></text>
<text id="Medium_2" fill="black" xml:space="preserve" style="white-space: pre" font-family="Inter" font-size="13" letter-spacing="0em"><tspan x="265" y="1155.73">Medium</tspan></text>
<text id="Large" fill="black" xml:space="preserve" style="white-space: pre" font-family="Inter" font-size="13" letter-spacing="0em"><tspan x="265" y="1585.73">Large</tspan></text>
</g>
<g id="Guides">
<g id="H-reference">
<path id="Vector_10" d="M339.994 696H342.638L368.328 628.868H369.03V625.541H367.123L339.994 696ZM350.688 671.52H385.981L385.231 669.272H351.438L350.688 671.52ZM394.12 696H396.764L369.638 625.541H368.433V628.868L394.12 696Z" fill="#27AAE1"/>
</g>
<path id="Baseline-S" d="M263 696H3036" stroke="#27AAE1" stroke-width="0.5"/>
<path id="Capline-S" d="M263 625.541H3036" stroke="#27AAE1" stroke-width="0.5"/>
<g id="H-reference_2">
<path id="Vector_11" d="M339.994 1126H342.638L368.328 1058.87H369.03V1055.54H367.123L339.994 1126ZM350.688 1101.52H385.981L385.231 1099.27H351.438L350.688 1101.52ZM394.12 1126H396.764L369.638 1055.54H368.433V1058.87L394.12 1126Z" fill="#27AAE1"/>
</g>
<path id="Baseline-M" d="M263 1126H3036" stroke="#27AAE1" stroke-width="0.5"/>
<path id="Capline-M" d="M263 1055.54H3036" stroke="#27AAE1" stroke-width="0.5"/>
<g id="H-reference_3">
<path id="Vector_12" d="M339.994 1556H342.638L368.328 1488.87H369.03V1485.54H367.123L339.994 1556ZM350.688 1531.52H385.981L385.231 1529.27H351.438L350.688 1531.52ZM394.12 1556H396.764L369.638 1485.54H368.433V1488.87L394.12 1556Z" fill="#27AAE1"/>
</g>
<path id="Baseline-L" d="M263 1556H3036" stroke="#27AAE1" stroke-width="0.5"/>
<path id="Capline-L" d="M263 1485.54H3036" stroke="#27AAE1" stroke-width="0.5"/>
<path id="right-margin-Black-S" d="M3005.01 600.785V720.121" stroke="#00AEEF" stroke-width="0.5"/>
<path id="left-margin-Black-S" d="M2861.79 600.785V720.121" stroke="#00AEEF" stroke-width="0.5"/>
<path id="right-margin-Regular-S" d="M1510.05 600.785V720.121" stroke="#00AEEF" stroke-width="0.5"/>
<path id="left-margin-Regular-S" d="M1389.64 600.785V720.121" stroke="#00AEEF" stroke-width="0.5"/>
<path id="right-margin-Ultralight-S" d="M608.655 600.785V720.121" stroke="#00AEEF" stroke-width="0.5"/>
<path id="left-margin-Ultralight-S" d="M510.768 600.785V720.121" stroke="#00AEEF" stroke-width="0.5"/>
</g>
<g id="Ultralight-S">
<g id="Vector_13">
<path d="M605.603 667.952C609.917 671.65 607.452 655.936 605.603 652.546C603.754 649.157 581.744 651.386 558.768 650.871H535.967C535.967 650.871 517.178 654.692 512.858 650.871C508.539 647.05 512.856 664.45 514.707 667.952H583.11C583.11 667.952 601.289 664.255 605.603 667.952Z" fill="black"/>
<path d="M600.852 669.371C591.609 668.139 582.981 670.467 584.522 670.843C586.063 671.22 592.841 673.616 598.696 673C604.55 672.384 610.096 670.603 600.852 669.371Z" fill="black"/>
<path d="M517.784 646.528C527.028 645.295 534.427 647.096 534.115 648C533.803 648.904 525.796 650.773 519.941 650.157C514.087 649.541 508.541 647.76 517.784 646.528Z" fill="black"/>
</g>
<path id="Vector (Stroke)" fill-rule="evenodd" clip-rule="evenodd" d="M534.345 647.657C534.42 647.776 534.464 647.933 534.406 648.1C534.359 648.237 534.257 648.342 534.164 648.418C534.064 648.5 533.94 648.577 533.799 648.651C533.518 648.798 533.139 648.949 532.688 649.098C531.785 649.396 530.557 649.699 529.161 649.952C526.372 650.458 522.875 650.776 519.909 650.463C518.436 650.308 516.979 650.08 515.766 649.804C514.569 649.531 513.56 649.202 513.024 648.826C512.768 648.646 512.507 648.375 512.556 648.014C512.601 647.673 512.906 647.433 513.259 647.254C513.999 646.877 515.435 646.53 517.744 646.222C522.394 645.602 526.582 645.745 529.575 646.157C531.07 646.364 532.276 646.638 533.096 646.924C533.503 647.066 533.833 647.217 534.058 647.374C534.17 647.452 534.275 647.545 534.345 647.657ZM529.491 646.768C526.551 646.362 522.418 646.221 517.825 646.833C515.512 647.142 514.174 647.48 513.538 647.803C513.202 647.973 513.168 648.087 513.166 648.096C513.166 648.097 513.166 648.099 513.167 648.105C513.169 648.111 513.174 648.125 513.188 648.145C513.217 648.189 513.275 648.249 513.378 648.321C513.804 648.621 514.702 648.929 515.903 649.203C517.087 649.472 518.519 649.697 519.973 649.85C522.861 650.154 526.295 649.846 529.051 649.346C530.428 649.096 531.627 648.8 532.495 648.513C532.931 648.369 533.274 648.23 533.513 648.105C533.633 648.042 533.718 647.987 533.773 647.942C533.775 647.94 533.777 647.938 533.779 647.937C533.761 647.921 533.737 647.901 533.705 647.879C533.549 647.77 533.281 647.641 532.893 647.506C532.125 647.239 530.962 646.971 529.491 646.768ZM514.896 667.644H583.079L583.102 667.64C583.137 667.633 583.189 667.622 583.256 667.609C583.391 667.583 583.59 667.545 583.843 667.498C584.351 667.404 585.08 667.273 585.968 667.128C587.745 666.839 590.159 666.491 592.711 666.259C595.26 666.027 597.956 665.91 600.292 666.085C601.459 666.173 602.545 666.334 603.48 666.594C604.413 666.853 605.217 667.216 605.803 667.718C606.325 668.165 606.655 668.237 606.845 668.191C607.028 668.147 607.228 667.957 607.391 667.481C607.715 666.542 607.761 664.876 607.607 662.931C607.454 661.003 607.11 658.85 606.689 656.971C606.266 655.081 605.772 653.5 605.332 652.694C605.162 652.381 604.718 652.076 603.908 651.816C603.114 651.561 602.037 651.371 600.704 651.234C598.041 650.96 594.413 650.904 590.11 650.939C587.459 650.96 584.553 651.016 581.464 651.075C574.545 651.207 566.71 651.357 558.765 651.179H535.998L535.973 651.184C535.937 651.191 535.884 651.202 535.814 651.215C535.675 651.243 535.47 651.282 535.208 651.331C534.684 651.428 533.931 651.563 533.014 651.712C531.18 652.012 528.689 652.371 526.061 652.611C523.434 652.85 520.661 652.971 518.268 652.79C517.071 652.7 515.961 652.533 515.008 652.265C514.057 651.997 513.242 651.622 512.654 651.102C512.398 650.875 512.192 650.744 512.033 650.681C511.877 650.619 511.788 650.63 511.736 650.65C511.682 650.672 511.612 650.728 511.541 650.868C511.469 651.009 511.41 651.212 511.369 651.482C511.204 652.574 511.386 654.455 511.772 656.611C512.155 658.754 512.73 661.127 513.325 663.183C513.886 665.121 514.458 666.753 514.896 667.644ZM535.967 650.871L535.906 650.569L535.936 650.563H558.775C566.708 650.741 574.521 650.591 581.435 650.459C584.528 650.4 587.442 650.344 590.106 650.323C594.409 650.288 598.066 650.343 600.767 650.621C602.117 650.759 603.243 650.955 604.096 651.229C604.934 651.498 605.582 651.864 605.873 652.399C606.358 653.287 606.866 654.942 607.29 656.836C607.716 658.74 608.066 660.921 608.221 662.883C608.375 664.827 608.344 666.609 607.974 667.682C607.791 668.213 607.49 668.67 606.989 668.791C606.496 668.909 605.959 668.664 605.402 668.186C604.911 667.765 604.202 667.434 603.315 667.188C602.431 666.942 601.389 666.785 600.245 666.7C597.959 666.528 595.301 666.642 592.767 666.873C590.234 667.103 587.835 667.448 586.067 667.737C585.184 667.881 584.459 668.01 583.956 668.104C583.704 668.15 583.507 668.188 583.374 668.214C583.307 668.227 583.257 668.237 583.222 668.244L583.184 668.252L583.172 668.254C583.172 668.254 583.171 668.254 583.11 667.952L583.172 668.254L583.141 668.26H514.521L514.434 668.096C513.955 667.19 513.331 665.419 512.734 663.354C512.133 661.282 511.553 658.887 511.165 656.72C510.78 654.566 510.577 652.594 510.76 651.389C510.806 651.085 510.879 650.811 510.991 650.589C511.104 650.366 511.269 650.174 511.507 650.078C511.747 649.982 512.006 650.007 512.26 650.108C512.512 650.208 512.778 650.389 513.062 650.64C513.554 651.075 514.271 651.417 515.175 651.671C516.076 651.925 517.142 652.087 518.314 652.176C520.659 652.353 523.393 652.235 526.005 651.997C528.614 651.759 531.09 651.402 532.914 651.104C533.826 650.955 534.575 650.821 535.095 650.725C535.355 650.676 535.558 650.637 535.696 650.611C535.765 650.597 535.818 650.587 535.853 650.58L535.893 650.572L535.906 650.569C535.906 650.569 535.906 650.569 535.967 650.871ZM585.002 670.653C585.192 670.706 585.414 670.771 585.665 670.845C588.217 671.59 593.766 673.209 598.663 672.694C600.118 672.54 601.55 672.315 602.734 672.046C603.935 671.773 604.832 671.464 605.259 671.164C605.361 671.092 605.42 671.032 605.449 670.989C605.462 670.968 605.467 670.955 605.469 670.948C605.47 670.944 605.47 670.942 605.47 670.941C605.47 670.94 605.47 670.94 605.47 670.939C605.469 670.93 605.434 670.817 605.099 670.646C604.462 670.323 603.125 669.985 600.812 669.676C596.225 669.065 591.787 669.337 588.689 669.808C587.139 670.044 585.936 670.329 585.223 670.572C585.142 670.6 585.069 670.627 585.002 670.653ZM588.597 669.199C591.739 668.721 596.236 668.445 600.893 669.066C603.202 669.373 604.637 669.72 605.378 670.097C605.731 670.276 606.035 670.516 606.081 670.858C606.129 671.218 605.868 671.489 605.613 671.669C605.076 672.046 604.067 672.374 602.871 672.647C601.657 672.923 600.2 673.151 598.728 673.306C593.686 673.837 587.963 672.161 585.452 671.425C585.012 671.297 584.671 671.197 584.449 671.142C584.386 671.127 584.321 671.106 584.261 671.073C584.204 671.043 584.125 670.987 584.076 670.892C584.02 670.782 584.026 670.667 584.063 670.574C584.096 670.493 584.151 670.433 584.194 670.394C584.282 670.314 584.404 670.244 584.533 670.183C584.668 670.12 584.833 670.055 585.024 669.989C585.785 669.729 587.027 669.438 588.597 669.199Z" fill="black"/>
</g>
<g id="Regular-S">
<g id="Vector_14">
<path d="M1514.66 671.399C1520.67 676.545 1517.24 654.674 1514.66 649.957C1512.09 645.24 1481.46 648.343 1449.48 647.626H1417.75C1417.75 647.626 1391.6 652.944 1385.59 647.626C1379.57 642.308 1385.58 666.524 1388.16 671.399H1483.36C1483.36 671.399 1508.66 666.253 1514.66 671.399Z" fill="black"/>
<path d="M1508.05 673.373C1495.19 671.658 1483.18 674.898 1485.32 675.422C1487.47 675.946 1496.9 679.282 1505.05 678.424C1513.2 677.566 1520.92 675.089 1508.05 673.373Z" fill="black"/>
<path d="M1392.44 641.581C1405.31 639.866 1415.6 642.371 1415.17 643.63C1414.74 644.889 1403.59 647.49 1395.44 646.632C1387.3 645.774 1379.58 643.297 1392.44 641.581Z" fill="black"/>
</g>
<path id="Vector (Stroke)_2" fill-rule="evenodd" clip-rule="evenodd" d="M1415.49 643.153C1415.59 643.318 1415.66 643.537 1415.58 643.77C1415.51 643.96 1415.37 644.106 1415.24 644.212C1415.1 644.326 1414.93 644.433 1414.73 644.535C1414.34 644.741 1413.81 644.951 1413.19 645.158C1411.93 645.573 1410.22 645.994 1408.28 646.347C1404.39 647.051 1399.53 647.493 1395.4 647.058C1393.35 646.843 1391.32 646.525 1389.63 646.14C1387.97 645.761 1386.56 645.304 1385.82 644.779C1385.46 644.529 1385.1 644.152 1385.17 643.65C1385.23 643.175 1385.65 642.841 1386.14 642.591C1387.17 642.067 1389.17 641.585 1392.39 641.156C1398.86 640.293 1404.69 640.491 1408.85 641.066C1410.93 641.353 1412.61 641.735 1413.75 642.133C1414.32 642.33 1414.78 642.54 1415.09 642.759C1415.25 642.868 1415.39 642.997 1415.49 643.153ZM1408.73 641.915C1404.64 641.351 1398.89 641.154 1392.5 642.006C1389.28 642.436 1387.42 642.906 1386.53 643.356C1386.07 643.593 1386.02 643.751 1386.02 643.764C1386.01 643.765 1386.01 643.768 1386.02 643.776C1386.02 643.785 1386.03 643.804 1386.05 643.832C1386.09 643.893 1386.17 643.977 1386.31 644.077C1386.9 644.494 1388.15 644.924 1389.82 645.304C1391.47 645.679 1393.46 645.992 1395.49 646.205C1399.51 646.629 1404.29 646.199 1408.12 645.503C1410.04 645.155 1411.71 644.743 1412.92 644.344C1413.52 644.143 1414 643.95 1414.33 643.776C1414.5 643.688 1414.62 643.612 1414.69 643.549C1414.7 643.547 1414.7 643.544 1414.7 643.542C1414.68 643.52 1414.64 643.493 1414.6 643.462C1414.38 643.31 1414.01 643.131 1413.47 642.943C1412.4 642.57 1410.78 642.198 1408.73 641.915ZM1388.42 670.97H1483.32L1483.35 670.964C1483.4 670.954 1483.47 670.94 1483.56 670.921C1483.75 670.885 1484.03 670.832 1484.38 670.766C1485.09 670.635 1486.1 670.454 1487.34 670.252C1489.81 669.849 1493.17 669.365 1496.72 669.042C1500.27 668.719 1504.02 668.556 1507.27 668.8C1508.9 668.922 1510.41 669.146 1511.71 669.508C1513.01 669.869 1514.13 670.373 1514.94 671.073C1515.67 671.695 1516.13 671.795 1516.39 671.732C1516.65 671.67 1516.93 671.405 1517.15 670.743C1517.6 669.436 1517.67 667.118 1517.45 664.411C1517.24 661.726 1516.76 658.731 1516.18 656.115C1515.59 653.485 1514.9 651.285 1514.29 650.163C1514.05 649.727 1513.43 649.302 1512.3 648.941C1511.2 648.586 1509.7 648.321 1507.85 648.13C1504.14 647.749 1499.09 647.672 1493.1 647.72C1489.41 647.75 1485.37 647.828 1481.07 647.91C1471.44 648.094 1460.53 648.303 1449.48 648.055H1417.79L1417.76 648.061C1417.71 648.071 1417.63 648.086 1417.54 648.105C1417.34 648.143 1417.06 648.198 1416.69 648.266C1415.96 648.401 1414.91 648.589 1413.64 648.797C1411.09 649.213 1407.62 649.713 1403.96 650.047C1400.31 650.38 1396.45 650.549 1393.12 650.297C1391.45 650.171 1389.9 649.939 1388.58 649.565C1387.26 649.193 1386.12 648.671 1385.3 647.947C1384.95 647.632 1384.66 647.45 1384.44 647.361C1384.22 647.275 1384.1 647.29 1384.02 647.319C1383.95 647.349 1383.85 647.426 1383.75 647.621C1383.65 647.817 1383.57 648.1 1383.51 648.476C1383.28 649.996 1383.54 652.613 1384.07 655.615C1384.61 658.597 1385.41 661.9 1386.24 664.761C1387.02 667.458 1387.81 669.729 1388.42 670.97ZM1417.75 647.626L1417.66 647.206L1417.71 647.197H1449.49C1460.53 647.445 1471.41 647.237 1481.03 647.053C1485.33 646.97 1489.39 646.893 1493.1 646.863C1499.08 646.815 1504.17 646.891 1507.93 647.277C1509.81 647.47 1511.38 647.743 1512.57 648.124C1513.73 648.498 1514.63 649.008 1515.04 649.752C1515.71 650.988 1516.42 653.291 1517.01 655.928C1517.61 658.578 1518.09 661.613 1518.31 664.343C1518.52 667.05 1518.48 669.529 1517.96 671.023C1517.71 671.761 1517.29 672.397 1516.59 672.565C1515.91 672.731 1515.16 672.389 1514.38 671.724C1513.7 671.138 1512.71 670.677 1511.48 670.335C1510.25 669.993 1508.8 669.775 1507.21 669.656C1504.03 669.417 1500.33 669.575 1496.8 669.896C1493.27 670.217 1489.93 670.697 1487.48 671.098C1486.25 671.299 1485.24 671.479 1484.54 671.609C1484.19 671.674 1483.91 671.727 1483.73 671.763C1483.67 671.774 1483.62 671.783 1483.58 671.791C1483.56 671.796 1483.54 671.801 1483.52 671.805L1483.46 671.816L1483.45 671.819C1483.45 671.819 1483.44 671.819 1483.41 671.648L1483.45 671.819L1483.4 671.828H1387.9L1387.78 671.599C1387.11 670.338 1386.24 667.873 1385.41 664.999C1384.58 662.115 1383.77 658.782 1383.23 655.766C1382.69 652.768 1382.41 650.024 1382.67 648.347C1382.73 647.924 1382.83 647.542 1382.99 647.233C1383.14 646.923 1383.37 646.655 1383.71 646.523C1384.04 646.388 1384.4 646.424 1384.75 646.564C1385.1 646.703 1385.48 646.955 1385.87 647.305C1386.55 647.91 1387.55 648.385 1388.81 648.74C1390.06 649.093 1391.55 649.318 1393.18 649.442C1396.44 649.688 1400.25 649.524 1403.88 649.193C1407.51 648.862 1410.96 648.365 1413.5 647.95C1414.77 647.743 1415.81 647.557 1416.53 647.422C1416.9 647.355 1417.18 647.301 1417.37 647.263C1417.47 647.245 1417.54 647.23 1417.59 647.22L1417.64 647.209L1417.66 647.206C1417.66 647.206 1417.66 647.206 1417.75 647.626ZM1485.99 675.157C1486.26 675.232 1486.57 675.322 1486.92 675.424C1490.47 676.461 1498.19 678.715 1505.01 677.997C1507.03 677.784 1509.02 677.471 1510.67 677.096C1512.34 676.716 1513.59 676.286 1514.18 675.869C1514.33 675.769 1514.41 675.685 1514.45 675.624C1514.47 675.596 1514.48 675.577 1514.48 675.568C1514.48 675.56 1514.48 675.557 1514.48 675.556C1514.48 675.543 1514.43 675.385 1513.96 675.148C1513.08 674.698 1511.21 674.227 1508 673.798C1501.61 672.947 1495.44 673.325 1491.12 673.982C1488.97 674.31 1487.29 674.706 1486.3 675.045C1486.19 675.084 1486.09 675.121 1485.99 675.157ZM1491 673.134C1495.37 672.468 1501.63 672.084 1508.11 672.948C1511.32 673.377 1513.32 673.859 1514.35 674.383C1514.84 674.633 1515.27 674.967 1515.33 675.442C1515.4 675.944 1515.03 676.321 1514.68 676.571C1513.93 677.096 1512.53 677.553 1510.86 677.932C1509.17 678.317 1507.15 678.635 1505.1 678.85C1498.08 679.589 1490.11 677.256 1486.62 676.233C1486.01 676.053 1485.53 675.914 1485.22 675.839C1485.14 675.817 1485.04 675.788 1484.96 675.743C1484.88 675.7 1484.77 675.623 1484.7 675.489C1484.63 675.337 1484.63 675.177 1484.69 675.048C1484.73 674.935 1484.81 674.852 1484.87 674.797C1484.99 674.685 1485.16 674.589 1485.34 674.504C1485.53 674.415 1485.76 674.325 1486.02 674.234C1487.08 673.872 1488.81 673.466 1491 673.134Z" fill="black"/>
</g>
<g id="Black-S">
<g id="Vector_15">
<path d="M3010.73 674.416C3017.92 680.581 3013.81 654.381 3010.73 648.731C3007.64 643.08 2970.95 646.797 2932.64 645.937H2894.63C2894.63 645.937 2863.3 652.308 2856.1 645.937C2848.9 639.567 2856.09 668.577 2859.18 674.416H2973.23C2973.23 674.416 3003.53 668.252 3010.73 674.416Z" fill="black"/>
<path d="M3002.81 676.782C2987.4 674.727 2973.01 678.608 2975.58 679.236C2978.15 679.864 2989.45 683.86 2999.21 682.832C3008.97 681.805 3018.22 678.836 3002.81 676.782Z" fill="black"/>
<path d="M2864.31 638.696C2879.72 636.642 2892.06 639.643 2891.54 641.151C2891.02 642.659 2877.67 645.774 2867.91 644.747C2858.15 643.719 2848.9 640.751 2864.31 638.696Z" fill="black"/>
</g>
<path id="Vector (Stroke)_3" fill-rule="evenodd" clip-rule="evenodd" d="M2891.92 640.579C2892.05 640.777 2892.12 641.039 2892.02 641.318C2891.95 641.546 2891.78 641.721 2891.62 641.848C2891.45 641.984 2891.25 642.113 2891.01 642.235C2890.54 642.481 2889.91 642.733 2889.16 642.981C2887.65 643.479 2885.61 643.983 2883.28 644.405C2878.63 645.249 2872.8 645.778 2867.85 645.258C2865.4 644.999 2862.97 644.618 2860.95 644.158C2858.95 643.704 2857.27 643.156 2856.37 642.527C2855.95 642.228 2855.51 641.776 2855.59 641.175C2855.67 640.606 2856.18 640.205 2856.77 639.906C2858 639.279 2860.39 638.7 2864.24 638.187C2872 637.153 2878.98 637.391 2883.97 638.079C2886.46 638.422 2888.47 638.881 2889.84 639.357C2890.52 639.593 2891.07 639.845 2891.44 640.107C2891.63 640.237 2891.81 640.392 2891.92 640.579ZM2883.83 639.096C2878.93 638.421 2872.04 638.184 2864.38 639.206C2860.52 639.72 2858.29 640.283 2857.23 640.822C2856.67 641.107 2856.61 641.295 2856.61 641.311C2856.61 641.313 2856.61 641.316 2856.61 641.326C2856.62 641.336 2856.63 641.359 2856.65 641.393C2856.7 641.466 2856.79 641.566 2856.96 641.686C2857.68 642.186 2859.17 642.7 2861.17 643.156C2863.15 643.605 2865.54 643.981 2867.96 644.236C2872.78 644.743 2878.5 644.228 2883.1 643.394C2885.39 642.977 2887.39 642.484 2888.84 642.005C2889.56 641.766 2890.14 641.534 2890.54 641.325C2890.74 641.221 2890.88 641.129 2890.97 641.053C2890.97 641.051 2890.98 641.048 2890.98 641.045C2890.95 641.019 2890.91 640.986 2890.85 640.949C2890.59 640.767 2890.15 640.552 2889.5 640.327C2888.22 639.881 2886.28 639.435 2883.83 639.096ZM2859.5 673.903H2973.17L2973.21 673.895C2973.27 673.883 2973.36 673.866 2973.47 673.844C2973.69 673.8 2974.02 673.737 2974.45 673.658C2975.29 673.501 2976.51 673.284 2977.99 673.042C2980.95 672.56 2984.98 671.98 2989.23 671.593C2993.48 671.207 2997.98 671.011 3001.87 671.303C3003.82 671.449 3005.63 671.718 3007.19 672.151C3008.74 672.584 3010.08 673.188 3011.06 674.026C3011.93 674.771 3012.48 674.892 3012.8 674.815C3013.1 674.741 3013.44 674.424 3013.71 673.631C3014.25 672.065 3014.32 669.288 3014.07 666.045C3013.81 662.829 3013.24 659.241 3012.54 656.107C3011.83 652.956 3011.01 650.321 3010.28 648.977C3009.99 648.455 3009.25 647.946 3007.9 647.512C3006.58 647.088 3004.78 646.77 3002.56 646.542C2998.12 646.086 2992.07 645.993 2984.9 646.051C2980.48 646.086 2975.63 646.179 2970.48 646.278C2958.95 646.498 2945.88 646.748 2932.64 646.451H2894.68L2894.64 646.459C2894.58 646.471 2894.49 646.489 2894.37 646.512C2894.14 646.557 2893.8 646.623 2893.36 646.704C2892.49 646.866 2891.23 647.091 2889.7 647.34C2886.65 647.839 2882.49 648.438 2878.11 648.838C2873.73 649.237 2869.11 649.439 2865.12 649.137C2863.12 648.986 2861.27 648.709 2859.68 648.261C2858.1 647.814 2856.74 647.19 2855.76 646.322C2855.33 645.945 2854.99 645.726 2854.72 645.621C2854.46 645.517 2854.31 645.535 2854.23 645.569C2854.14 645.606 2854.02 645.698 2853.9 645.932C2853.78 646.167 2853.68 646.505 2853.62 646.955C2853.34 648.777 2853.64 651.912 2854.29 655.508C2854.93 659.08 2855.88 663.037 2856.88 666.464C2857.81 669.695 2858.77 672.416 2859.5 673.903ZM2894.63 645.937L2894.52 645.434L2894.57 645.424H2932.65C2945.88 645.72 2958.91 645.471 2970.43 645.251C2975.59 645.152 2980.45 645.059 2984.89 645.023C2992.06 644.966 2998.16 645.057 3002.66 645.52C3004.91 645.751 3006.79 646.077 3008.21 646.534C3009.61 646.982 3010.69 647.594 3011.18 648.485C3011.99 649.966 3012.83 652.725 3013.54 655.883C3014.25 659.057 3014.83 662.694 3015.09 665.964C3015.35 669.206 3015.3 672.177 3014.68 673.966C3014.38 674.85 3013.87 675.612 3013.04 675.814C3012.22 676.012 3011.32 675.603 3010.39 674.806C3009.57 674.104 3008.39 673.552 3006.91 673.141C3005.44 672.732 3003.7 672.471 3001.79 672.328C2997.98 672.042 2993.55 672.232 2989.33 672.616C2985.1 673 2981.1 673.576 2978.16 674.056C2976.68 674.297 2975.48 674.513 2974.64 674.669C2974.22 674.747 2973.89 674.809 2973.67 674.853C2973.55 674.875 2973.47 674.891 2973.41 674.903L2973.35 674.916L2973.33 674.919L2973.33 674.92C2973.33 674.92 2973.33 674.92 2973.23 674.416L2973.33 674.92L2973.28 674.93H2858.87L2858.73 674.656C2857.93 673.146 2856.89 670.192 2855.89 666.75C2854.89 663.294 2853.92 659.302 2853.28 655.689C2852.63 652.098 2852.3 648.81 2852.6 646.802C2852.68 646.294 2852.8 645.837 2852.99 645.467C2853.17 645.096 2853.45 644.775 2853.84 644.616C2854.25 644.455 2854.68 644.497 2855.1 644.666C2855.52 644.832 2855.97 645.134 2856.44 645.553C2857.26 646.278 2858.45 646.847 2859.96 647.272C2861.46 647.695 2863.24 647.965 2865.2 648.113C2869.1 648.408 2873.66 648.212 2878.02 647.815C2882.37 647.418 2886.49 646.823 2889.54 646.326C2891.06 646.078 2892.31 645.855 2893.17 645.694C2893.61 645.613 2893.94 645.548 2894.17 645.503C2894.29 645.481 2894.38 645.463 2894.44 645.452L2894.5 645.438L2894.52 645.434C2894.52 645.434 2894.52 645.434 2894.63 645.937ZM2976.38 678.919C2976.7 679.008 2977.07 679.116 2977.49 679.239C2981.74 680.48 2990.99 683.181 2999.16 682.321C3001.58 682.066 3003.97 681.691 3005.94 681.241C3007.95 680.786 3009.44 680.271 3010.15 679.772C3010.32 679.651 3010.42 679.551 3010.47 679.478C3010.49 679.444 3010.5 679.422 3010.5 679.411C3010.51 679.401 3010.51 679.398 3010.51 679.396C3010.5 679.381 3010.45 679.192 3009.89 678.907C3008.83 678.368 3006.59 677.805 3002.74 677.291C2995.09 676.271 2987.69 676.724 2982.53 677.511C2979.94 677.904 2977.94 678.378 2976.75 678.785C2976.61 678.831 2976.49 678.876 2976.38 678.919ZM2982.37 676.495C2987.61 675.697 2995.11 675.237 3002.87 676.272C3006.72 676.786 3009.12 677.364 3010.35 677.991C3010.94 678.29 3011.45 678.691 3011.52 679.26C3011.6 679.862 3011.17 680.313 3010.74 680.613C3009.85 681.241 3008.17 681.789 3006.17 682.243C3004.15 682.703 3001.72 683.084 2999.26 683.343C2990.86 684.228 2981.32 681.433 2977.13 680.207C2976.4 679.992 2975.83 679.826 2975.46 679.735C2975.35 679.71 2975.24 679.674 2975.14 679.62C2975.05 679.569 2974.92 679.477 2974.84 679.317C2974.74 679.134 2974.75 678.942 2974.81 678.788C2974.87 678.652 2974.96 678.553 2975.03 678.487C2975.18 678.353 2975.38 678.238 2975.6 678.136C2975.82 678.03 2976.1 677.921 2976.42 677.813C2977.68 677.379 2979.76 676.893 2982.37 676.495Z" fill="black"/>
</g>
</g>
<defs>
<clipPath id="clip0_12_517">
<rect width="3300" height="2200" fill="white"/>
</clipPath>
</defs>
</svg>
